<svg width="18" height="18" viewBox="0 0 18 18" fill="none" xmlns="http://www.w3.org/2000/svg">
<path d="M15.9844 0C16.5469 0 17.0156 0.203125 17.3906 0.609375C17.7969 0.984375 18 1.45312 18 2.01562V15.9844C18 16.5469 17.7969 17.0312 17.3906 17.4375C17.0156 17.8125 16.5469 18 15.9844 18H2.01562C1.45312 18 0.96875 17.8125 0.5625 17.4375C0.1875 17.0312 0 16.5469 0 15.9844V2.01562C0 1.45312 0.1875 0.984375 0.5625 0.609375C0.96875 0.203125 1.45312 0 2.01562 0H15.9844ZM6 14.0156V9H3.98438V14.0156H6ZM9.98438 14.0156V11.0156H8.01562V14.0156H9.98438ZM9.98438 9V6.98438H8.01562V9H9.98438ZM14.0156 14.0156V3.98438H12V14.0156H14.0156Z" fill="#0B1A2E"/>
</svg>
