<svg width="20" height="20" viewBox="0 0 20 20" fill="none" xmlns="http://www.w3.org/2000/svg">
<path d="M7.96875 15L16.9688 6L15.5625 4.54688L7.96875 12.1406L4.40625 8.57812L3 9.98438L7.96875 15ZM2.90625 2.95312C4.875 0.984375 7.23438 0 9.98438 0C12.7344 0 15.0781 0.984375 17.0156 2.95312C18.9844 4.89062 19.9688 7.23438 19.9688 9.98438C19.9688 12.7344 18.9844 15.0938 17.0156 17.0625C15.0781 19 12.7344 19.9688 9.98438 19.9688C7.23438 19.9688 4.875 19 2.90625 17.0625C0.96875 15.0938 0 12.7344 0 9.98438C0 7.23438 0.96875 4.89062 2.90625 2.95312Z" fill="#0B1A2E"/>
</svg>
