<svg width="24" height="17" viewBox="0 0 24 17" fill="none" xmlns="http://www.w3.org/2000/svg">
<path d="M19.3594 6.04688C20.6406 6.14062 21.7344 6.67188 22.6406 7.64062C23.5469 8.57812 24 9.70312 24 11.0156C24 12.3906 23.5 13.5781 22.5 14.5781C21.5312 15.5469 20.3594 16.0312 18.9844 16.0312H6C4.34375 16.0312 2.92188 15.4531 1.73438 14.2969C0.578125 13.1094 0 11.6875 0 10.0312C0 8.5625 0.515625 7.25 1.54688 6.09375C2.60938 4.90625 3.875 4.23438 5.34375 4.07812C6 2.85938 6.92188 1.875 8.10938 1.125C9.29688 0.375 10.5938 0 12 0C13.6875 0 15.25 0.59375 16.6875 1.78125C18.1562 2.96875 19.0469 4.39062 19.3594 6.04688Z" fill="#0B1A2E"/>
</svg>
