<svg width="17" height="17" viewBox="0 0 17 17" fill="none" xmlns="http://www.w3.org/2000/svg">
<path d="M2.0625 4.07812C3.09375 3.04688 4.76562 2.20312 7.07812 1.54688C9.42188 0.859375 11.5 0.421875 13.3125 0.234375L16.0312 0C16 0.78125 15.9062 1.79687 15.75 3.04688C15.625 4.26562 15.2188 6.14062 14.5312 8.67188C13.8438 11.1719 12.9844 12.9375 11.9531 13.9688C10.8906 15.0312 9.625 15.6875 8.15625 15.9375C6.6875 16.1562 5.3125 15.9531 4.03125 15.3281C4.3125 13.7656 4.98438 12.0781 6.04688 10.2656C7.10938 8.42188 8.23438 7 9.42188 6C6.01562 7.75 3.5625 10.4062 2.0625 13.9688C1.5 13.4062 1.01562 12.6406 0.609375 11.6719C0.203125 10.6719 0 9.78125 0 9C0 8.21875 0.203125 7.34375 0.609375 6.375C1.01562 5.40625 1.5 4.64062 2.0625 4.07812Z" fill="#0B1A2E"/>
</svg>
