<svg width="23" height="14" viewBox="0 0 23 14" fill="none" xmlns="http://www.w3.org/2000/svg">
<path d="M15 7.96875C15.875 7.96875 16.8281 8.09375 17.8594 8.34375C18.8906 8.59375 19.8438 9 20.7188 9.5625C21.5938 10.125 22.0312 10.7656 22.0312 11.4844V13.9688H16.0312V11.4844C16.0312 10.1094 15.375 8.95312 14.0625 8.01562C14.2812 7.98438 14.5938 7.96875 15 7.96875ZM4.17188 8.34375C5.20312 8.09375 6.15625 7.96875 7.03125 7.96875C7.90625 7.96875 8.85938 8.09375 9.89062 8.34375C10.9219 8.59375 11.8594 9 12.7031 9.5625C13.5781 10.125 14.0156 10.7656 14.0156 11.4844V13.9688H0V11.4844C0 10.7656 0.4375 10.125 1.3125 9.5625C2.1875 9 3.14062 8.59375 4.17188 8.34375ZM9.09375 5.10938C8.53125 5.70312 7.84375 6 7.03125 6C6.21875 6 5.51562 5.70312 4.92188 5.10938C4.32812 4.51562 4.03125 3.8125 4.03125 3C4.03125 2.1875 4.32812 1.48438 4.92188 0.890625C5.51562 0.296875 6.21875 0 7.03125 0C7.84375 0 8.53125 0.296875 9.09375 0.890625C9.6875 1.48438 9.98438 2.1875 9.98438 3C9.98438 3.8125 9.6875 4.51562 9.09375 5.10938ZM17.1094 5.10938C16.5156 5.70312 15.8125 6 15 6C14.1875 6 13.4844 5.70312 12.8906 5.10938C12.2969 4.51562 12 3.8125 12 3C12 2.1875 12.2969 1.48438 12.8906 0.890625C13.4844 0.296875 14.1875 0 15 0C15.8125 0 16.5156 0.296875 17.1094 0.890625C17.7031 1.48438 18 2.1875 18 3C18 3.8125 17.7031 4.51562 17.1094 5.10938Z" fill="#0B1A2E"/>
</svg>
