<svg width="24" height="24" viewBox="0 0 24 24" fill="none" xmlns="http://www.w3.org/2000/svg">
<path d="M8.39062 18.1875C8.79688 18.7188 9 19.3281 9 20.0156C9 20.5469 8.85938 21.0469 8.57812 21.5156C8.32812 21.9531 7.96875 22.3125 7.5 22.5938C7.0625 22.875 6.5625 23.0156 6 23.0156C5.4375 23.0156 4.92188 22.875 4.45312 22.5938C4.01562 22.3125 3.65625 21.9531 3.375 21.5156C3.125 21.0469 3 20.5469 3 20.0156C3 19.4531 3.125 18.9531 3.375 18.5156C3.65625 18.0469 4.01562 17.6875 4.45312 17.4375C4.92188 17.1562 5.4375 17.0156 6 17.0156C6.4375 17.0156 6.84375 17.0938 7.21875 17.25L8.625 15.4688C8.1875 14.9688 7.875 14.4062 7.6875 13.7812C7.5 13.125 7.45312 12.4688 7.54688 11.8125L5.53125 11.1094C5.25 11.5469 4.89062 11.8906 4.45312 12.1406C4.01562 12.3906 3.53125 12.5156 3 12.5156C2.4375 12.5156 1.92188 12.375 1.45312 12.0938C1.01562 11.8125 0.65625 11.4531 0.375 11.0156C0.125 10.5469 0 10.0469 0 9.51562C0 8.95312 0.125 8.45312 0.375 8.01562C0.65625 7.54688 1.01562 7.1875 1.45312 6.9375C1.92188 6.65625 2.4375 6.51562 3 6.51562C3.5625 6.51562 4.0625 6.65625 4.5 6.9375C4.96875 7.1875 5.32812 7.54688 5.57812 8.01562C5.85938 8.45312 6 8.95312 6 9.51562C6 9.60938 6 9.67188 6 9.70312L8.01562 10.4062C8.32812 9.78125 8.76562 9.26562 9.32812 8.85938C9.89062 8.45312 10.5312 8.1875 11.25 8.0625V5.90625C10.5938 5.75 10.0469 5.40625 9.60938 4.875C9.20312 4.3125 9 3.6875 9 3C9 2.4375 9.125 1.9375 9.375 1.5C9.65625 1.03125 10.0156 0.671875 10.4531 0.421875C10.9219 0.140625 11.4375 0 12 0C12.5625 0 13.0625 0.140625 13.5 0.421875C13.9688 0.671875 14.3281 1.03125 14.5781 1.5C14.8594 1.9375 15 2.4375 15 3C15 3.6875 14.7812 4.3125 14.3438 4.875C13.9375 5.40625 13.4062 5.75 12.75 5.90625V8.0625C13.4375 8.1875 14.0625 8.45312 14.625 8.85938C15.1875 9.26562 15.6406 9.78125 15.9844 10.4062L18 9.70312C18 9.67188 18 9.64062 18 9.60938C18 9.57812 18 9.54688 18 9.51562C18 8.95312 18.125 8.45312 18.375 8.01562C18.6562 7.54688 19.0156 7.1875 19.4531 6.9375C19.9219 6.65625 20.4375 6.51562 21 6.51562C21.5625 6.51562 22.0625 6.65625 22.5 6.9375C22.9688 7.1875 23.3281 7.54688 23.5781 8.01562C23.8594 8.45312 24 8.95312 24 9.51562C24 10.0469 23.8594 10.5469 23.5781 11.0156C23.3281 11.4531 22.9688 11.8125 22.5 12.0938C22.0625 12.375 21.5625 12.5156 21 12.5156C20.4688 12.5156 19.9844 12.3906 19.5469 12.1406C19.1094 11.8906 18.75 11.5469 18.4688 11.1094L16.4531 11.8125C16.5469 12.4688 16.5 13.125 16.3125 13.7812C16.1562 14.4062 15.8438 14.9844 15.375 15.5156L16.7812 17.25C17.1562 17.0938 17.5625 17.0156 18 17.0156C18.5625 17.0156 19.0625 17.1562 19.5 17.4375C19.9688 17.6875 20.3281 18.0469 20.5781 18.5156C20.8594 18.9531 21 19.4531 21 20.0156C21 20.5469 20.8594 21.0469 20.5781 21.5156C20.3281 21.9531 19.9688 22.3125 19.5 22.5938C19.0625 22.875 18.5625 23.0156 18 23.0156C17.4375 23.0156 16.9219 22.875 16.4531 22.5938C16.0156 22.3125 15.6562 21.9531 15.375 21.5156C15.125 21.0469 15 20.5469 15 20.0156C15 19.3281 15.2031 18.7188 15.6094 18.1875L14.2031 16.4531C13.5156 16.8281 12.7812 17.0156 12 17.0156C11.2188 17.0156 10.4844 16.8281 9.79688 16.4531L8.39062 18.1875Z" fill="#0B1A2E"/>
</svg>
