<svg width="14" height="20" viewBox="0 0 14 20" fill="none" xmlns="http://www.w3.org/2000/svg">
<path d="M5.20312 8.76562C5.70312 9.23438 6.29688 9.46875 6.98438 9.46875C7.67188 9.46875 8.25 9.23438 8.71875 8.76562C9.21875 8.26562 9.46875 7.67188 9.46875 6.98438C9.46875 6.29688 9.21875 5.71875 8.71875 5.25C8.25 4.75 7.67188 4.5 6.98438 4.5C6.29688 4.5 5.70312 4.75 5.20312 5.25C4.73438 5.71875 4.5 6.29688 4.5 6.98438C4.5 7.67188 4.73438 8.26562 5.20312 8.76562ZM2.01562 2.0625C3.39062 0.6875 5.04688 0 6.98438 0C8.92188 0 10.5625 0.6875 11.9062 2.0625C13.2812 3.40625 13.9688 5.04688 13.9688 6.98438C13.9688 7.95312 13.7188 9.0625 13.2188 10.3125C12.75 11.5625 12.1719 12.7344 11.4844 13.8281C10.7969 14.9219 10.1094 15.9531 9.42188 16.9219C8.76562 17.8594 8.20312 18.6094 7.73438 19.1719L6.98438 19.9688C6.79688 19.75 6.54688 19.4688 6.23438 19.125C5.92188 18.75 5.35938 18.0312 4.54688 16.9688C3.73438 15.875 3.01562 14.8281 2.39062 13.8281C1.79688 12.7969 1.25 11.6406 0.75 10.3594C0.25 9.07812 0 7.95312 0 6.98438C0 5.04688 0.671875 3.40625 2.01562 2.0625Z" fill="#0B1A2E"/>
</svg>
