<svg width="20" height="20" viewBox="0 0 20 20" fill="none" xmlns="http://www.w3.org/2000/svg">
<path d="M9.98438 0C11.3594 0 12.6406 0.265625 13.8281 0.796875C15.0469 1.29688 16.1094 2.01562 17.0156 2.95312C17.9531 3.85937 18.6719 4.92188 19.1719 6.14062C19.7031 7.32812 19.9688 8.60938 19.9688 9.98438C19.9688 11.3594 19.7031 12.6562 19.1719 13.875C18.6719 15.0625 17.9531 16.125 17.0156 17.0625C16.1094 17.9688 15.0469 18.6875 13.8281 19.2188C12.6406 19.7188 11.3594 19.9688 9.98438 19.9688C8.60938 19.9688 7.3125 19.7188 6.09375 19.2188C4.90625 18.6875 3.84375 17.9688 2.90625 17.0625C2 16.125 1.28125 15.0625 0.75 13.875C0.25 12.6562 0 11.3594 0 9.98438C0 8.60938 0.25 7.32812 0.75 6.14062C1.28125 4.92188 2 3.85937 2.90625 2.95312C3.84375 2.01562 4.90625 1.29688 6.09375 0.796875C7.3125 0.265625 8.60938 0 9.98438 0ZM7.5 14.4844L14.4844 9.98438L7.5 5.48438V14.4844Z" fill="#0B1A2E"/>
</svg>
