<svg width="17" height="17" viewBox="0 0 17 17" fill="none" xmlns="http://www.w3.org/2000/svg">
<path d="M15.8438 14.4375C16.0312 14.6562 16.1094 14.8906 16.0781 15.1406C16.0469 15.3594 15.9375 15.5625 15.75 15.75C15.5625 15.9375 15.3281 16.0312 15.0469 16.0312H1.07812C0.796875 16.0312 0.5625 15.9375 0.375 15.75C0.1875 15.5625 0.078125 15.3594 0.046875 15.1406C0.015625 14.8906 0.09375 14.6562 0.28125 14.4375L6.04688 6.70312V2.53125L4.73438 0.84375C4.57812 0.65625 4.54688 0.46875 4.64062 0.28125C4.73438 0.09375 4.89062 0 5.10938 0H11.0156C11.2344 0 11.3906 0.09375 11.4844 0.28125C11.5781 0.46875 11.5469 0.65625 11.3906 0.84375L10.0781 2.53125V6.70312L15.8438 14.4375Z" fill="#0B1A2E"/>
</svg>
