<svg width="20" height="20" viewBox="0 0 20 20" fill="none" xmlns="http://www.w3.org/2000/svg">
<path d="M9.87617 4.80977C7.07423 4.80977 4.81418 7.06982 4.81418 9.87176C4.81418 12.6737 7.07423 14.9337 9.87617 14.9337C12.6781 14.9337 14.9382 12.6737 14.9382 9.87176C14.9382 7.06982 12.6781 4.80977 9.87617 4.80977ZM9.87617 13.1627C8.06548 13.1627 6.58521 11.6869 6.58521 9.87176C6.58521 8.05667 8.06107 6.58081 9.87617 6.58081C11.6913 6.58081 13.1671 8.05667 13.1671 9.87176C13.1671 11.6869 11.6869 13.1627 9.87617 13.1627ZM16.3259 4.60271C16.3259 5.25914 15.7972 5.7834 15.1452 5.7834C14.4888 5.7834 13.9645 5.25473 13.9645 4.60271C13.9645 3.95069 14.4932 3.42202 15.1452 3.42202C15.7972 3.42202 16.3259 3.95069 16.3259 4.60271ZM19.6785 5.80102C19.6036 4.21943 19.2424 2.81846 18.0837 1.6642C16.9295 0.509943 15.5285 0.148688 13.9469 0.0693876C12.3168 -0.0231292 7.43108 -0.0231292 5.80102 0.0693876C4.22383 0.144282 2.82286 0.505538 1.6642 1.65979C0.505538 2.81405 0.148688 4.21502 0.0693876 5.79662C-0.0231292 7.42667 -0.0231292 12.3124 0.0693876 13.9425C0.144282 15.5241 0.505538 16.9251 1.6642 18.0793C2.82286 19.2336 4.21943 19.5948 5.80102 19.6741C7.43108 19.7666 12.3168 19.7666 13.9469 19.6741C15.5285 19.5992 16.9295 19.238 18.0837 18.0793C19.238 16.9251 19.5992 15.5241 19.6785 13.9425C19.7711 12.3124 19.7711 7.43108 19.6785 5.80102ZM17.5727 15.6915C17.229 16.555 16.5638 17.2202 15.6959 17.5683C14.3963 18.0837 11.3124 17.9648 9.87617 17.9648C8.43995 17.9648 5.35165 18.0793 4.05642 17.5683C3.19293 17.2246 2.52769 16.5594 2.17965 15.6915C1.6642 14.3919 1.78315 11.308 1.78315 9.87176C1.78315 8.43555 1.66861 5.34725 2.17965 4.05201C2.52328 3.18852 3.18852 2.52328 4.05642 2.17525C5.35606 1.65979 8.43995 1.77874 9.87617 1.77874C11.3124 1.77874 14.4007 1.6642 15.6959 2.17525C16.5594 2.51888 17.2246 3.18412 17.5727 4.05201C18.0881 5.35165 17.9692 8.43555 17.9692 9.87176C17.9692 11.308 18.0881 14.3963 17.5727 15.6915Z" fill="#0B1A2E"/>
</svg>
