<svg width="20" height="20" viewBox="0 0 20 20" fill="none" xmlns="http://www.w3.org/2000/svg">
<path d="M16.7851 2.86875C14.9387 1.01794 12.4797 0 9.86657 0C4.47278 0 0.083727 4.38906 0.083727 9.78284C0.083727 11.5059 0.533209 13.1892 1.38811 14.6743L0 19.7419L5.18667 18.3803C6.61443 19.1603 8.22287 19.5701 9.86216 19.5701H9.86657C15.2559 19.5701 19.7419 15.181 19.7419 9.78725C19.7419 7.17408 18.6315 4.71956 16.7851 2.86875ZM9.86657 17.922C8.40355 17.922 6.97137 17.5298 5.72428 16.7895L5.42904 16.6132L2.35317 17.4196L3.17281 14.4187L2.97892 14.1102C2.16368 12.8146 1.73623 11.3208 1.73623 9.78284C1.73623 5.30124 5.38497 1.65251 9.87097 1.65251C12.0435 1.65251 14.0838 2.49859 15.6173 4.03652C17.1508 5.57446 18.0938 7.61475 18.0894 9.78725C18.0894 14.2733 14.3482 17.922 9.86657 17.922ZM14.3261 11.8319C14.0838 11.7086 12.8807 11.1181 12.656 11.0387C12.4313 10.955 12.2682 10.9154 12.1052 11.1621C11.9421 11.4089 11.475 11.9553 11.3296 12.1228C11.1886 12.2858 11.0432 12.3079 10.8008 12.1845C9.36421 11.4662 8.42118 10.9021 7.47374 9.27607C7.22256 8.84422 7.72492 8.87506 8.19203 7.94085C8.27135 7.7778 8.23169 7.63678 8.16999 7.5134C8.1083 7.39001 7.61916 6.18699 7.41645 5.69784C7.21815 5.22192 7.01544 5.28802 6.86561 5.27921C6.7246 5.27039 6.56155 5.2704 6.39851 5.2704C6.23546 5.2704 5.97106 5.33209 5.74632 5.57446C5.52158 5.82123 4.89142 6.41173 4.89142 7.61475C4.89142 8.81778 5.76835 9.98114 5.88733 10.1442C6.01072 10.3072 7.61034 12.775 10.0649 13.837C11.616 14.5068 12.2241 14.5641 12.9997 14.4495C13.4712 14.379 14.4451 13.859 14.6478 13.2862C14.8505 12.7133 14.8505 12.2241 14.7888 12.1228C14.7315 12.0126 14.5685 11.9509 14.3261 11.8319Z" fill="#0B1A2E"/>
</svg>
