<svg width="18" height="18" viewBox="0 0 18 18" fill="none" xmlns="http://www.w3.org/2000/svg">
<path d="M11.0156 0C13.0469 0.4375 14.7188 1.48438 16.0312 3.14062C17.3438 4.76562 18 6.64062 18 8.76562C18 10.8906 17.3438 12.7812 16.0312 14.4375C14.7188 16.0625 13.0469 17.0938 11.0156 17.5312V15.4688C12.4844 15.0312 13.6719 14.2031 14.5781 12.9844C15.5156 11.7656 15.9844 10.3594 15.9844 8.76562C15.9844 7.17188 15.5156 5.76562 14.5781 4.54688C13.6719 3.32812 12.4844 2.5 11.0156 2.0625V0ZM13.5 8.76562C13.5 10.6406 12.6719 11.9844 11.0156 12.7969V4.73438C11.7031 5.07812 12.2812 5.64062 12.75 6.42188C13.25 7.20312 13.5 7.98438 13.5 8.76562ZM0 5.76562H3.98438L9 0.75V16.7812L3.98438 11.7656H0V5.76562Z" fill="#0B1A2E"/>
</svg>
