<svg width="17" height="20" viewBox="0 0 17 20" fill="none" xmlns="http://www.w3.org/2000/svg">
<path d="M8.01562 0C13.3594 4.53125 16.0312 8.45312 16.0312 11.7656C16.0312 13.0156 15.8125 14.1562 15.375 15.1875C14.9375 16.1875 14.3438 17.0469 13.5938 17.7656C12.8438 18.4844 11.9844 19.0312 11.0156 19.4062C10.0781 19.7812 9.07812 19.9688 8.01562 19.9688C6.95312 19.9688 5.9375 19.7812 4.96875 19.4062C4.03125 19.0312 3.1875 18.4844 2.4375 17.7656C1.6875 17.0469 1.09375 16.1875 0.65625 15.1875C0.21875 14.1562 0 13.0156 0 11.7656C0 8.45312 2.67188 4.53125 8.01562 0ZM3.84375 12C3.625 12 3.4375 12.0938 3.28125 12.2812C3.125 12.4375 3.0625 12.625 3.09375 12.8438C3.28125 13.875 3.65625 14.7031 4.21875 15.3281C4.78125 15.9219 5.42188 16.3594 6.14062 16.6406C6.85938 16.9219 7.57812 17.0312 8.29688 16.9688C8.48438 16.9688 8.64062 16.9062 8.76562 16.7812C8.92188 16.625 9 16.4375 9 16.2188C9 16 8.92188 15.8281 8.76562 15.7031C8.60938 15.5469 8.42188 15.4688 8.20312 15.4688C7.76562 15.5 7.28125 15.4375 6.75 15.2812C6.25 15.0938 5.79688 14.7969 5.39062 14.3906C4.98438 13.9531 4.71875 13.3594 4.59375 12.6094C4.5625 12.4219 4.46875 12.2812 4.3125 12.1875C4.1875 12.0625 4.03125 12 3.84375 12Z" fill="#0B1A2E"/>
</svg>
