<svg width="497" height="133" viewBox="0 0 497 133" fill="none" xmlns="http://www.w3.org/2000/svg">
<g clip-path="url(#clip0_249_500)">
<path d="M154.727 132.499V107.011C154.727 97.2823 158.424 89.1106 165.817 82.4954C173.276 75.8154 184.56 69.5244 199.671 63.6227C214.199 58.3046 222.857 54.5105 225.646 52.2406C228.499 49.9058 229.926 46.7604 229.926 42.8042C229.926 37.3564 228.759 33.8543 226.424 32.2977C224.089 30.7412 220.62 29.963 216.015 29.963C210.502 29.963 206.157 30.9358 202.979 32.8814C199.801 34.8271 198.212 39.3994 198.212 46.5982H154.338C154.338 35.2486 158.262 24.6449 166.109 14.7869C173.956 4.92897 190.592 0 216.015 0C242.151 0 258.398 4.70198 264.753 14.1059C271.109 23.5099 274.287 32.849 274.287 42.1233C274.287 53.1486 270.234 62.131 262.127 69.0705C254.02 76.0099 243.708 82.3657 231.191 88.1378C220.879 92.2237 213.291 95.2394 208.427 97.1851C203.563 99.0659 201.131 100.849 201.131 102.536H274.092V132.499H154.727Z" fill="#222F5B"/>
<rect y="4.5625" width="38.4128" height="127.936" fill="#222F5B"/>
<rect x="98.8125" y="4.5625" width="38.4128" height="127.936" fill="#222F5B"/>
<path d="M76.7833 66.1563C58.7487 74.0304 40.9169 71.2767 31.6188 69.6713C29.4121 75.0893 27.384 86.5751 32.6802 85.7724C39.3003 84.7691 44.4101 86.2764 65.9434 79.0889C83.9913 73.0648 95.1111 63.6235 100.128 58.4061L107.552 61.617C108.422 56.8679 109.697 45.0471 104.72 48.4183C98.4994 52.6323 91.0308 59.9356 76.7833 66.1563Z" fill="#222F5B"/>
<path fill-rule="evenodd" clip-rule="evenodd" d="M121.664 15.0127C96.7587 42.0526 36.3364 14.1227 25.6923 69.3353C50.8035 75.5005 81.8633 69.5133 101.74 51.875C86.638 77.588 55.0389 86.9735 21.7266 85.2906C27.1213 91.6504 33.817 96.7267 41.3424 100.162C48.8678 103.597 57.0399 105.308 65.2833 105.174C73.5268 105.039 81.6412 103.064 89.0553 99.3851C96.4694 95.7066 103.003 90.415 108.196 83.8828C121.791 66.7947 129.373 34.9811 121.664 15.0127Z" fill="white"/>
<path fill-rule="evenodd" clip-rule="evenodd" d="M121.664 11.2969C96.7587 38.3368 36.3364 10.4069 25.6923 65.6194C50.8035 71.7847 81.8633 65.7974 101.74 48.1592C86.638 73.8722 55.0389 83.2577 21.7266 81.5748C27.1213 87.9346 33.817 93.0108 41.3424 96.4461C48.8678 99.8813 57.0399 101.592 65.2833 101.458C73.5268 101.324 81.6412 99.3477 89.0553 95.6693C96.4694 91.9908 103.003 86.6992 108.196 80.1669C121.791 63.0789 129.373 31.2653 121.664 11.2969Z" fill="url(#paint0_linear_249_500)"/>
<path d="M319.38 4.93133H277.48L329.697 132.499H377.012L429.327 4.5625L387.729 4.93133L353.448 96.6635L319.38 4.93133Z" fill="url(#paint1_linear_249_500)"/>
<path d="M443.589 90.4451V60.6621H415.449L425.809 35.3114L443.589 35.6034V5.2041H468.032V35.6034H496.377V60.6621H468.032V90.4451H443.589Z" fill="#222F5B"/>
</g>
<defs>
<linearGradient id="paint0_linear_249_500" x1="21.7266" y1="56.3796" x2="124.773" y2="56.3796" gradientUnits="userSpaceOnUse">
<stop stop-color="#348B35"/>
<stop offset="1" stop-color="#ABC936"/>
</linearGradient>
<linearGradient id="paint1_linear_249_500" x1="277.48" y1="68.5285" x2="429.365" y2="68.5285" gradientUnits="userSpaceOnUse">
<stop stop-color="#348B35"/>
<stop offset="1" stop-color="#ABC936"/>
</linearGradient>
<clipPath id="clip0_249_500">
<rect width="496.377" height="132.499" fill="white"/>
</clipPath>
</defs>
</svg>
