<svg width="403" height="189" viewBox="0 0 403 189" fill="none" xmlns="http://www.w3.org/2000/svg">
<path d="M11.7531 55.4386H75.9018L63.5183 18.5342L0 18.5343L11.7531 55.4386Z" fill="#1C436F"/>
<path d="M25.1758 37.9889V54.1182" stroke="#F9F8F7" stroke-width="0.702361" stroke-miterlimit="10" stroke-linecap="round"/>
<path d="M70.0586 37.9889V54.1182" stroke="#F9F8F7" stroke-width="0.702361" stroke-miterlimit="10" stroke-linecap="round"/>
<path d="M84.0339 38.666H19.2242L5.82031 0.000297593H70.63L84.0339 38.666Z" fill="#F9F8F7"/>
<mask id="mask0_389_10858" style="mask-type:luminance" maskUnits="userSpaceOnUse" x="8" y="3" width="73" height="33">
<path d="M20.2266 35.6318L8.92578 3.03352H69.6221L80.9229 35.6318H20.2266Z" fill="white"/>
</mask>
<g mask="url(#mask0_389_10858)">
<path d="M20.2266 35.6318L8.92578 3.03352H69.6221L80.9229 35.6318H20.2266Z" fill="#1C436F"/>
</g>
<path d="M27.9672 35.6318L16.6641 3.03352" stroke="#F9F8F7" stroke-width="0.702361" stroke-miterlimit="10" stroke-linecap="round"/>
<path d="M35.6836 35.6318L24.3828 3.03352" stroke="#F9F8F7" stroke-width="0.702361" stroke-miterlimit="10" stroke-linecap="round"/>
<path d="M43.3969 35.6318L32.0938 3.03352" stroke="#F9F8F7" stroke-width="0.702361" stroke-miterlimit="10" stroke-linecap="round"/>
<path d="M51.1055 35.6318L39.8047 3.03352" stroke="#F9F8F7" stroke-width="0.702361" stroke-miterlimit="10" stroke-linecap="round"/>
<path d="M58.8219 35.6318L47.5234 3.03352" stroke="#F9F8F7" stroke-width="0.702361" stroke-miterlimit="10" stroke-linecap="round"/>
<path d="M66.5391 35.6318L55.2383 3.03352" stroke="#F9F8F7" stroke-width="0.702361" stroke-miterlimit="10" stroke-linecap="round"/>
<path d="M74.25 35.6318L62.9492 3.03352" stroke="#F9F8F7" stroke-width="0.702361" stroke-miterlimit="10" stroke-linecap="round"/>
<path d="M11.5742 10.6738H72.2681" stroke="#F9F8F7" stroke-width="0.702361" stroke-miterlimit="10" stroke-linecap="round"/>
<path d="M14.582 19.333H75.1668" stroke="#F9F8F7" stroke-width="0.702361" stroke-miterlimit="10" stroke-linecap="round"/>
<path d="M17.582 27.9961H78.2759" stroke="#F9F8F7" stroke-width="0.702361" stroke-miterlimit="10" stroke-linecap="round"/>
<path d="M14.582 19.333H75.1668" stroke="#F9F8F7" stroke-width="0.702361" stroke-miterlimit="10" stroke-linecap="round"/>
<path d="M121.12 55.4386H185.269L172.885 18.5342L109.367 18.5343L121.12 55.4386Z" fill="#1C436F"/>
<path d="M134.543 37.9899V54.1191" stroke="#F9F8F7" stroke-width="0.702361" stroke-miterlimit="10" stroke-linecap="round"/>
<path d="M179.426 37.9899V54.1191" stroke="#F9F8F7" stroke-width="0.702361" stroke-miterlimit="10" stroke-linecap="round"/>
<path d="M193.401 38.666H128.591L115.188 0.000297593H179.997L193.401 38.666Z" fill="#F9F8F7"/>
<mask id="mask1_389_10858" style="mask-type:luminance" maskUnits="userSpaceOnUse" x="118" y="3" width="73" height="33">
<path d="M129.594 35.6318L118.293 3.03352H178.989L190.29 35.6318H129.594Z" fill="white"/>
</mask>
<g mask="url(#mask1_389_10858)">
<path d="M129.594 35.6318L118.293 3.03352H178.989L190.29 35.6318H129.594Z" fill="#1C436F"/>
</g>
<path d="M137.334 35.6318L126.031 3.03352" stroke="#F9F8F7" stroke-width="0.702361" stroke-miterlimit="10" stroke-linecap="round"/>
<path d="M145.051 35.6318L133.75 3.03352" stroke="#F9F8F7" stroke-width="0.702361" stroke-miterlimit="10" stroke-linecap="round"/>
<path d="M152.76 35.6318L141.457 3.03352" stroke="#F9F8F7" stroke-width="0.702361" stroke-miterlimit="10" stroke-linecap="round"/>
<path d="M160.473 35.6318L149.172 3.03352" stroke="#F9F8F7" stroke-width="0.702361" stroke-miterlimit="10" stroke-linecap="round"/>
<path d="M168.189 35.6318L156.891 3.03352" stroke="#F9F8F7" stroke-width="0.702361" stroke-miterlimit="10" stroke-linecap="round"/>
<path d="M175.906 35.6318L164.605 3.03352" stroke="#F9F8F7" stroke-width="0.702361" stroke-miterlimit="10" stroke-linecap="round"/>
<path d="M183.617 35.6318L172.316 3.03352" stroke="#F9F8F7" stroke-width="0.702361" stroke-miterlimit="10" stroke-linecap="round"/>
<path d="M120.941 10.6748H181.635" stroke="#F9F8F7" stroke-width="0.702361" stroke-miterlimit="10" stroke-linecap="round"/>
<path d="M123.945 19.334H184.53" stroke="#F9F8F7" stroke-width="0.702361" stroke-miterlimit="10" stroke-linecap="round"/>
<path d="M126.949 27.9961H187.643" stroke="#F9F8F7" stroke-width="0.702361" stroke-miterlimit="10" stroke-linecap="round"/>
<path d="M123.945 19.334H184.53" stroke="#F9F8F7" stroke-width="0.702361" stroke-miterlimit="10" stroke-linecap="round"/>
<path d="M230.488 55.4386H294.636L282.253 18.5342L218.734 18.5343L230.488 55.4386Z" fill="#1C436F"/>
<path d="M243.91 37.9899V54.1191" stroke="#F9F8F7" stroke-width="0.702361" stroke-miterlimit="10" stroke-linecap="round"/>
<path d="M288.793 37.9899V54.1191" stroke="#F9F8F7" stroke-width="0.702361" stroke-miterlimit="10" stroke-linecap="round"/>
<path d="M302.772 38.666H237.962L224.559 0.000297593H289.368L302.772 38.666Z" fill="#F9F8F7"/>
<mask id="mask2_389_10858" style="mask-type:luminance" maskUnits="userSpaceOnUse" x="227" y="3" width="73" height="33">
<path d="M238.965 35.6328L227.664 3.0345H288.36L299.661 35.6328H238.965Z" fill="white"/>
</mask>
<g mask="url(#mask2_389_10858)">
<path d="M238.965 35.6328L227.664 3.0345H288.36L299.661 35.6328H238.965Z" fill="#1C436F"/>
</g>
<path d="M246.706 35.6328L235.402 3.0345" stroke="#F9F8F7" stroke-width="0.702361" stroke-miterlimit="10" stroke-linecap="round"/>
<path d="M254.422 35.6328L243.121 3.0345" stroke="#F9F8F7" stroke-width="0.702361" stroke-miterlimit="10" stroke-linecap="round"/>
<path d="M262.131 35.6328L250.828 3.0345" stroke="#F9F8F7" stroke-width="0.702361" stroke-miterlimit="10" stroke-linecap="round"/>
<path d="M269.84 35.6328L258.539 3.0345" stroke="#F9F8F7" stroke-width="0.702361" stroke-miterlimit="10" stroke-linecap="round"/>
<path d="M277.556 35.6328L266.258 3.0345" stroke="#F9F8F7" stroke-width="0.702361" stroke-miterlimit="10" stroke-linecap="round"/>
<path d="M285.277 35.6328L273.977 3.0345" stroke="#F9F8F7" stroke-width="0.702361" stroke-miterlimit="10" stroke-linecap="round"/>
<path d="M292.988 35.6328L281.688 3.0345" stroke="#F9F8F7" stroke-width="0.702361" stroke-miterlimit="10" stroke-linecap="round"/>
<path d="M230.309 10.6748H291.002" stroke="#F9F8F7" stroke-width="0.702361" stroke-miterlimit="10" stroke-linecap="round"/>
<path d="M233.316 19.334H293.901" stroke="#F9F8F7" stroke-width="0.702361" stroke-miterlimit="10" stroke-linecap="round"/>
<path d="M236.32 27.9961H297.014" stroke="#F9F8F7" stroke-width="0.702361" stroke-miterlimit="10" stroke-linecap="round"/>
<path d="M233.316 19.334H293.901" stroke="#F9F8F7" stroke-width="0.702361" stroke-miterlimit="10" stroke-linecap="round"/>
<path d="M61.5656 120.636H125.714L113.331 83.7314L49.8125 83.7316L61.5656 120.636Z" fill="#1C436F"/>
<path d="M74.9883 103.186V119.315" stroke="#F9F8F7" stroke-width="0.702361" stroke-miterlimit="10" stroke-linecap="round"/>
<path d="M119.871 103.186V119.315" stroke="#F9F8F7" stroke-width="0.702361" stroke-miterlimit="10" stroke-linecap="round"/>
<path d="M133.85 103.863H69.0406L55.6367 65.1976H120.446L133.85 103.863Z" fill="#F9F8F7"/>
<mask id="mask3_389_10858" style="mask-type:luminance" maskUnits="userSpaceOnUse" x="58" y="68" width="73" height="33">
<path d="M70.043 100.829L58.7422 68.2308H119.438L130.739 100.829H70.043Z" fill="white"/>
</mask>
<g mask="url(#mask3_389_10858)">
<path d="M70.043 100.829L58.7422 68.2308H119.438L130.739 100.829H70.043Z" fill="#1C436F"/>
</g>
<path d="M77.7836 100.829L66.4805 68.2308" stroke="#F9F8F7" stroke-width="0.702361" stroke-miterlimit="10" stroke-linecap="round"/>
<path d="M85.5 100.829L74.1992 68.2308" stroke="#F9F8F7" stroke-width="0.702361" stroke-miterlimit="10" stroke-linecap="round"/>
<path d="M93.2094 100.829L81.9062 68.2308" stroke="#F9F8F7" stroke-width="0.702361" stroke-miterlimit="10" stroke-linecap="round"/>
<path d="M100.918 100.829L89.6172 68.2308" stroke="#F9F8F7" stroke-width="0.702361" stroke-miterlimit="10" stroke-linecap="round"/>
<path d="M108.634 100.829L97.3359 68.2308" stroke="#F9F8F7" stroke-width="0.702361" stroke-miterlimit="10" stroke-linecap="round"/>
<path d="M116.356 100.829L105.055 68.2308" stroke="#F9F8F7" stroke-width="0.702361" stroke-miterlimit="10" stroke-linecap="round"/>
<path d="M124.066 100.829L112.766 68.2308" stroke="#F9F8F7" stroke-width="0.702361" stroke-miterlimit="10" stroke-linecap="round"/>
<path d="M61.3867 75.8721H122.081" stroke="#F9F8F7" stroke-width="0.702361" stroke-miterlimit="10" stroke-linecap="round"/>
<path d="M64.3945 84.5312H124.979" stroke="#F9F8F7" stroke-width="0.702361" stroke-miterlimit="10" stroke-linecap="round"/>
<path d="M67.3984 93.1934H128.092" stroke="#F9F8F7" stroke-width="0.702361" stroke-miterlimit="10" stroke-linecap="round"/>
<path d="M64.3945 84.5312H124.979" stroke="#F9F8F7" stroke-width="0.702361" stroke-miterlimit="10" stroke-linecap="round"/>
<path d="M170.937 120.636H235.085L222.702 83.7314L159.184 83.7316L170.937 120.636Z" fill="#1C436F"/>
<path d="M184.359 103.187V119.316" stroke="#F9F8F7" stroke-width="0.702361" stroke-miterlimit="10" stroke-linecap="round"/>
<path d="M229.242 103.187V119.316" stroke="#F9F8F7" stroke-width="0.702361" stroke-miterlimit="10" stroke-linecap="round"/>
<path d="M243.218 103.863H178.408L165.004 65.1976H229.814L243.218 103.863Z" fill="#F9F8F7"/>
<mask id="mask4_389_10858" style="mask-type:luminance" maskUnits="userSpaceOnUse" x="168" y="68" width="73" height="33">
<path d="M179.41 100.83L168.109 68.2318H228.806L240.106 100.83H179.41Z" fill="white"/>
</mask>
<g mask="url(#mask4_389_10858)">
<path d="M179.41 100.83L168.109 68.2318H228.806L240.106 100.83H179.41Z" fill="#1C436F"/>
</g>
<path d="M187.151 100.83L175.848 68.2318" stroke="#F9F8F7" stroke-width="0.702361" stroke-miterlimit="10" stroke-linecap="round"/>
<path d="M194.867 100.83L183.566 68.2318" stroke="#F9F8F7" stroke-width="0.702361" stroke-miterlimit="10" stroke-linecap="round"/>
<path d="M202.581 100.83L191.277 68.2318" stroke="#F9F8F7" stroke-width="0.702361" stroke-miterlimit="10" stroke-linecap="round"/>
<path d="M210.289 100.83L198.988 68.2318" stroke="#F9F8F7" stroke-width="0.702361" stroke-miterlimit="10" stroke-linecap="round"/>
<path d="M218.006 100.83L206.707 68.2318" stroke="#F9F8F7" stroke-width="0.702361" stroke-miterlimit="10" stroke-linecap="round"/>
<path d="M225.723 100.83L214.422 68.2318" stroke="#F9F8F7" stroke-width="0.702361" stroke-miterlimit="10" stroke-linecap="round"/>
<path d="M233.434 100.83L222.133 68.2318" stroke="#F9F8F7" stroke-width="0.702361" stroke-miterlimit="10" stroke-linecap="round"/>
<path d="M170.758 75.8721H231.452" stroke="#F9F8F7" stroke-width="0.702361" stroke-miterlimit="10" stroke-linecap="round"/>
<path d="M173.766 84.5312H234.35" stroke="#F9F8F7" stroke-width="0.702361" stroke-miterlimit="10" stroke-linecap="round"/>
<path d="M176.766 93.1934H237.46" stroke="#F9F8F7" stroke-width="0.702361" stroke-miterlimit="10" stroke-linecap="round"/>
<path d="M173.766 84.5312H234.35" stroke="#F9F8F7" stroke-width="0.702361" stroke-miterlimit="10" stroke-linecap="round"/>
<path d="M280.304 120.636H344.453L332.069 83.7314L268.551 83.7316L280.304 120.636Z" fill="#1C436F"/>
<path d="M293.727 103.186V119.315" stroke="#F9F8F7" stroke-width="0.702361" stroke-miterlimit="10" stroke-linecap="round"/>
<path d="M338.609 103.186V119.315" stroke="#F9F8F7" stroke-width="0.702361" stroke-miterlimit="10" stroke-linecap="round"/>
<path d="M352.585 103.863H287.775L274.371 65.1976H339.181L352.585 103.863Z" fill="#F9F8F7"/>
<mask id="mask5_389_10858" style="mask-type:luminance" maskUnits="userSpaceOnUse" x="277" y="68" width="73" height="33">
<path d="M288.777 100.829L277.477 68.2308H338.173L349.474 100.829H288.777Z" fill="white"/>
</mask>
<g mask="url(#mask5_389_10858)">
<path d="M288.777 100.829L277.477 68.2308H338.173L349.474 100.829H288.777Z" fill="#1C436F"/>
</g>
<path d="M296.518 100.829L285.215 68.2308" stroke="#F9F8F7" stroke-width="0.702361" stroke-miterlimit="10" stroke-linecap="round"/>
<path d="M304.234 100.829L292.934 68.2308" stroke="#F9F8F7" stroke-width="0.702361" stroke-miterlimit="10" stroke-linecap="round"/>
<path d="M311.944 100.829L300.641 68.2308" stroke="#F9F8F7" stroke-width="0.702361" stroke-miterlimit="10" stroke-linecap="round"/>
<path d="M319.656 100.829L308.355 68.2308" stroke="#F9F8F7" stroke-width="0.702361" stroke-miterlimit="10" stroke-linecap="round"/>
<path d="M327.373 100.829L316.074 68.2308" stroke="#F9F8F7" stroke-width="0.702361" stroke-miterlimit="10" stroke-linecap="round"/>
<path d="M335.09 100.829L323.789 68.2308" stroke="#F9F8F7" stroke-width="0.702361" stroke-miterlimit="10" stroke-linecap="round"/>
<path d="M342.801 100.829L331.5 68.2308" stroke="#F9F8F7" stroke-width="0.702361" stroke-miterlimit="10" stroke-linecap="round"/>
<path d="M280.125 75.8711H340.819" stroke="#F9F8F7" stroke-width="0.702361" stroke-miterlimit="10" stroke-linecap="round"/>
<path d="M283.129 84.5312H343.714" stroke="#F9F8F7" stroke-width="0.702361" stroke-miterlimit="10" stroke-linecap="round"/>
<path d="M286.133 93.1934H346.827" stroke="#F9F8F7" stroke-width="0.702361" stroke-miterlimit="10" stroke-linecap="round"/>
<path d="M283.129 84.5312H343.714" stroke="#F9F8F7" stroke-width="0.702361" stroke-miterlimit="10" stroke-linecap="round"/>
<path d="M111.195 188.69H175.343L162.96 151.785L99.4414 151.785L111.195 188.69Z" fill="#1C436F"/>
<path d="M124.621 171.241V187.37" stroke="#F9F8F7" stroke-width="0.702361" stroke-miterlimit="10" stroke-linecap="round"/>
<path d="M169.504 171.241V187.37" stroke="#F9F8F7" stroke-width="0.702361" stroke-miterlimit="10" stroke-linecap="round"/>
<path d="M183.479 171.917H118.67L105.266 133.251H170.075L183.479 171.917Z" fill="#F9F8F7"/>
<mask id="mask6_389_10858" style="mask-type:luminance" maskUnits="userSpaceOnUse" x="108" y="136" width="73" height="33">
<path d="M119.672 168.884L108.371 136.285H169.067L180.368 168.884H119.672Z" fill="white"/>
</mask>
<g mask="url(#mask6_389_10858)">
<path d="M119.672 168.884L108.371 136.285H169.067L180.368 168.884H119.672Z" fill="#1C436F"/>
</g>
<path d="M127.413 168.884L116.109 136.285" stroke="#F9F8F7" stroke-width="0.702361" stroke-miterlimit="10" stroke-linecap="round"/>
<path d="M135.129 168.884L123.828 136.285" stroke="#F9F8F7" stroke-width="0.702361" stroke-miterlimit="10" stroke-linecap="round"/>
<path d="M142.838 168.884L131.535 136.285" stroke="#F9F8F7" stroke-width="0.702361" stroke-miterlimit="10" stroke-linecap="round"/>
<path d="M150.551 168.884L139.25 136.285" stroke="#F9F8F7" stroke-width="0.702361" stroke-miterlimit="10" stroke-linecap="round"/>
<path d="M158.267 168.884L146.969 136.285" stroke="#F9F8F7" stroke-width="0.702361" stroke-miterlimit="10" stroke-linecap="round"/>
<path d="M165.984 168.884L154.684 136.285" stroke="#F9F8F7" stroke-width="0.702361" stroke-miterlimit="10" stroke-linecap="round"/>
<path d="M173.695 168.884L162.395 136.285" stroke="#F9F8F7" stroke-width="0.702361" stroke-miterlimit="10" stroke-linecap="round"/>
<path d="M111.02 143.926H171.713" stroke="#F9F8F7" stroke-width="0.702361" stroke-miterlimit="10" stroke-linecap="round"/>
<path d="M114.023 152.585H174.608" stroke="#F9F8F7" stroke-width="0.702361" stroke-miterlimit="10" stroke-linecap="round"/>
<path d="M117.027 161.247H177.721" stroke="#F9F8F7" stroke-width="0.702361" stroke-miterlimit="10" stroke-linecap="round"/>
<path d="M114.023 152.585H174.608" stroke="#F9F8F7" stroke-width="0.702361" stroke-miterlimit="10" stroke-linecap="round"/>
<path d="M220.566 188.69H284.714L272.331 151.785L208.812 151.785L220.566 188.69Z" fill="#1C436F"/>
<path d="M233.988 171.24V187.369" stroke="#F9F8F7" stroke-width="0.702361" stroke-miterlimit="10" stroke-linecap="round"/>
<path d="M278.871 171.24V187.369" stroke="#F9F8F7" stroke-width="0.702361" stroke-miterlimit="10" stroke-linecap="round"/>
<path d="M292.846 171.917H228.037L214.633 133.251H279.443L292.846 171.917Z" fill="#F9F8F7"/>
<mask id="mask7_389_10858" style="mask-type:luminance" maskUnits="userSpaceOnUse" x="217" y="136" width="73" height="33">
<path d="M229.039 168.883L217.738 136.284H278.435L289.735 168.883H229.039Z" fill="white"/>
</mask>
<g mask="url(#mask7_389_10858)">
<path d="M229.039 168.883L217.738 136.284H278.435L289.735 168.883H229.039Z" fill="#1C436F"/>
</g>
<path d="M236.78 168.883L225.477 136.284" stroke="#F9F8F7" stroke-width="0.702361" stroke-miterlimit="10" stroke-linecap="round"/>
<path d="M244.496 168.883L233.195 136.284" stroke="#F9F8F7" stroke-width="0.702361" stroke-miterlimit="10" stroke-linecap="round"/>
<path d="M252.209 168.883L240.906 136.284" stroke="#F9F8F7" stroke-width="0.702361" stroke-miterlimit="10" stroke-linecap="round"/>
<path d="M259.918 168.883L248.617 136.284" stroke="#F9F8F7" stroke-width="0.702361" stroke-miterlimit="10" stroke-linecap="round"/>
<path d="M267.634 168.883L256.336 136.284" stroke="#F9F8F7" stroke-width="0.702361" stroke-miterlimit="10" stroke-linecap="round"/>
<path d="M275.352 168.883L264.051 136.284" stroke="#F9F8F7" stroke-width="0.702361" stroke-miterlimit="10" stroke-linecap="round"/>
<path d="M283.063 168.883L271.762 136.284" stroke="#F9F8F7" stroke-width="0.702361" stroke-miterlimit="10" stroke-linecap="round"/>
<path d="M220.387 143.925H281.081" stroke="#F9F8F7" stroke-width="0.702361" stroke-miterlimit="10" stroke-linecap="round"/>
<path d="M223.395 152.585H283.979" stroke="#F9F8F7" stroke-width="0.702361" stroke-miterlimit="10" stroke-linecap="round"/>
<path d="M226.395 161.247H287.088" stroke="#F9F8F7" stroke-width="0.702361" stroke-miterlimit="10" stroke-linecap="round"/>
<path d="M223.395 152.585H283.979" stroke="#F9F8F7" stroke-width="0.702361" stroke-miterlimit="10" stroke-linecap="round"/>
<path d="M329.933 188.69H394.082L381.698 151.785L318.18 151.785L329.933 188.69Z" fill="#1C436F"/>
<path d="M343.355 171.24V187.369" stroke="#F9F8F7" stroke-width="0.702361" stroke-miterlimit="10" stroke-linecap="round"/>
<path d="M388.238 171.24V187.369" stroke="#F9F8F7" stroke-width="0.702361" stroke-miterlimit="10" stroke-linecap="round"/>
<path d="M402.214 171.917H337.404L324 133.251H388.81L402.214 171.917Z" fill="#F9F8F7"/>
<mask id="mask8_389_10858" style="mask-type:luminance" maskUnits="userSpaceOnUse" x="327" y="136" width="73" height="33">
<path d="M338.406 168.883L327.105 136.284H387.802L399.103 168.883H338.406Z" fill="white"/>
</mask>
<g mask="url(#mask8_389_10858)">
<path d="M338.406 168.883L327.105 136.284H387.802L399.103 168.883H338.406Z" fill="#1C436F"/>
</g>
<path d="M346.147 168.883L334.844 136.284" stroke="#F9F8F7" stroke-width="0.702361" stroke-miterlimit="10" stroke-linecap="round"/>
<path d="M353.863 168.883L342.562 136.284" stroke="#F9F8F7" stroke-width="0.702361" stroke-miterlimit="10" stroke-linecap="round"/>
<path d="M361.577 168.883L350.273 136.284" stroke="#F9F8F7" stroke-width="0.702361" stroke-miterlimit="10" stroke-linecap="round"/>
<path d="M369.285 168.883L357.984 136.284" stroke="#F9F8F7" stroke-width="0.702361" stroke-miterlimit="10" stroke-linecap="round"/>
<path d="M377.002 168.883L365.703 136.284" stroke="#F9F8F7" stroke-width="0.702361" stroke-miterlimit="10" stroke-linecap="round"/>
<path d="M384.719 168.883L373.418 136.284" stroke="#F9F8F7" stroke-width="0.702361" stroke-miterlimit="10" stroke-linecap="round"/>
<path d="M392.43 168.883L381.129 136.284" stroke="#F9F8F7" stroke-width="0.702361" stroke-miterlimit="10" stroke-linecap="round"/>
<path d="M329.754 143.926H390.448" stroke="#F9F8F7" stroke-width="0.702361" stroke-miterlimit="10" stroke-linecap="round"/>
<path d="M332.758 152.585H393.343" stroke="#F9F8F7" stroke-width="0.702361" stroke-miterlimit="10" stroke-linecap="round"/>
<path d="M335.762 161.247H396.456" stroke="#F9F8F7" stroke-width="0.702361" stroke-miterlimit="10" stroke-linecap="round"/>
<path d="M332.758 152.585H393.343" stroke="#F9F8F7" stroke-width="0.702361" stroke-miterlimit="10" stroke-linecap="round"/>
</svg>
