<svg width="560" height="366" viewBox="0 0 560 366" fill="none" xmlns="http://www.w3.org/2000/svg">
<circle cx="274.437" cy="178.832" r="178.832" fill="#92DFEC"/>
<path d="M503.994 294.362C503.994 304.255 396.415 312.274 263.71 312.274C131.005 312.274 23.4258 304.255 23.4258 294.362C23.4258 284.468 131.005 276.449 263.71 276.449C396.415 276.449 503.994 284.468 503.994 294.362Z" fill="#67C87B"/>
<path d="M485.565 294.526C485.565 303.755 386.237 311.236 263.71 311.236C141.183 311.236 41.8555 303.755 41.8555 294.526C41.8555 285.297 141.183 277.816 263.71 277.816C386.237 277.816 485.565 285.297 485.565 294.526Z" fill="#389C71"/>
<path d="M483.286 294.525C483.286 303.659 384.977 311.064 263.706 311.064C142.435 311.064 44.125 303.659 44.125 294.525C44.125 285.39 142.435 277.986 263.706 277.986C384.977 277.986 483.286 285.39 483.286 294.525Z" fill="#A1A3A2"/>
<path d="M470.108 298.561C468.608 298.937 466.924 299.309 465.061 299.674L465.11 299.928C466.977 299.563 468.666 299.191 470.171 298.812L470.108 298.561ZM459.97 300.584C458.359 300.848 456.654 301.109 454.856 301.365L454.892 301.622C456.692 301.365 458.399 301.105 460.012 300.84L459.97 300.584ZM449.729 302.053C448.079 302.262 446.367 302.469 444.594 302.671L444.623 302.93C446.398 302.726 448.111 302.52 449.761 302.311L449.729 302.053ZM439.451 303.233C437.781 303.407 436.064 303.579 434.303 303.748L434.329 304.006C436.091 303.837 437.807 303.666 439.477 303.491L439.451 303.233ZM429.152 304.224C427.47 304.373 425.752 304.52 423.998 304.664L424.02 304.923C425.774 304.778 427.493 304.631 429.176 304.482L429.152 304.224ZM418.842 305.074C417.152 305.204 415.432 305.332 413.684 305.458L413.703 305.716C415.451 305.591 417.171 305.463 418.862 305.333L418.842 305.074ZM408.523 305.816C406.827 305.93 405.107 306.043 403.362 306.152L403.379 306.411C405.123 306.302 406.844 306.189 408.541 306.075L408.523 305.816ZM398.2 306.467C396.499 306.568 394.777 306.667 393.035 306.763L393.05 307.024C394.792 306.926 396.514 306.827 398.214 306.727L398.2 306.467ZM387.87 307.043C386.167 307.132 384.445 307.219 382.705 307.304L382.717 307.563C384.457 307.478 386.18 307.391 387.884 307.302L387.87 307.043ZM377.538 307.55C375.832 307.629 374.109 307.706 372.371 307.782L372.383 308.041C374.121 307.965 375.844 307.889 377.551 307.81L377.538 307.55ZM367.204 307.998C365.495 308.067 363.773 308.135 362.036 308.2L362.045 308.461C363.782 308.395 365.505 308.326 367.214 308.257L367.204 307.998ZM356.867 308.391C355.156 308.451 353.433 308.511 351.698 308.569L351.707 308.828C353.443 308.77 355.166 308.711 356.877 308.65L356.867 308.391ZM346.528 308.733C344.817 308.786 343.093 308.837 341.359 308.886L341.366 309.147C343.101 309.096 344.824 309.046 346.537 308.993L346.528 308.733ZM336.189 309.029C334.476 309.074 332.752 309.117 331.019 309.16L331.025 309.42C332.759 309.378 334.482 309.334 336.196 309.289L336.189 309.029ZM325.848 309.28C324.133 309.318 322.41 309.355 320.677 309.39L320.682 309.649C322.415 309.615 324.139 309.578 325.854 309.54L325.848 309.28ZM315.506 309.489C313.79 309.52 312.067 309.551 310.335 309.579L310.34 309.839C312.071 309.81 313.796 309.781 315.512 309.75L315.506 309.49V309.489ZM305.164 309.658C303.448 309.683 301.724 309.706 299.993 309.728L299.996 309.988C301.727 309.965 303.452 309.943 305.168 309.918L305.164 309.658ZM294.822 309.788C293.104 309.806 291.38 309.823 289.65 309.839L289.652 310.099C291.382 310.083 293.107 310.066 294.824 310.048L294.822 309.788ZM284.479 309.879C282.761 309.892 281.037 309.902 279.307 309.912L279.308 310.171C281.038 310.163 282.762 310.151 284.48 310.14L284.479 309.879ZM274.136 309.935C272.417 309.94 270.694 309.945 268.965 309.949V310.208C270.694 310.205 272.418 310.2 274.137 310.194L274.136 309.935ZM263.794 309.953H263.709C262.009 309.953 260.313 309.952 258.622 309.949V310.208C260.313 310.211 262.009 310.212 263.709 310.212H263.794V309.953ZM253.45 309.935C251.722 309.929 249.998 309.921 248.278 309.913L248.277 310.172C249.996 310.182 251.72 310.189 253.449 310.195L253.45 309.935ZM243.108 309.881C241.377 309.869 239.654 309.855 237.936 309.84L237.934 310.1C239.651 310.114 241.375 310.128 243.105 310.141L243.108 309.881ZM232.764 309.79C231.033 309.771 229.309 309.751 227.592 309.73L227.589 309.99C229.307 310.012 231.03 310.032 232.761 310.05L232.764 309.79ZM222.421 309.661C220.689 309.636 218.966 309.61 217.25 309.581L217.245 309.842C218.962 309.869 220.685 309.895 222.417 309.92L222.421 309.661ZM212.078 309.492C210.346 309.46 208.622 309.428 206.907 309.394L206.902 309.653C208.618 309.687 210.341 309.721 212.074 309.752L212.078 309.492ZM201.736 309.284C200.004 309.246 198.28 309.205 196.565 309.164L196.559 309.424C198.274 309.465 199.997 309.505 201.731 309.544L201.736 309.284ZM191.396 309.034C189.662 308.987 187.939 308.94 186.226 308.892L186.218 309.151C187.931 309.201 189.654 309.248 191.388 309.293L191.396 309.034ZM181.056 308.739C179.321 308.685 177.598 308.631 175.886 308.574L175.878 308.833C177.589 308.89 179.313 308.944 181.047 308.998L181.056 308.739ZM170.717 308.397C168.981 308.335 167.258 308.272 165.548 308.206L165.539 308.467C167.249 308.532 168.972 308.595 170.708 308.656L170.717 308.397ZM160.38 308.004C158.643 307.934 156.921 307.862 155.212 307.788L155.201 308.048C156.909 308.122 158.632 308.194 160.369 308.264L160.38 308.004ZM150.045 307.558C148.306 307.478 146.584 307.396 144.879 307.312L144.866 307.571C146.571 307.655 148.294 307.737 150.034 307.817L150.045 307.558ZM139.713 307.051C137.972 306.961 136.251 306.867 134.548 306.773L134.534 307.032C136.236 307.127 137.958 307.22 139.699 307.31L139.713 307.051ZM129.384 306.477C127.641 306.374 125.919 306.269 124.221 306.162L124.206 306.421C125.904 306.528 127.625 306.633 129.369 306.736L129.385 306.477H129.384ZM119.06 305.827C117.313 305.71 115.593 305.59 113.899 305.47L113.881 305.729C115.574 305.85 117.296 305.969 119.042 306.087L119.06 305.827ZM108.741 305.087C106.991 304.953 105.271 304.816 103.585 304.677L103.563 304.936C105.25 305.075 106.97 305.211 108.721 305.346L108.741 305.087ZM98.4306 304.238C96.6736 304.082 94.9563 303.925 93.2795 303.764L93.2545 304.022C94.932 304.183 96.6502 304.341 98.4076 304.497L98.4306 304.238ZM88.132 303.251C86.3655 303.066 84.6506 302.879 82.9894 302.69L82.96 302.949C84.6224 303.137 86.3376 303.324 88.1049 303.509L88.132 303.251ZM77.8531 302.074C76.0701 301.849 74.3606 301.62 72.7261 301.388L72.6895 301.645C74.3253 301.877 76.0365 302.107 77.8207 302.331L77.8531 302.074ZM67.6123 300.61C65.7929 300.313 64.0939 300.012 62.5201 299.706L62.4705 299.961C64.0472 300.267 65.7486 300.569 67.5704 300.867L67.6123 300.61ZM57.4711 298.602C55.5089 298.112 53.8581 297.615 52.5376 297.11L52.4445 297.353C53.7793 297.863 55.4392 298.363 57.4083 298.853L57.4711 298.602ZM48.7196 294.323L48.713 294.203C48.7118 293.762 48.9897 293.302 49.5846 292.825C50.177 292.352 51.0744 291.874 52.2584 291.404L52.1625 291.163C50.9642 291.639 50.0478 292.123 49.4222 292.623C48.7987 293.121 48.4544 293.646 48.4531 294.203L48.4617 294.352L48.7196 294.323ZM57.1791 289.878C58.6759 289.498 60.3609 289.125 62.225 288.758L62.1749 288.503C60.3067 288.871 58.6176 289.245 57.1156 289.626L57.1791 289.878ZM67.3154 287.843C68.9249 287.579 70.6303 287.317 72.4284 287.06L72.3916 286.803C70.5918 287.06 68.8848 287.321 67.2732 287.587L67.3154 287.843ZM77.555 286.37C79.2043 286.16 80.9171 285.953 82.691 285.749L82.6611 285.491C80.8863 285.695 79.1727 285.902 77.5222 286.111L77.555 286.37ZM87.8331 285.187C89.503 285.012 91.2186 284.839 92.9802 284.67L92.9552 284.411C91.1932 284.581 89.4767 284.753 87.8061 284.928L87.8331 285.187ZM98.1313 284.194C99.813 284.045 101.531 283.897 103.285 283.752L103.264 283.494C101.509 283.639 99.7909 283.786 98.1084 283.936L98.1313 284.194ZM108.441 283.342C110.132 283.212 111.851 283.084 113.6 282.958L113.581 282.698C111.832 282.824 110.112 282.952 108.421 283.083L108.441 283.342ZM118.76 282.599C120.456 282.484 122.177 282.372 123.921 282.262L123.905 282.003C122.16 282.113 120.439 282.225 118.743 282.34L118.76 282.599ZM129.085 281.946C130.785 281.845 132.506 281.747 134.248 281.649L134.233 281.39C132.491 281.486 130.769 281.586 129.069 281.687L129.085 281.946ZM139.413 281.37C141.117 281.281 142.838 281.193 144.578 281.107L144.566 280.848C142.826 280.934 141.104 281.021 139.399 281.111L139.413 281.37ZM149.745 280.862C151.452 280.783 153.174 280.705 154.912 280.63L154.9 280.371C153.162 280.446 151.44 280.523 149.733 280.603L149.745 280.862ZM160.08 280.414C161.788 280.343 163.51 280.276 165.247 280.21L165.238 279.95C163.501 280.016 161.778 280.084 160.069 280.153L160.08 280.414ZM170.416 280.019C172.127 279.958 173.85 279.899 175.585 279.842L175.576 279.582C173.841 279.64 172.117 279.699 170.407 279.76L170.416 280.019ZM180.755 279.676C182.466 279.623 184.19 279.572 185.925 279.523L185.917 279.262C184.182 279.313 182.459 279.364 180.746 279.417L180.755 279.676ZM191.094 279.38C192.808 279.335 194.531 279.291 196.264 279.249L196.258 278.989C194.525 279.031 192.801 279.075 191.087 279.121L191.094 279.38ZM201.435 279.128C203.15 279.09 204.873 279.054 206.606 279.018L206.601 278.759C204.868 278.793 203.144 278.83 201.43 278.869L201.435 279.128ZM211.777 278.918C213.493 278.887 215.216 278.857 216.948 278.829L216.944 278.569C215.212 278.597 213.488 278.627 211.772 278.659L211.777 278.918ZM222.119 278.749C223.836 278.724 225.559 278.701 227.291 278.679L227.287 278.42C225.556 278.442 223.831 278.465 222.115 278.489L222.119 278.749ZM232.461 278.619C234.179 278.6 235.903 278.583 237.633 278.568L237.631 278.308C235.901 278.324 234.176 278.341 232.459 278.359L232.461 278.619ZM242.805 278.527C244.523 278.514 246.247 278.504 247.976 278.494L247.975 278.235C246.246 278.244 244.521 278.255 242.803 278.266L242.805 278.527ZM253.148 278.471C254.866 278.465 256.589 278.461 258.319 278.457L258.318 278.198C256.589 278.201 254.865 278.206 253.147 278.212L253.148 278.471ZM263.489 278.452H263.709C265.364 278.452 267.014 278.454 268.661 278.456V278.197C267.015 278.194 265.364 278.193 263.709 278.193H263.489V278.452ZM273.832 278.47C275.561 278.475 277.286 278.484 279.004 278.492L279.006 278.233C277.287 278.223 275.562 278.216 273.833 278.21V278.47H273.832ZM284.176 278.524C285.906 278.535 287.629 278.549 289.347 278.564L289.35 278.304C287.632 278.289 285.908 278.276 284.178 278.263L284.176 278.524ZM294.519 278.614C296.25 278.633 297.973 278.653 299.69 278.674L299.693 278.414C297.976 278.392 296.253 278.372 294.522 278.355L294.519 278.614ZM304.862 278.743C306.593 278.768 308.317 278.794 310.033 278.822L310.037 278.562C308.321 278.534 306.597 278.508 304.865 278.483L304.862 278.743ZM315.205 278.911C316.937 278.942 318.66 278.975 320.376 279.009L320.381 278.749C318.665 278.716 316.941 278.682 315.209 278.651L315.205 278.911ZM325.547 279.119C327.28 279.156 329.003 279.196 330.717 279.238L330.723 278.978C329.009 278.937 327.286 278.897 325.552 278.858L325.547 279.119ZM335.888 279.368C337.621 279.415 339.345 279.461 341.057 279.51L341.065 279.251C339.352 279.201 337.629 279.154 335.894 279.109L335.888 279.368ZM346.227 279.663C347.962 279.716 349.685 279.771 351.397 279.827L351.405 279.568C349.694 279.511 347.97 279.457 346.236 279.403L346.227 279.663ZM356.566 280.004C358.302 280.065 360.025 280.128 361.735 280.193L361.744 279.934C360.034 279.869 358.311 279.806 356.575 279.744L356.566 280.004ZM366.902 280.396C368.64 280.466 370.363 280.538 372.07 280.611L372.082 280.352C370.374 280.278 368.651 280.206 366.913 280.136L366.902 280.396ZM377.238 280.842C378.977 280.922 380.699 281.003 382.405 281.086L382.417 280.827C380.712 280.743 378.988 280.662 377.249 280.582L377.238 280.842ZM387.57 281.348C389.31 281.438 391.032 281.53 392.735 281.625L392.749 281.366C391.047 281.271 389.325 281.179 387.584 281.087L387.57 281.348ZM397.898 281.92C399.643 282.023 401.363 282.128 403.062 282.235L403.078 281.975C401.38 281.868 399.658 281.763 397.914 281.66L397.898 281.92ZM408.223 282.569C409.97 282.686 411.69 282.805 413.384 282.926L413.403 282.667C411.709 282.546 409.988 282.428 408.241 282.31L408.223 282.569ZM418.542 283.308C420.293 283.443 422.012 283.578 423.699 283.716L423.72 283.458C422.033 283.32 420.314 283.183 418.562 283.049L418.542 283.308ZM428.853 284.155C430.61 284.31 432.327 284.469 434.004 284.628L434.028 284.37C432.351 284.21 430.633 284.052 428.875 283.897L428.853 284.155ZM439.152 285.142C440.917 285.324 442.632 285.511 444.295 285.7L444.324 285.442C442.661 285.253 440.946 285.066 439.178 284.882L439.152 285.142ZM449.431 286.314C451.213 286.539 452.924 286.767 454.559 286.998L454.594 286.741C452.958 286.509 451.248 286.281 449.463 286.057L449.431 286.314ZM459.673 287.773C461.491 288.069 463.19 288.369 464.765 288.674L464.814 288.419C463.236 288.114 461.535 287.813 459.714 287.517L459.673 287.773ZM469.815 289.772C471.774 290.255 473.426 290.748 474.755 291.248L474.847 291.004C473.503 290.499 471.843 290.005 469.878 289.52L469.815 289.772ZM478.679 293.964L478.706 294.203C478.707 294.65 478.419 295.12 477.803 295.605C477.189 296.087 476.26 296.573 475.036 297.05L475.13 297.293C476.368 296.809 477.316 296.317 477.964 295.809C478.608 295.303 478.964 294.77 478.965 294.203C478.965 294.103 478.954 294.005 478.932 293.907L478.679 293.964Z" fill="white"/>
<path d="M474.881 293.756C474.881 302.158 380.335 308.968 263.706 308.968C147.077 308.968 52.5312 302.158 52.5312 293.756C52.5312 285.355 147.077 278.544 263.706 278.544C380.335 278.544 474.881 285.355 474.881 293.756Z" fill="#BADD1D"/>
<path d="M166.992 286.462C142.99 286.834 144.653 291.274 166.573 291.493C179.014 291.618 184.594 291.68 184.594 293.048C184.594 293.958 178.043 294.776 171.908 295.87C167.372 296.679 166.728 299.576 192.854 299.741C230.206 299.979 229.966 296.151 213.719 294.523C200.194 293.169 198.957 291.825 221.398 289.034C237.331 287.054 223.001 285.062 209.07 285.59C197.346 286.034 166.992 286.462 166.992 286.462Z" fill="#7FB929"/>
<mask id="mask0_389_9299" style="mask-type:luminance" maskUnits="userSpaceOnUse" x="148" y="284" width="80" height="16">
<path d="M165.62 285.811C141.619 286.182 143.282 290.623 165.202 290.843C177.643 290.968 183.222 291.029 183.222 292.396C183.222 293.306 176.671 294.125 170.537 295.219C166.001 296.029 165.357 298.924 191.482 299.09C228.834 299.328 228.595 295.5 212.348 293.873C198.823 292.518 197.586 291.174 220.027 288.384C235.96 286.403 221.629 284.412 207.698 284.94C195.975 285.383 165.62 285.811 165.62 285.811Z" fill="white"/>
</mask>
<g mask="url(#mask0_389_9299)">
<path d="M165.62 285.811C141.619 286.182 143.282 290.623 165.202 290.843C177.643 290.968 183.222 291.029 183.222 292.396C183.222 293.306 176.671 294.125 170.537 295.219C166.001 296.029 165.357 298.924 191.482 299.09C228.834 299.328 228.595 295.5 212.348 293.873C198.823 292.518 197.586 291.174 220.027 288.384C235.96 286.403 221.629 284.412 207.698 284.94C195.975 285.383 165.62 285.811 165.62 285.811Z" fill="url(#paint0_linear_389_9299)"/>
</g>
<path d="M115.218 281.336V281.116H109.926V291.52H110.147V281.336H115.218Z" fill="#2E7E82"/>
<path d="M359.869 291.14C359.869 270.34 358.303 249.743 355.261 230.527C352.218 211.31 347.758 193.85 342.136 179.142C336.514 164.434 329.839 152.767 322.493 144.808C315.147 136.848 307.274 132.751 299.323 132.751C291.372 132.751 283.499 136.848 276.153 144.808C268.808 152.767 262.133 164.434 256.511 179.142C250.889 193.85 246.429 211.31 243.386 230.527C240.343 249.744 238.777 270.34 238.777 291.14L299.323 291.14H359.869Z" fill="#58C273"/>
<path d="M359.866 291.14C359.866 270.34 358.3 249.743 355.258 230.527C352.215 211.31 347.755 193.85 342.133 179.142C336.511 164.434 329.836 152.767 322.49 144.808C315.144 136.848 307.271 132.751 299.32 132.751L299.32 291.14H359.866Z" fill="#73ED8F"/>
<path d="M219.831 284.333C219.831 269.639 218.565 255.089 216.107 241.514C213.648 227.939 210.045 215.605 205.502 205.215C200.959 194.825 195.566 186.583 189.631 180.96C183.696 175.337 177.334 172.443 170.91 172.443C164.485 172.443 158.124 175.337 152.188 180.96C146.253 186.583 140.86 194.825 136.317 205.215C131.774 215.605 128.171 227.939 125.712 241.514C123.254 255.089 121.988 269.639 121.988 284.333L170.91 284.333H219.831Z" fill="#4CAD61"/>
<path d="M219.831 284.333C219.831 269.639 218.566 255.089 216.108 241.514C213.649 227.939 210.045 215.605 205.503 205.215C200.96 194.825 195.567 186.583 189.632 180.96C183.696 175.337 177.335 172.443 170.91 172.443L170.91 284.333H219.831Z" fill="#60D67F"/>
<path d="M457.218 289.666C457.218 274.972 455.952 260.422 453.494 246.847C451.035 233.272 447.432 220.938 442.889 210.548C438.346 200.158 432.953 191.916 427.018 186.293C421.082 180.67 414.721 177.776 408.296 177.776C401.872 177.776 395.51 180.67 389.575 186.293C383.64 191.916 378.246 200.158 373.704 210.548C369.161 220.938 365.557 233.272 363.099 246.847C360.64 260.422 359.375 274.972 359.375 289.666L408.296 289.666H457.218Z" fill="#4CAD61"/>
<path d="M457.214 289.666C457.214 274.972 455.949 260.422 453.49 246.847C451.032 233.272 447.428 220.938 442.886 210.548C438.343 200.158 432.95 191.916 427.014 186.293C421.079 180.67 414.717 177.776 408.293 177.776L408.293 289.666H457.214Z" fill="#60D67F"/>
<path d="M479.586 293.856C479.586 284.931 478.66 276.093 476.86 267.847C475.061 259.601 472.424 252.109 469.1 245.798C465.775 239.487 461.829 234.481 457.485 231.065C453.142 227.65 448.486 225.892 443.785 225.892C439.084 225.892 434.428 227.65 430.085 231.065C425.741 234.481 421.795 239.487 418.47 245.798C415.146 252.109 412.509 259.601 410.71 267.847C408.91 276.093 407.984 284.931 407.984 293.856L443.785 293.856H479.586Z" fill="#58C273"/>
<path d="M479.586 293.856C479.586 284.931 478.66 276.093 476.861 267.847C475.061 259.601 472.424 252.109 469.1 245.798C465.776 239.487 461.829 234.481 457.485 231.065C453.142 227.65 448.487 225.892 443.785 225.892L443.785 293.856H479.586Z" fill="#73ED8F"/>
<circle cx="447.544" cy="35.911" r="35.911" fill="#FABF37"/>
<circle cx="447.542" cy="35.9114" r="29.1321" fill="#FEFE3C"/>
<mask id="mask1_389_9299" style="mask-type:luminance" maskUnits="userSpaceOnUse" x="442" y="153" width="6" height="73">
<path d="M447.771 225.892H442.18L443.712 153.439H446.239L447.771 225.892Z" fill="white"/>
</mask>
<g mask="url(#mask1_389_9299)">
<path d="M447.771 225.892H442.18L443.712 153.439H446.239L447.771 225.892Z" fill="url(#paint1_linear_389_9299)"/>
</g>
<path d="M446.771 149.913H443.176C442.749 149.913 442.402 150.261 442.402 150.688V156.19C442.402 156.619 442.749 156.965 443.176 156.965H446.771C447.199 156.965 447.545 156.619 447.545 156.19V150.688C447.545 150.261 447.199 149.913 446.771 149.913Z" fill="white"/>
<mask id="mask2_389_9299" style="mask-type:luminance" maskUnits="userSpaceOnUse" x="398" y="126" width="6" height="53">
<path d="M403.05 178.832H398.996L400.107 126.304H401.939L403.05 178.832Z" fill="white"/>
</mask>
<g mask="url(#mask2_389_9299)">
<path d="M403.05 178.832H398.996L400.107 126.304H401.939L403.05 178.832Z" fill="url(#paint2_linear_389_9299)"/>
</g>
<path d="M402.328 123.747H399.721C399.411 123.747 399.16 123.999 399.16 124.308V128.298C399.16 128.608 399.411 128.859 399.721 128.859H402.328C402.637 128.859 402.889 128.608 402.889 128.298V124.308C402.889 123.999 402.637 123.747 402.328 123.747Z" fill="white"/>
<mask id="mask3_389_9299" style="mask-type:luminance" maskUnits="userSpaceOnUse" x="298" y="80" width="5" height="53">
<path d="M302.085 132.751H298.031L299.142 80.223H300.974L302.085 132.751Z" fill="white"/>
</mask>
<g mask="url(#mask3_389_9299)">
<path d="M302.085 132.751H298.031L299.142 80.223H300.974L302.085 132.751Z" fill="url(#paint3_linear_389_9299)"/>
</g>
<path d="M301.359 77.6659H298.752C298.443 77.6659 298.191 77.9178 298.191 78.2274V82.2168C298.191 82.5272 298.443 82.7783 298.752 82.7783H301.359C301.669 82.7783 301.92 82.5272 301.92 82.2168V78.2274C301.92 77.9178 301.669 77.6659 301.359 77.6659Z" fill="white"/>
<mask id="mask4_389_9299" style="mask-type:luminance" maskUnits="userSpaceOnUse" x="168" y="119" width="5" height="54">
<path d="M172.937 172.444H168.883L169.994 119.916H171.826L172.937 172.444Z" fill="white"/>
</mask>
<g mask="url(#mask4_389_9299)">
<path d="M172.937 172.444H168.883L169.994 119.916H171.826L172.937 172.444Z" fill="url(#paint4_linear_389_9299)"/>
</g>
<path d="M172.214 117.359H169.608C169.298 117.359 169.047 117.611 169.047 117.921V121.91C169.047 122.221 169.298 122.472 169.608 122.472H172.214C172.524 122.472 172.775 122.221 172.775 121.91V117.921C172.775 117.611 172.524 117.359 172.214 117.359Z" fill="white"/>
<mask id="mask5_389_9299" style="mask-type:luminance" maskUnits="userSpaceOnUse" x="350" y="16" width="87" height="28">
<path d="M436.855 40.2237C436.653 39.1039 435.761 38.2769 434.682 38.0019C434.351 37.9169 434.096 37.6755 433.955 37.3649C433.76 36.9388 433.416 36.5977 432.988 36.4067C432.64 36.2514 432.386 35.9596 432.292 35.5891C431.472 32.3252 428.525 29.9061 425.007 29.9061H424.989C424.014 29.9061 423.13 29.3771 422.627 28.5417C421.727 27.042 420.085 26.0376 418.208 26.0376C417.057 26.0376 416.002 26.4238 415.149 27.0661C414.623 27.4618 413.885 27.4975 413.343 27.126C412.343 26.4396 411.132 26.0376 409.828 26.0376C409.323 26.0376 408.832 26.0985 408.362 26.2129C407.656 26.3839 406.988 25.8665 406.98 25.1403C406.976 24.8139 406.927 24.476 406.824 24.1307C406.451 22.8839 405.385 21.9047 404.109 21.6507C402.64 21.36 401.307 21.9729 400.516 23.0203C398.79 19.156 394.921 16.4609 390.415 16.4609C386.011 16.4609 382.219 19.0396 380.438 22.7642C379.255 22.8576 378.229 23.5062 377.631 24.4539C377.264 25.0364 376.564 25.3345 375.925 25.0794C374.546 24.5295 372.971 24.3647 371.33 24.7257C368.83 25.2767 366.745 27.1186 365.852 29.5188C365.694 29.9428 365.576 30.3636 365.494 30.7782C365.209 32.2087 363.787 33.1973 362.353 32.9213C361.966 32.8457 361.565 32.8069 361.155 32.8069C358.55 32.8069 356.311 34.379 355.338 36.626C355.001 37.4026 354.247 37.8917 353.4 37.8928C351.982 37.8928 350.662 38.8478 350.42 40.2447C350.106 42.053 351.49 43.623 353.24 43.623H434.039C435.795 43.623 437.183 42.0414 436.855 40.2237Z" fill="white"/>
</mask>
<g mask="url(#mask5_389_9299)">
<path d="M436.855 40.2237C436.653 39.1039 435.761 38.2769 434.682 38.0019C434.351 37.9169 434.096 37.6755 433.955 37.3649C433.76 36.9388 433.416 36.5977 432.988 36.4067C432.64 36.2514 432.386 35.9596 432.292 35.5891C431.472 32.3252 428.525 29.9061 425.007 29.9061H424.989C424.014 29.9061 423.13 29.3771 422.627 28.5417C421.727 27.042 420.085 26.0376 418.208 26.0376C417.057 26.0376 416.002 26.4238 415.149 27.0661C414.623 27.4618 413.885 27.4975 413.343 27.126C412.343 26.4396 411.132 26.0376 409.828 26.0376C409.323 26.0376 408.832 26.0985 408.362 26.2129C407.656 26.3839 406.988 25.8665 406.98 25.1403C406.976 24.8139 406.927 24.476 406.824 24.1307C406.451 22.8839 405.385 21.9047 404.109 21.6507C402.64 21.36 401.307 21.9729 400.516 23.0203C398.79 19.156 394.921 16.4609 390.415 16.4609C386.011 16.4609 382.219 19.0396 380.438 22.7642C379.255 22.8576 378.229 23.5062 377.631 24.4539C377.264 25.0364 376.564 25.3345 375.925 25.0794C374.546 24.5295 372.971 24.3647 371.33 24.7257C368.83 25.2767 366.745 27.1186 365.852 29.5188C365.694 29.9428 365.576 30.3636 365.494 30.7782C365.209 32.2087 363.787 33.1973 362.353 32.9213C361.966 32.8457 361.565 32.8069 361.155 32.8069C358.55 32.8069 356.311 34.379 355.338 36.626C355.001 37.4026 354.247 37.8917 353.4 37.8928C351.982 37.8928 350.662 38.8478 350.42 40.2447C350.106 42.053 351.49 43.623 353.24 43.623H434.039C435.795 43.623 437.183 42.0414 436.855 40.2237Z" fill="url(#paint5_linear_389_9299)"/>
</g>
<mask id="mask6_389_9299" style="mask-type:luminance" maskUnits="userSpaceOnUse" x="70" y="66" width="79" height="26">
<path d="M71.0312 87.9831C71.2107 86.986 72.0062 86.2503 72.9654 86.0048C73.2603 85.9292 73.487 85.7141 73.613 85.438C73.7861 85.0581 74.0926 84.7537 74.4746 84.5848C74.7852 84.4462 75.0109 84.186 75.0928 83.8564C75.8243 80.9504 78.447 78.7968 81.5797 78.7968H81.5965C82.4634 78.7968 83.2505 78.3266 83.6976 77.5825C84.4994 76.2465 85.9614 75.3534 87.6322 75.3534C88.6575 75.3534 89.5968 75.6966 90.3556 76.2685C90.8237 76.6212 91.4817 76.6527 91.9635 76.3221C92.8545 75.7113 93.9323 75.3534 95.0931 75.3534C95.5433 75.3534 95.9799 75.4069 96.3976 75.5087C97.0263 75.6619 97.6213 75.2012 97.6287 74.5537C97.6318 74.263 97.6759 73.9628 97.7683 73.6553C98.0989 72.5449 99.0486 71.6728 100.185 71.4482C101.493 71.1879 102.68 71.7347 103.383 72.6667C104.92 69.2264 108.365 66.8262 112.375 66.8262C116.296 66.8262 119.672 69.1225 121.259 72.4389C122.313 72.5218 123.226 73.0991 123.758 73.9429C124.084 74.4613 124.708 74.7268 125.277 74.5001C126.505 74.01 127.906 73.8642 129.367 74.1863C131.594 74.6754 133.45 76.3158 134.245 78.4515C134.385 78.8304 134.49 79.204 134.564 79.5734C134.817 80.8475 136.083 81.727 137.36 81.4814C137.705 81.4143 138.062 81.3796 138.426 81.3796C140.745 81.3796 142.738 82.7796 143.605 84.78C143.905 85.4706 144.577 85.9072 145.329 85.9072C146.592 85.9072 147.769 86.7572 147.985 88.002C148.263 89.6119 147.031 91.0088 145.472 91.0088H73.5395C71.9747 91.0088 70.7394 89.6014 71.0312 87.9831Z" fill="white"/>
</mask>
<g mask="url(#mask6_389_9299)">
<path d="M71.0312 87.9831C71.2107 86.986 72.0062 86.2503 72.9654 86.0048C73.2603 85.9292 73.487 85.7141 73.613 85.438C73.7861 85.0581 74.0926 84.7537 74.4746 84.5848C74.7852 84.4462 75.0109 84.186 75.0928 83.8564C75.8243 80.9504 78.447 78.7968 81.5797 78.7968H81.5965C82.4634 78.7968 83.2505 78.3266 83.6976 77.5825C84.4994 76.2465 85.9614 75.3534 87.6322 75.3534C88.6575 75.3534 89.5968 75.6966 90.3556 76.2685C90.8237 76.6212 91.4817 76.6527 91.9635 76.3221C92.8545 75.7113 93.9323 75.3534 95.0931 75.3534C95.5433 75.3534 95.9799 75.4069 96.3976 75.5087C97.0263 75.6619 97.6213 75.2012 97.6287 74.5537C97.6318 74.263 97.6759 73.9628 97.7683 73.6553C98.0989 72.5449 99.0486 71.6728 100.185 71.4482C101.493 71.1879 102.68 71.7347 103.383 72.6667C104.92 69.2264 108.365 66.8262 112.375 66.8262C116.296 66.8262 119.672 69.1225 121.259 72.4389C122.313 72.5218 123.226 73.0991 123.758 73.9429C124.084 74.4613 124.708 74.7268 125.277 74.5001C126.505 74.01 127.906 73.8642 129.367 74.1863C131.594 74.6754 133.45 76.3158 134.245 78.4515C134.385 78.8304 134.49 79.204 134.564 79.5734C134.817 80.8475 136.083 81.727 137.36 81.4814C137.705 81.4143 138.062 81.3796 138.426 81.3796C140.745 81.3796 142.738 82.7796 143.605 84.78C143.905 85.4706 144.577 85.9072 145.329 85.9072C146.592 85.9072 147.769 86.7572 147.985 88.002C148.263 89.6119 147.031 91.0088 145.472 91.0088H73.5395C71.9747 91.0088 70.7394 89.6014 71.0312 87.9831Z" fill="url(#paint6_linear_389_9299)"/>
</g>
<mask id="mask7_389_9299" style="mask-type:luminance" maskUnits="userSpaceOnUse" x="228" y="280" width="60" height="22">
<path d="M265.649 279.999C257.888 279.999 251.11 284.135 247.343 290.31C245.509 289.288 243.4 288.703 241.153 288.703C234.111 288.703 228.402 294.411 228.402 301.452H287.103C287.103 289.604 277.498 279.999 265.649 279.999Z" fill="white"/>
</mask>
<g mask="url(#mask7_389_9299)">
<path d="M265.649 279.999C257.888 279.999 251.11 284.135 247.343 290.31C245.509 289.288 243.4 288.703 241.153 288.703C234.111 288.703 228.402 294.411 228.402 301.452H287.103C287.103 289.604 277.498 279.999 265.649 279.999Z" fill="url(#paint7_linear_389_9299)"/>
</g>
<mask id="mask8_389_9299" style="mask-type:luminance" maskUnits="userSpaceOnUse" x="422" y="131" width="24" height="23">
<path d="M435.105 141.326C441.346 147.567 445.845 153.188 445.154 153.88C444.462 154.572 438.841 150.072 432.599 143.831C426.358 137.59 421.86 131.969 422.55 131.277C423.242 130.585 428.863 135.085 435.105 141.326Z" fill="white"/>
</mask>
<g mask="url(#mask8_389_9299)">
<path d="M435.105 141.326C441.346 147.567 445.845 153.188 445.154 153.88C444.462 154.572 438.841 150.072 432.599 143.831C426.358 137.59 421.86 131.969 422.55 131.277C423.242 130.585 428.863 135.085 435.105 141.326Z" fill="url(#paint8_linear_389_9299)"/>
</g>
<mask id="mask9_389_9299" style="mask-type:luminance" maskUnits="userSpaceOnUse" x="436" y="153" width="10" height="32">
<path d="M439.149 168.268C441.434 159.742 444.053 153.035 444.997 153.289C445.942 153.542 444.857 160.659 442.571 169.185C440.286 177.712 437.669 184.418 436.724 184.165C435.778 183.911 436.866 176.794 439.149 168.268Z" fill="white"/>
</mask>
<g mask="url(#mask9_389_9299)">
<path d="M439.149 168.268C441.434 159.742 444.053 153.035 444.997 153.289C445.942 153.542 444.857 160.659 442.571 169.185C440.286 177.712 437.669 184.418 436.724 184.165C435.778 183.911 436.866 176.794 439.149 168.268Z" fill="url(#paint9_linear_389_9299)"/>
</g>
<mask id="mask10_389_9299" style="mask-type:luminance" maskUnits="userSpaceOnUse" x="444" y="145" width="32" height="10">
<path d="M460.457 151.295C451.931 153.58 444.815 154.666 444.562 153.722C444.308 152.776 451.014 150.159 459.54 147.874C468.066 145.589 475.183 144.504 475.437 145.448C475.691 146.393 468.984 149.01 460.457 151.295Z" fill="white"/>
</mask>
<g mask="url(#mask10_389_9299)">
<path d="M460.457 151.295C451.931 153.58 444.815 154.666 444.562 153.722C444.308 152.776 451.014 150.159 459.54 147.874C468.066 145.589 475.183 144.504 475.437 145.448C475.691 146.393 468.984 149.01 460.457 151.295Z" fill="url(#paint10_linear_389_9299)"/>
</g>
<path d="M446.017 152.4C445.443 151.826 444.512 151.826 443.938 152.4C443.365 152.974 443.365 153.905 443.938 154.479C444.512 155.053 445.443 155.053 446.017 154.479C446.591 153.905 446.591 152.974 446.017 152.4Z" fill="#80CCCE"/>
<mask id="mask11_389_9299" style="mask-type:luminance" maskUnits="userSpaceOnUse" x="384" y="110" width="18" height="17">
<path d="M393.867 117.523C398.392 122.048 401.654 126.123 401.153 126.625C400.651 127.126 396.576 123.864 392.051 119.339C387.526 114.814 384.265 110.739 384.766 110.238C385.267 109.736 389.342 112.998 393.867 117.523Z" fill="white"/>
</mask>
<g mask="url(#mask11_389_9299)">
<path d="M393.867 117.523C398.392 122.048 401.654 126.123 401.153 126.625C400.651 127.126 396.576 123.864 392.051 119.339C387.526 114.814 384.265 110.739 384.766 110.238C385.267 109.736 389.342 112.998 393.867 117.523Z" fill="url(#paint11_linear_389_9299)"/>
</g>
<mask id="mask12_389_9299" style="mask-type:luminance" maskUnits="userSpaceOnUse" x="394" y="126" width="8" height="23">
<path d="M396.799 137.056C398.455 130.874 400.354 126.011 401.038 126.196C401.723 126.379 400.936 131.539 399.279 137.721C397.623 143.902 395.725 148.764 395.04 148.581C394.355 148.397 395.143 143.237 396.799 137.056Z" fill="white"/>
</mask>
<g mask="url(#mask12_389_9299)">
<path d="M396.799 137.056C398.455 130.874 400.354 126.011 401.038 126.196C401.723 126.379 400.936 131.539 399.279 137.721C397.623 143.902 395.725 148.764 395.04 148.581C394.355 148.397 395.143 143.237 396.799 137.056Z" fill="url(#paint12_linear_389_9299)"/>
</g>
<mask id="mask13_389_9299" style="mask-type:luminance" maskUnits="userSpaceOnUse" x="400" y="120" width="24" height="7">
<path d="M412.248 124.75C406.067 126.406 400.907 127.194 400.724 126.509C400.54 125.823 405.402 123.926 411.583 122.269C417.765 120.613 422.924 119.826 423.108 120.511C423.293 121.195 418.43 123.093 412.248 124.75Z" fill="white"/>
</mask>
<g mask="url(#mask13_389_9299)">
<path d="M412.248 124.75C406.067 126.406 400.907 127.194 400.724 126.509C400.54 125.823 405.402 123.926 411.583 122.269C417.765 120.613 422.924 119.826 423.108 120.511C423.293 121.195 418.43 123.093 412.248 124.75Z" fill="url(#paint13_linear_389_9299)"/>
</g>
<path d="M401.78 125.55C401.364 125.133 400.689 125.133 400.273 125.55C399.857 125.966 399.857 126.641 400.273 127.057C400.689 127.473 401.364 127.473 401.78 127.057C402.196 126.641 402.196 125.966 401.78 125.55Z" fill="#80CCCE"/>
<mask id="mask14_389_9299" style="mask-type:luminance" maskUnits="userSpaceOnUse" x="283" y="64" width="18" height="17">
<path d="M292.899 71.4411C297.424 75.9661 300.686 80.0415 300.184 80.5429C299.683 81.0443 295.607 77.7824 291.082 73.2574C286.557 68.7324 283.296 64.657 283.797 64.1556C284.298 63.6542 288.374 66.9161 292.899 71.4411Z" fill="white"/>
</mask>
<g mask="url(#mask14_389_9299)">
<path d="M292.899 71.4411C297.424 75.9661 300.686 80.0415 300.184 80.5429C299.683 81.0443 295.607 77.7824 291.082 73.2574C286.557 68.7324 283.296 64.657 283.797 64.1556C284.298 63.6542 288.374 66.9161 292.899 71.4411Z" fill="url(#paint14_linear_389_9299)"/>
</g>
<mask id="mask15_389_9299" style="mask-type:luminance" maskUnits="userSpaceOnUse" x="293" y="80" width="8" height="23">
<path d="M295.83 90.9737C297.487 84.7922 299.385 79.9294 300.07 80.1135C300.755 80.2969 299.968 85.4572 298.311 91.6387C296.654 97.8202 294.756 102.682 294.072 102.499C293.386 102.315 294.174 97.1552 295.83 90.9737Z" fill="white"/>
</mask>
<g mask="url(#mask15_389_9299)">
<path d="M295.83 90.9737C297.487 84.7922 299.385 79.9294 300.07 80.1135C300.755 80.2969 299.968 85.4572 298.311 91.6387C296.654 97.8202 294.756 102.682 294.072 102.499C293.386 102.315 294.174 97.1552 295.83 90.9737Z" fill="url(#paint15_linear_389_9299)"/>
</g>
<mask id="mask16_389_9299" style="mask-type:luminance" maskUnits="userSpaceOnUse" x="299" y="74" width="24" height="7">
<path d="M311.279 78.6676C305.098 80.324 299.938 81.1116 299.755 80.4268C299.571 79.7412 304.433 77.8435 310.614 76.1871C316.796 74.5306 321.956 73.7439 322.14 74.4287C322.324 75.1135 317.461 77.0111 311.279 78.6676Z" fill="white"/>
</mask>
<g mask="url(#mask16_389_9299)">
<path d="M311.279 78.6676C305.098 80.324 299.938 81.1116 299.755 80.4268C299.571 79.7412 304.433 77.8435 310.614 76.1871C316.796 74.5306 321.956 73.7439 322.14 74.4287C322.324 75.1135 317.461 77.0111 311.279 78.6676Z" fill="url(#paint16_linear_389_9299)"/>
</g>
<path d="M300.811 79.4676C300.395 79.0514 299.72 79.0514 299.304 79.4676C298.888 79.8839 298.888 80.5587 299.304 80.975C299.72 81.3912 300.395 81.3912 300.811 80.975C301.227 80.5587 301.227 79.8839 300.811 79.4676Z" fill="#80CCCE"/>
<mask id="mask17_389_9299" style="mask-type:luminance" maskUnits="userSpaceOnUse" x="154" y="103" width="18" height="18">
<path d="M163.75 111.134C168.275 115.659 171.537 119.735 171.036 120.236C170.534 120.738 166.459 117.476 161.934 112.951C157.409 108.426 154.148 104.35 154.648 103.849C155.15 103.348 159.225 106.609 163.75 111.134Z" fill="white"/>
</mask>
<g mask="url(#mask17_389_9299)">
<path d="M163.75 111.134C168.275 115.659 171.537 119.735 171.036 120.236C170.534 120.738 166.459 117.476 161.934 112.951C157.409 108.426 154.148 104.35 154.648 103.849C155.15 103.348 159.225 106.609 163.75 111.134Z" fill="url(#paint17_linear_389_9299)"/>
</g>
<mask id="mask18_389_9299" style="mask-type:luminance" maskUnits="userSpaceOnUse" x="164" y="119" width="8" height="24">
<path d="M166.682 130.667C168.338 124.486 170.236 119.623 170.921 119.807C171.606 119.99 170.819 125.151 169.162 131.332C167.506 137.514 165.608 142.376 164.923 142.192C164.238 142.008 165.026 136.849 166.682 130.667Z" fill="white"/>
</mask>
<g mask="url(#mask18_389_9299)">
<path d="M166.682 130.667C168.338 124.486 170.236 119.623 170.921 119.807C171.606 119.99 170.819 125.151 169.162 131.332C167.506 137.514 165.608 142.376 164.923 142.192C164.238 142.008 165.026 136.849 166.682 130.667Z" fill="url(#paint18_linear_389_9299)"/>
</g>
<mask id="mask19_389_9299" style="mask-type:luminance" maskUnits="userSpaceOnUse" x="170" y="113" width="23" height="8">
<path d="M182.131 118.361C175.95 120.017 170.79 120.805 170.607 120.12C170.422 119.435 175.285 117.537 181.466 115.88C187.647 114.224 192.807 113.437 192.991 114.122C193.175 114.807 188.313 116.704 182.131 118.361Z" fill="white"/>
</mask>
<g mask="url(#mask19_389_9299)">
<path d="M182.131 118.361C175.95 120.017 170.79 120.805 170.607 120.12C170.422 119.435 175.285 117.537 181.466 115.88C187.647 114.224 192.807 113.437 192.991 114.122C193.175 114.807 188.313 116.704 182.131 118.361Z" fill="url(#paint19_linear_389_9299)"/>
</g>
<path d="M171.663 119.161C171.246 118.745 170.572 118.745 170.155 119.161C169.74 119.577 169.74 120.252 170.155 120.668C170.572 121.085 171.246 121.085 171.663 120.668C172.079 120.252 172.079 119.577 171.663 119.161Z" fill="#80CCCE"/>
<path d="M166.887 28.8397C166.887 38.409 161.144 46.6308 152.921 50.2568C152.7 50.3555 152.486 50.4688 152.284 50.5969C151.735 50.939 151.265 51.384 150.893 51.8993C150.413 52.5636 150.095 53.3476 149.986 54.1872L149.628 56.9379C148.51 57.2979 147.37 57.5572 146.222 57.7146C145.699 57.7891 145.172 57.8395 144.644 57.8678C144.262 57.8919 143.881 57.9014 143.498 57.9014H143.463C143.092 57.9014 142.718 57.8909 142.35 57.8678C142.064 57.8668 141.78 57.8479 141.498 57.8111C141.028 57.7482 140.589 57.6967 140.138 57.617H140.136C139.2 57.4595 138.273 57.2318 137.365 56.94L137.004 54.1882L136.989 54.0896C136.87 53.2867 136.56 52.5395 136.098 51.9014C135.952 51.6967 135.785 51.5005 135.606 51.3231L135.603 51.3189L135.601 51.3168L135.587 51.2958C135.316 51.0271 135.021 50.7921 134.696 50.5916C134.495 50.4657 134.287 50.3555 134.069 50.261C133.922 50.1939 133.776 50.1277 133.631 50.0616C133.487 49.9934 133.345 49.9273 133.203 49.8549C132.061 49.2965 130.975 48.65 129.95 47.9185C128.699 47.0275 127.539 46.0189 126.487 44.9054L126.485 44.9033C122.6 40.7935 120.188 35.2742 120.1 29.1902C120.068 26.9947 120.345 24.8589 120.891 22.8292C121.824 19.3585 123.539 16.19 125.839 13.5411C126.342 12.9618 126.871 12.4087 127.424 11.8829C128.211 11.1367 129.054 10.4399 129.938 9.80595L129.943 9.80175C131.215 8.89498 132.582 8.10575 134.026 7.46136C134.743 7.14021 135.482 6.85578 136.234 6.60705C136.505 6.5189 136.776 6.4339 137.051 6.35623H137.053C138.215 6.02039 139.412 5.77271 140.64 5.62263C140.807 5.60269 140.974 5.5817 141.143 5.56596H141.145C141.717 5.50614 142.295 5.4694 142.88 5.45575L143.026 5.45155C143.175 5.44735 143.325 5.44422 143.474 5.44422L143.681 5.44633C144.4 5.45577 145.119 5.49144 145.821 5.56176C145.995 5.57855 146.166 5.59849 146.337 5.61843C147.549 5.76431 148.732 6.00465 149.878 6.3321H149.88C153.532 7.36585 156.82 9.26336 159.51 11.7937C162.635 14.7323 164.952 18.5168 166.092 22.7841V22.7862C166.611 24.7183 166.886 26.747 166.887 28.8397Z" fill="#F6FCFE"/>
<path d="M142.352 57.8682C142.209 57.8682 142.066 57.8629 141.924 57.8535C141.784 57.844 141.641 57.8304 141.501 57.8115C141.03 57.7485 140.591 57.6971 140.14 57.6173H140.138C139.202 57.4599 138.275 57.2322 137.367 56.9404L137.006 54.1886L136.991 54.09C136.872 53.2871 136.562 52.5398 136.1 51.9017C135.954 51.6971 135.787 51.5008 135.608 51.3235L135.606 51.3193L135.603 51.3172L135.589 51.2962C135.318 51.0275 135.023 50.7924 134.698 50.592C134.497 50.466 134.289 50.3558 134.071 50.2614L133.886 50.1816C133.783 50.0767 133.697 49.9875 133.591 49.8804C129.598 38.4639 124.831 18.2244 136.214 6.62948L136.236 6.60742C136.507 6.51926 136.778 6.43426 137.053 6.3566H137.055C138.217 6.02076 139.414 5.77308 140.642 5.623C140.809 5.60306 140.976 5.58206 141.145 5.56632H141.147L141.145 5.57052C140.959 5.90846 131.748 22.9513 142.352 57.8682Z" fill="#328591"/>
<path d="M129.95 47.9189L129.943 47.9137C124.074 43.7377 120.215 36.9191 120.1 29.1906C120.068 26.9951 120.345 24.8593 120.891 22.8296C122.026 18.6012 124.326 14.8261 127.424 11.8833C128.209 11.1392 129.051 10.4423 129.935 9.81054L129.927 9.81999C129.419 10.4077 117.219 24.8667 129.95 47.9189Z" fill="#328591"/>
<path d="M144.645 57.8682C144.928 57.8682 145.212 57.8493 145.495 57.8115C145.965 57.7475 146.405 57.6971 146.853 57.6173H146.855C147.791 57.4588 148.718 57.2311 149.628 56.9383L149.988 54.1876L150.002 54.0879C150.121 53.286 150.433 52.5377 150.893 51.8996C151.039 51.695 151.206 51.4998 151.384 51.3203L151.386 51.3172L151.389 51.3151L151.405 51.2941C151.673 51.0265 151.97 50.7903 152.294 50.5888C152.549 50.4282 152.819 50.295 153.106 50.1806C153.208 50.0746 153.298 49.9843 153.402 49.8783C157.393 38.4534 162.16 18.1928 150.745 6.60636C150.474 6.51716 150.203 6.43321 149.928 6.35344H149.926C148.764 6.01865 147.566 5.77098 146.339 5.623C146.172 5.60201 146.005 5.58206 145.836 5.56632H145.834C145.834 5.56632 155.344 22.5976 144.645 57.8682Z" fill="#328591"/>
<path d="M157.079 47.915C162.951 43.737 166.811 36.9152 166.922 29.1846C166.954 26.9891 166.677 24.8533 166.131 22.8236C164.994 18.5952 162.693 14.8212 159.595 11.8794C158.807 11.1343 157.964 10.4374 157.078 9.80351C157.342 10.1047 169.937 24.6172 157.079 47.915Z" fill="#328591"/>
<path d="M149.267 58.0791H137.67C137.276 58.0791 136.957 57.7611 136.957 57.3675C136.957 56.974 137.276 56.6549 137.67 56.6549H149.267C149.66 56.6549 149.978 56.974 149.978 57.3675C149.978 57.7611 149.66 58.0791 149.267 58.0791Z" fill="#A97340"/>
<path d="M147.027 70.0861H145.453L154.967 36.0404C159.99 36.7519 163.295 37.7489 164.613 38.1992L147.027 70.0861ZM122.319 38.2275C123.607 37.793 126.942 36.7897 131.958 36.0666L141.476 70.0872H139.902L122.319 38.2275ZM143.7 70.0861L143.695 35.2616C147.877 35.2711 151.522 35.5691 154.561 35.9816L145.03 70.0861H143.7ZM143.293 70.0861L141.898 70.0872L132.363 36.0057C135.432 35.5817 139.102 35.2721 143.289 35.2616L143.293 70.0861ZM165.66 37.495C165.331 37.3627 157.459 34.2415 143.491 34.2426C129.749 34.2447 121.412 37.4666 121.329 37.4992C121.069 37.602 120.94 37.8969 121.043 38.1572C121.121 38.3577 121.313 38.4805 121.516 38.4805L121.701 38.4437C121.709 38.4416 121.8 38.408 121.929 38.3619L139.437 70.0872H138.879C138.782 70.0872 138.705 70.1649 138.705 70.2604V70.3034C138.705 70.3989 138.782 70.4766 138.879 70.4766H139.119L139.12 73.3343C139.12 75.2717 140.692 76.8439 142.629 76.8418L144.365 76.8407C144.933 76.8418 145.469 76.7064 145.944 76.465C147.088 75.8888 147.873 74.7029 147.873 73.3322L147.874 70.4755H148.115C148.211 70.4755 148.288 70.3979 148.288 70.3024V70.2593C148.288 70.1638 148.211 70.0861 148.115 70.0861H147.491L165.003 38.3346C165.163 38.3923 165.27 38.4332 165.279 38.4374C165.539 38.5413 165.835 38.4164 165.94 38.1562C166.045 37.8959 165.92 37.5999 165.66 37.495Z" fill="#A97340"/>
<path d="M378.929 293.557C378.929 294.091 374.902 294.525 369.935 294.525C364.968 294.525 360.941 294.091 360.941 293.557C360.941 293.022 364.968 292.589 369.935 292.589C374.902 292.589 378.929 293.022 378.929 293.557Z" fill="#7FB929"/>
<path d="M370.979 293.572C370.979 293.572 370.483 294.208 369.497 294.208C368.511 294.208 368.047 293.572 368.047 293.572V287.339H370.979V293.572Z" fill="#724416"/>
<path d="M357.234 288.596H381.788L369.547 239.991L357.234 288.596Z" fill="#A3D36D"/>
<path d="M357.234 288.596H369.511V240.133L357.234 288.596Z" fill="#528C31"/>
<path d="M237.82 290.55C237.82 291.085 233.793 291.519 228.826 291.519C223.859 291.519 219.832 291.085 219.832 290.55C219.832 290.015 223.859 289.582 228.826 289.582C233.793 289.582 237.82 290.015 237.82 290.55Z" fill="#7FB929"/>
<path d="M229.869 290.566C229.869 290.566 229.373 291.201 228.387 291.201C227.402 291.201 226.938 290.566 226.938 290.566V284.332H229.869V290.566Z" fill="#724416"/>
<path d="M216.125 285.589H240.678L228.438 236.985L216.125 285.589Z" fill="#A3D36D"/>
<path d="M216.125 285.589H228.402V237.126L216.125 285.589Z" fill="#528C31"/>
<mask id="mask20_389_9299" style="mask-type:luminance" maskUnits="userSpaceOnUse" x="54" y="252" width="36" height="36">
<path d="M89.6506 269.862C89.6506 260.208 81.8261 252.383 72.1727 252.383C62.5203 252.383 54.6953 260.208 54.6953 269.862C54.6953 279.514 62.5203 287.339 72.1727 287.339C81.8261 287.339 89.6506 279.514 89.6506 269.862Z" fill="white"/>
</mask>
<g mask="url(#mask20_389_9299)">
<path d="M89.6506 269.862C89.6506 260.208 81.8261 252.383 72.1727 252.383C62.5203 252.383 54.6953 260.208 54.6953 269.862C54.6953 279.514 62.5203 287.339 72.1727 287.339C81.8261 287.339 89.6506 279.514 89.6506 269.862Z" fill="#91AF28"/>
</g>
<path d="M72.1744 287.339C76.8098 287.339 81.2554 285.497 84.5332 282.22C87.8109 278.942 89.6523 274.496 89.6523 269.861C89.6523 265.225 87.8109 260.78 84.5332 257.502C81.2554 254.224 76.8098 252.383 72.1744 252.383L72.1744 269.861L72.1744 287.339Z" fill="#A3D36D"/>
<path d="M81.9213 293.557C81.9213 294.091 77.8944 294.525 72.9276 294.525C67.9604 294.525 63.9336 294.091 63.9336 293.557C63.9336 293.022 67.9604 292.589 72.9276 292.589C77.8944 292.589 81.9213 293.022 81.9213 293.557Z" fill="#7FB929"/>
<path d="M73.9746 293.572C73.9746 293.572 73.4787 294.208 72.4929 294.208C71.5071 294.208 71.043 293.572 71.043 293.572V287.339H73.9746V293.572Z" fill="#724416"/>
<mask id="mask21_389_9299" style="mask-type:luminance" maskUnits="userSpaceOnUse" x="308" y="242" width="5" height="7">
<path d="M310.464 248.543C309.707 247.58 309.059 246.596 308.531 245.598C309.169 244.407 309.816 243.24 310.464 242.102C311.114 243.24 311.761 244.407 312.399 245.598C311.871 246.596 311.223 247.58 310.464 248.543Z" fill="white"/>
</mask>
<g mask="url(#mask21_389_9299)">
<path d="M310.464 248.543C309.707 247.58 309.059 246.596 308.531 245.598C309.169 244.407 309.816 243.24 310.464 242.102C311.114 243.24 311.761 244.407 312.399 245.598C311.871 246.596 311.223 247.58 310.464 248.543Z" fill="url(#paint20_radial_389_9299)"/>
</g>
<path d="M312.937 292.727H289.574V221.543H312.937V292.727Z" fill="#FDFDDF"/>
<path d="M308.349 241.073H294.547V230.009H308.349V241.073Z" fill="white"/>
<path d="M308.349 264.115H294.547V253.051H308.349V264.115Z" fill="white"/>
<path d="M308.349 286.326H294.547V275.263H308.349V286.326Z" fill="white"/>
<path d="M312.937 243.787H289.574V241.113H312.937V243.787Z" fill="#EAA12D"/>
<path d="M312.937 222.941H289.574V221.563H312.937V222.941Z" fill="#EAA12D"/>
<path d="M312.937 266.785H289.574V264.111H312.937V266.785Z" fill="#EAA12D"/>
<path d="M312.937 288.997H289.574V286.323H312.937V288.997Z" fill="#EAA12D"/>
<path d="M300.711 241.073H295.418V230.668H300.711V241.073Z" fill="#4DC3B5"/>
<path d="M307.367 241.073H302.074V230.668H307.367V241.073Z" fill="#4DC3B5"/>
<path d="M300.711 264.071H295.418V253.668H300.711V264.071Z" fill="#4DC3B5"/>
<path d="M307.367 264.071H302.074V253.668H307.367V264.071Z" fill="#4DC3B5"/>
<path d="M300.711 286.338H295.418V275.934H300.711V286.338Z" fill="#4DC3B5"/>
<path d="M307.367 286.338H302.074V275.934H307.367V286.338Z" fill="#4DC3B5"/>
<path d="M300.711 230.89V230.668H295.418V241.073H295.639V230.89H300.711Z" fill="#2E7E82"/>
<path d="M307.367 230.89V230.668H302.074V241.073H302.296V230.89H307.367Z" fill="#2E7E82"/>
<path d="M300.711 253.888V253.668H295.418V264.071H295.639V253.888H300.711Z" fill="#2E7E82"/>
<path d="M307.367 253.888V253.668H302.074V264.071H302.296V253.888H307.367Z" fill="#2E7E82"/>
<path d="M300.711 276.156V275.934H295.418V286.338H295.639V276.156H300.711Z" fill="#2E7E82"/>
<path d="M307.367 276.156V275.934H302.074V286.338H302.296V276.156H307.367Z" fill="#2E7E82"/>
<path d="M305.094 293.091C303.313 293.091 295.935 293.091 293.051 293.091C293.051 289.766 295.747 287.07 299.073 287.07C302.398 287.07 305.094 289.766 305.094 293.091Z" fill="#329878"/>
<path d="M298.245 293.557C296.464 293.557 289.086 293.557 286.203 293.557C286.203 290.232 288.898 287.536 292.224 287.536C295.549 287.536 298.245 290.232 298.245 293.557Z" fill="#39B188"/>
<path d="M317.077 293.091C315.297 293.091 307.918 293.091 305.035 293.091C305.035 289.766 307.731 287.07 311.056 287.07C314.382 287.07 317.077 289.766 317.077 293.091Z" fill="#329878"/>
<path d="M310.234 293.557C308.453 293.557 301.075 293.557 298.191 293.557C298.191 290.232 300.888 287.536 304.212 287.536C307.538 287.536 310.234 290.232 310.234 293.557Z" fill="#39B188"/>
<path d="M335.929 292.727H312.566V247.71H335.929V292.727Z" fill="#FDFDDF"/>
<path d="M331.342 264.115H317.539V253.051H331.342V264.115Z" fill="white"/>
<path d="M331.342 286.326H317.539V275.263H331.342V286.326Z" fill="white"/>
<path d="M335.929 250.37H312.566V247.695H335.929V250.37Z" fill="#EAA12D"/>
<path d="M335.929 266.785H312.566V264.111H335.929V266.785Z" fill="#EAA12D"/>
<path d="M335.929 288.997H312.566V286.323H335.929V288.997Z" fill="#EAA12D"/>
<path d="M323.703 264.071H318.41V253.668H323.703V264.071Z" fill="#4DC3B5"/>
<path d="M330.364 264.071H325.07V253.668H330.364V264.071Z" fill="#4DC3B5"/>
<path d="M323.703 286.338H318.41V275.934H323.703V286.338Z" fill="#4DC3B5"/>
<path d="M330.364 286.338H325.07V275.934H330.364V286.338Z" fill="#4DC3B5"/>
<path d="M323.703 253.888V253.668H318.41V264.071H318.632V253.888H323.703Z" fill="#2E7E82"/>
<path d="M330.364 253.888V253.668H325.07V264.071H325.292V253.888H330.364Z" fill="#2E7E82"/>
<path d="M323.703 276.156V275.934H318.41V286.338H318.632V276.156H323.703Z" fill="#2E7E82"/>
<path d="M330.364 276.156V275.934H325.07V286.338H325.292V276.156H330.364Z" fill="#2E7E82"/>
<path d="M328.09 293.091C326.309 293.091 318.93 293.091 316.047 293.091C316.047 289.766 318.743 287.07 322.068 287.07C325.394 287.07 328.09 289.766 328.09 293.091Z" fill="#329878"/>
<path d="M321.238 293.557C319.457 293.557 312.079 293.557 309.195 293.557C309.195 290.232 311.891 287.536 315.216 287.536C318.542 287.536 321.238 290.232 321.238 293.557Z" fill="#39B188"/>
<path d="M340.073 293.091C338.292 293.091 330.914 293.091 328.031 293.091C328.031 289.766 330.726 287.07 334.052 287.07C337.377 287.07 340.073 289.766 340.073 293.091Z" fill="#329878"/>
<path d="M333.226 293.557C331.445 293.557 324.067 293.557 321.184 293.557C321.184 290.232 323.879 287.536 327.205 287.536C330.53 287.536 333.226 290.232 333.226 293.557Z" fill="#39B188"/>
<path d="M435.007 286.275C435.007 286.275 434.019 287.465 432.054 287.465C430.089 287.465 429.164 286.275 429.164 286.275V274.589H435.007V286.275Z" fill="#724416"/>
<path d="M440.023 293.026H416.66V248.009H440.023V293.026Z" fill="#FDFDDF"/>
<path d="M435.435 264.414H421.633V253.351H435.435V264.414Z" fill="white"/>
<path d="M435.435 286.626H421.633V275.562H435.435V286.626Z" fill="white"/>
<path d="M440.023 250.668H416.66V247.994H440.023V250.668Z" fill="#EAA12D"/>
<path d="M440.023 267.085H416.66V264.411H440.023V267.085Z" fill="#EAA12D"/>
<path d="M440.023 289.297H416.66V286.622H440.023V289.297Z" fill="#EAA12D"/>
<path d="M427.797 264.37H422.504V253.966H427.797V264.37Z" fill="#4DC3B5"/>
<path d="M434.457 264.37H429.164V253.966H434.457V264.37Z" fill="#4DC3B5"/>
<path d="M427.797 286.638H422.504V276.234H427.797V286.638Z" fill="#4DC3B5"/>
<path d="M434.457 286.638H429.164V276.234H434.457V286.638Z" fill="#4DC3B5"/>
<path d="M427.797 254.188V253.966H422.504V264.37H422.725V254.188H427.797Z" fill="#2E7E82"/>
<path d="M434.457 254.188V253.966H429.164V264.37H429.386V254.188H434.457Z" fill="#2E7E82"/>
<path d="M427.797 276.454V276.234H422.504V286.638H422.725V276.454H427.797Z" fill="#2E7E82"/>
<path d="M434.457 276.454V276.234H429.164V286.638H429.386V276.454H434.457Z" fill="#2E7E82"/>
<path d="M432.18 293.391C430.399 293.391 423.021 293.391 420.137 293.391C420.137 290.065 422.833 287.369 426.159 287.369C429.484 287.369 432.18 290.065 432.18 293.391Z" fill="#329878"/>
<path d="M444.167 293.391C442.386 293.391 435.008 293.391 432.125 293.391C432.125 290.065 434.821 287.369 438.146 287.369C441.472 287.369 444.167 290.065 444.167 293.391Z" fill="#329878"/>
<path d="M437.32 293.856C435.539 293.856 428.161 293.856 425.277 293.856C425.277 290.531 427.974 287.835 431.298 287.835C434.624 287.835 437.32 290.531 437.32 293.856Z" fill="#39B188"/>
<path d="M112.214 285.007C112.214 285.007 111.226 286.197 109.261 286.197C107.296 286.197 106.371 285.007 106.371 285.007V273.321H112.214V285.007Z" fill="#724416"/>
<path d="M117.23 291.759H93.8672V246.742H117.23V291.759Z" fill="#FDFDDF"/>
<path d="M112.638 263.146H98.8359V252.084H112.638V263.146Z" fill="white"/>
<path d="M112.638 285.358H98.8359V274.295H112.638V285.358Z" fill="white"/>
<path d="M117.23 249.401H93.8672V246.727H117.23V249.401Z" fill="#EAA12D"/>
<path d="M117.23 265.817H93.8672V263.143H117.23V265.817Z" fill="#EAA12D"/>
<path d="M117.23 288.03H93.8672V285.355H117.23V288.03Z" fill="#EAA12D"/>
<path d="M105 263.103H99.707V252.699H105V263.103Z" fill="#4DC3B5"/>
<path d="M111.664 263.103H106.371V252.699H111.664V263.103Z" fill="#4DC3B5"/>
<path d="M105 285.37H99.707V274.966H105V285.37Z" fill="#4DC3B5"/>
<path d="M111.664 285.37H106.371V274.966H111.664V285.37Z" fill="#4DC3B5"/>
<path d="M105 252.92V252.699H99.707V263.103H99.9285V252.92H105Z" fill="#2E7E82"/>
<path d="M111.664 252.92V252.699H106.371V263.103H106.593V252.92H111.664Z" fill="#2E7E82"/>
<path d="M105 275.187V274.966H99.707V285.37H99.9285V275.187H105Z" fill="#2E7E82"/>
<path d="M111.664 275.187V274.966H106.371V285.37H106.593V275.187H111.664Z" fill="#2E7E82"/>
<path d="M109.387 292.123C107.606 292.123 100.228 292.123 97.3438 292.123C97.3438 288.797 100.04 286.101 103.366 286.101C106.691 286.101 109.387 288.797 109.387 292.123Z" fill="#329878"/>
<path d="M121.37 292.123C119.589 292.123 112.211 292.123 109.328 292.123C109.328 288.797 112.024 286.101 115.349 286.101C118.675 286.101 121.37 288.797 121.37 292.123Z" fill="#329878"/>
<path d="M114.523 292.589C112.742 292.589 105.364 292.589 102.48 292.589C102.48 289.263 105.177 286.568 108.501 286.568C111.827 286.568 114.523 289.263 114.523 292.589Z" fill="#39B188"/>
<mask id="mask22_389_9299" style="mask-type:luminance" maskUnits="userSpaceOnUse" x="391" y="253" width="36" height="36">
<path d="M426.822 271.446C426.822 261.792 418.998 253.967 409.345 253.967C399.692 253.967 391.867 261.792 391.867 271.446C391.867 281.098 399.692 288.923 409.345 288.923C418.998 288.923 426.822 281.098 426.822 271.446Z" fill="white"/>
</mask>
<g mask="url(#mask22_389_9299)">
<path d="M426.822 271.446C426.822 261.792 418.998 253.967 409.345 253.967C399.692 253.967 391.867 261.792 391.867 271.446C391.867 281.098 399.692 288.923 409.345 288.923C418.998 288.923 426.822 281.098 426.822 271.446Z" fill="#91AF28"/>
</g>
<path d="M409.346 288.923C413.982 288.923 418.427 287.081 421.705 283.804C424.983 280.526 426.824 276.08 426.824 271.445C426.824 266.809 424.983 262.364 421.705 259.086C418.427 255.808 413.982 253.967 409.346 253.967L409.346 271.445L409.346 288.923Z" fill="#A3D36D"/>
<path d="M419.097 295.141C419.097 295.675 415.07 296.109 410.103 296.109C405.136 296.109 401.109 295.675 401.109 295.141C401.109 294.606 405.136 294.173 410.103 294.173C415.07 294.173 419.097 294.606 419.097 295.141Z" fill="#7FB929"/>
<path d="M411.15 295.156C411.15 295.156 410.654 295.792 409.669 295.792C408.683 295.792 408.219 295.156 408.219 295.156V288.923H411.15V295.156Z" fill="#724416"/>
<path d="M455.566 289.086V300.829" stroke="#F9F8F7" stroke-width="0.804019" stroke-miterlimit="10" stroke-linecap="round"/>
<path d="M475.43 289.086V300.829" stroke="#F9F8F7" stroke-width="0.804019" stroke-miterlimit="10" stroke-linecap="round"/>
<path d="M483.291 290.212H451.834L445.328 271.445H476.785L483.291 290.212Z" fill="#F9F8F7"/>
<mask id="mask23_389_9299" style="mask-type:luminance" maskUnits="userSpaceOnUse" x="448" y="273" width="33" height="16">
<path d="M453.377 288.043L448.375 273.614H475.24L480.242 288.043H453.377Z" fill="white"/>
</mask>
<g mask="url(#mask23_389_9299)">
<path d="M453.377 288.043L448.375 273.614H475.24L480.242 288.043H453.377Z" fill="url(#paint21_linear_389_9299)"/>
</g>
<path d="M456.8 288.043L451.797 273.614" stroke="#F9F8F7" stroke-width="0.804019" stroke-miterlimit="10" stroke-linecap="round"/>
<path d="M460.217 288.043L455.215 273.614" stroke="#F9F8F7" stroke-width="0.804019" stroke-miterlimit="10" stroke-linecap="round"/>
<path d="M463.632 288.043L458.629 273.614" stroke="#F9F8F7" stroke-width="0.804019" stroke-miterlimit="10" stroke-linecap="round"/>
<path d="M467.041 288.043L462.039 273.614" stroke="#F9F8F7" stroke-width="0.804019" stroke-miterlimit="10" stroke-linecap="round"/>
<path d="M470.458 288.043L465.457 273.614" stroke="#F9F8F7" stroke-width="0.804019" stroke-miterlimit="10" stroke-linecap="round"/>
<path d="M473.873 288.043L468.871 273.614" stroke="#F9F8F7" stroke-width="0.804019" stroke-miterlimit="10" stroke-linecap="round"/>
<path d="M477.287 288.043L472.285 273.614" stroke="#F9F8F7" stroke-width="0.804019" stroke-miterlimit="10" stroke-linecap="round"/>
<path d="M449.547 276.996H476.411" stroke="#F9F8F7" stroke-width="0.804019" stroke-miterlimit="10" stroke-linecap="round"/>
<path d="M450.875 280.829H477.691" stroke="#F9F8F7" stroke-width="0.804019" stroke-miterlimit="10" stroke-linecap="round"/>
<path d="M452.203 284.663H479.067" stroke="#F9F8F7" stroke-width="0.804019" stroke-miterlimit="10" stroke-linecap="round"/>
<path d="M450.875 280.829H477.691" stroke="#F9F8F7" stroke-width="0.804019" stroke-miterlimit="10" stroke-linecap="round"/>
<path d="M320.855 292.616V304.358" stroke="#F9F8F7" stroke-width="0.804019" stroke-miterlimit="10" stroke-linecap="round"/>
<path d="M340.719 292.616V304.358" stroke="#F9F8F7" stroke-width="0.804019" stroke-miterlimit="10" stroke-linecap="round"/>
<path d="M348.576 293.741H317.119L310.613 274.974H342.07L348.576 293.741Z" fill="#F9F8F7"/>
<mask id="mask24_389_9299" style="mask-type:luminance" maskUnits="userSpaceOnUse" x="313" y="277" width="33" height="15">
<path d="M318.662 291.572L313.66 277.144H340.525L345.527 291.572H318.662Z" fill="white"/>
</mask>
<g mask="url(#mask24_389_9299)">
<path d="M318.662 291.572L313.66 277.144H340.525L345.527 291.572H318.662Z" fill="url(#paint22_linear_389_9299)"/>
</g>
<path d="M322.089 291.572L317.086 277.144" stroke="#F9F8F7" stroke-width="0.804019" stroke-miterlimit="10" stroke-linecap="round"/>
<path d="M325.506 291.572L320.504 277.144" stroke="#F9F8F7" stroke-width="0.804019" stroke-miterlimit="10" stroke-linecap="round"/>
<path d="M328.917 291.572L323.914 277.144" stroke="#F9F8F7" stroke-width="0.804019" stroke-miterlimit="10" stroke-linecap="round"/>
<path d="M332.334 291.572L327.332 277.144" stroke="#F9F8F7" stroke-width="0.804019" stroke-miterlimit="10" stroke-linecap="round"/>
<path d="M335.747 291.572L330.746 277.144" stroke="#F9F8F7" stroke-width="0.804019" stroke-miterlimit="10" stroke-linecap="round"/>
<path d="M339.158 291.572L334.156 277.144" stroke="#F9F8F7" stroke-width="0.804019" stroke-miterlimit="10" stroke-linecap="round"/>
<path d="M342.576 291.572L337.574 277.144" stroke="#F9F8F7" stroke-width="0.804019" stroke-miterlimit="10" stroke-linecap="round"/>
<path d="M314.836 280.525H341.7" stroke="#F9F8F7" stroke-width="0.804019" stroke-miterlimit="10" stroke-linecap="round"/>
<path d="M316.164 284.358H342.98" stroke="#F9F8F7" stroke-width="0.804019" stroke-miterlimit="10" stroke-linecap="round"/>
<path d="M317.492 288.192H344.356" stroke="#F9F8F7" stroke-width="0.804019" stroke-miterlimit="10" stroke-linecap="round"/>
<path d="M316.164 284.358H342.98" stroke="#F9F8F7" stroke-width="0.804019" stroke-miterlimit="10" stroke-linecap="round"/>
<path d="M126.062 291.769V303.512" stroke="#F9F8F7" stroke-width="0.804019" stroke-miterlimit="10" stroke-linecap="round"/>
<path d="M145.922 291.769V303.512" stroke="#F9F8F7" stroke-width="0.804019" stroke-miterlimit="10" stroke-linecap="round"/>
<path d="M153.783 292.896H122.326L115.82 274.128H147.277L153.783 292.896Z" fill="#F9F8F7"/>
<mask id="mask25_389_9299" style="mask-type:luminance" maskUnits="userSpaceOnUse" x="118" y="276" width="33" height="15">
<path d="M123.869 290.726L118.867 276.297H145.732L150.734 290.726H123.869Z" fill="white"/>
</mask>
<g mask="url(#mask25_389_9299)">
<path d="M123.869 290.726L118.867 276.297H145.732L150.734 290.726H123.869Z" fill="url(#paint23_linear_389_9299)"/>
</g>
<path d="M127.296 290.726L122.293 276.297" stroke="#F9F8F7" stroke-width="0.804019" stroke-miterlimit="10" stroke-linecap="round"/>
<path d="M130.709 290.726L125.707 276.297" stroke="#F9F8F7" stroke-width="0.804019" stroke-miterlimit="10" stroke-linecap="round"/>
<path d="M134.124 290.726L129.121 276.297" stroke="#F9F8F7" stroke-width="0.804019" stroke-miterlimit="10" stroke-linecap="round"/>
<path d="M137.537 290.726L132.535 276.297" stroke="#F9F8F7" stroke-width="0.804019" stroke-miterlimit="10" stroke-linecap="round"/>
<path d="M140.95 290.726L135.949 276.297" stroke="#F9F8F7" stroke-width="0.804019" stroke-miterlimit="10" stroke-linecap="round"/>
<path d="M144.365 290.726L139.363 276.297" stroke="#F9F8F7" stroke-width="0.804019" stroke-miterlimit="10" stroke-linecap="round"/>
<path d="M147.779 290.726L142.777 276.297" stroke="#F9F8F7" stroke-width="0.804019" stroke-miterlimit="10" stroke-linecap="round"/>
<path d="M120.039 279.68H146.903" stroke="#F9F8F7" stroke-width="0.804019" stroke-miterlimit="10" stroke-linecap="round"/>
<path d="M121.371 283.512H148.187" stroke="#F9F8F7" stroke-width="0.804019" stroke-miterlimit="10" stroke-linecap="round"/>
<path d="M122.699 287.346H149.563" stroke="#F9F8F7" stroke-width="0.804019" stroke-miterlimit="10" stroke-linecap="round"/>
<path d="M121.371 283.512H148.187" stroke="#F9F8F7" stroke-width="0.804019" stroke-miterlimit="10" stroke-linecap="round"/>
<mask id="mask26_389_9299" style="mask-type:luminance" maskUnits="userSpaceOnUse" x="378" y="336" width="182" height="11">
<path d="M538.021 346.224H399.775C387.749 346.224 378 344.157 378 341.606C378 339.056 387.749 336.989 399.775 336.989H538.021C550.049 336.989 559.797 339.056 559.797 341.606C559.797 344.157 550.049 346.224 538.021 346.224Z" fill="white"/>
</mask>
<g mask="url(#mask26_389_9299)">
<path d="M538.021 346.224H399.775C387.749 346.224 378 344.157 378 341.606C378 339.056 387.749 336.989 399.775 336.989H538.021C550.049 336.989 559.797 339.056 559.797 341.606C559.797 344.157 550.049 346.224 538.021 346.224Z" fill="url(#paint24_linear_389_9299)"/>
</g>
<path d="M521.882 342.39V342.337C521.882 341.758 519.669 341.289 516.938 341.289C514.207 341.289 511.994 341.758 511.994 342.337V342.39C511.994 342.969 509.78 343.438 507.049 343.438H455.987C454.291 343.438 452.915 343.147 452.915 342.787V341.477C452.915 341.117 451.54 340.825 449.843 340.825C448.149 340.825 446.773 341.117 446.773 341.477V342.787C446.773 343.147 445.397 343.438 443.701 343.438H438.079C436.922 343.438 435.985 343.24 435.985 342.994C435.985 342.415 433.77 341.946 431.04 341.946C428.31 341.946 426.095 342.415 426.095 342.994C426.095 343.24 425.158 343.438 424.001 343.438H409.389C407.693 343.438 406.318 343.147 406.318 342.787V342.129C406.318 341.769 404.942 341.478 403.246 341.478C401.55 341.478 400.174 341.769 400.174 342.129V342.787C400.174 343.147 398.799 343.438 397.102 343.438H379.789C383.135 345.077 390.819 346.224 399.775 346.224H538.021C546.976 346.224 554.661 345.077 558.007 343.438H526.827C524.096 343.438 521.882 342.969 521.882 342.39Z" fill="#B86B67"/>
<mask id="mask27_389_9299" style="mask-type:luminance" maskUnits="userSpaceOnUse" x="518" y="287" width="5" height="7">
<path d="M520.832 293.785C521.59 292.822 522.238 291.838 522.766 290.84C522.128 289.649 521.481 288.482 520.832 287.344C520.183 288.482 519.536 289.649 518.898 290.84C519.426 291.838 520.074 292.822 520.832 293.785Z" fill="white"/>
</mask>
<g mask="url(#mask27_389_9299)">
<path d="M520.832 293.785C521.59 292.822 522.238 291.838 522.766 290.84C522.128 289.649 521.481 288.482 520.832 287.344C520.183 288.482 519.536 289.649 518.898 290.84C519.426 291.838 520.074 292.822 520.832 293.785Z" fill="url(#paint25_radial_389_9299)"/>
</g>
<path d="M518.356 337.969H541.719V266.785H518.356V337.969Z" fill="#FDFDDF"/>
<path d="M522.944 286.315H536.746V275.252H522.944V286.315Z" fill="white"/>
<path d="M522.944 309.357H536.746V298.294H522.944V309.357Z" fill="white"/>
<path d="M522.944 331.568H536.746V320.506H522.944V331.568Z" fill="white"/>
<path d="M518.356 289.029H541.719V286.355H518.356V289.029Z" fill="#EAA12D"/>
<path d="M518.356 268.184H541.719V266.806H518.356V268.184Z" fill="#EAA12D"/>
<path d="M518.356 312.027H541.719V309.353H518.356V312.027Z" fill="#EAA12D"/>
<path d="M518.356 334.24H541.719V331.566H518.356V334.24Z" fill="#EAA12D"/>
<path d="M530.586 286.315H535.879V275.911H530.586V286.315Z" fill="#4DC3B5"/>
<path d="M523.926 286.315H529.219V275.911H523.926V286.315Z" fill="#4DC3B5"/>
<path d="M530.586 309.313H535.879V298.91H530.586V309.313Z" fill="#4DC3B5"/>
<path d="M523.926 309.313H529.219V298.91H523.926V309.313Z" fill="#4DC3B5"/>
<path d="M530.586 331.58H535.879V321.176H530.586V331.58Z" fill="#4DC3B5"/>
<path d="M523.926 331.58H529.219V321.176H523.926V331.58Z" fill="#4DC3B5"/>
<path d="M530.586 276.132V275.911H535.879V286.315H535.657V276.132H530.586Z" fill="#2E7E82"/>
<path d="M523.926 276.132V275.911H529.219V286.315H528.997V276.132H523.926Z" fill="#2E7E82"/>
<path d="M530.586 299.13V298.91H535.879V309.313H535.657V299.13H530.586Z" fill="#2E7E82"/>
<path d="M523.926 299.13V298.91H529.219V309.313H528.997V299.13H523.926Z" fill="#2E7E82"/>
<path d="M530.586 321.398V321.176H535.879V331.58H535.657V321.398H530.586Z" fill="#2E7E82"/>
<path d="M523.926 321.398V321.176H529.219V331.58H528.997V321.398H523.926Z" fill="#2E7E82"/>
<path d="M526.199 338.333C527.98 338.333 535.358 338.333 538.242 338.333C538.242 335.008 535.546 332.312 532.22 332.312C528.895 332.312 526.199 335.008 526.199 338.333Z" fill="#329878"/>
<path d="M533.048 338.799C534.829 338.799 542.207 338.799 545.09 338.799C545.09 335.474 542.395 332.778 539.069 332.778C535.744 332.778 533.048 335.474 533.048 338.799Z" fill="#39B188"/>
<path d="M514.216 338.333C515.996 338.333 523.375 338.333 526.258 338.333C526.258 335.008 523.562 332.312 520.237 332.312C516.911 332.312 514.216 335.008 514.216 338.333Z" fill="#329878"/>
<path d="M521.062 338.799C522.843 338.799 530.221 338.799 533.105 338.799C533.105 335.474 530.409 332.778 527.084 332.778C523.759 332.778 521.062 335.474 521.062 338.799Z" fill="#39B188"/>
<path d="M495.364 337.969H518.727V292.953H495.364V337.969Z" fill="#FDFDDF"/>
<path d="M499.951 309.357H513.754V298.294H499.951V309.357Z" fill="white"/>
<path d="M499.951 331.568H513.754V320.506H499.951V331.568Z" fill="white"/>
<path d="M495.364 295.612H518.727V292.937H495.364V295.612Z" fill="#EAA12D"/>
<path d="M495.364 312.027H518.727V309.353H495.364V312.027Z" fill="#EAA12D"/>
<path d="M495.364 334.24H518.727V331.566H495.364V334.24Z" fill="#EAA12D"/>
<path d="M507.594 309.313H512.887V298.91H507.594V309.313Z" fill="#4DC3B5"/>
<path d="M500.929 309.313H506.223V298.91H500.929V309.313Z" fill="#4DC3B5"/>
<path d="M507.594 331.58H512.887V321.176H507.594V331.58Z" fill="#4DC3B5"/>
<path d="M500.929 331.58H506.223V321.176H500.929V331.58Z" fill="#4DC3B5"/>
<path d="M507.594 299.13V298.91H512.887V309.313H512.665V299.13H507.594Z" fill="#2E7E82"/>
<path d="M500.929 299.13V298.91H506.223V309.313H506.001V299.13H500.929Z" fill="#2E7E82"/>
<path d="M507.594 321.398V321.176H512.887V331.58H512.665V321.398H507.594Z" fill="#2E7E82"/>
<path d="M500.929 321.398V321.176H506.223V331.58H506.001V321.398H500.929Z" fill="#2E7E82"/>
<path d="M503.203 338.333C504.984 338.333 512.363 338.333 515.246 338.333C515.246 335.008 512.55 332.312 509.225 332.312C505.899 332.312 503.203 335.008 503.203 338.333Z" fill="#329878"/>
<path d="M510.055 338.799C511.836 338.799 519.214 338.799 522.098 338.799C522.098 335.474 519.402 332.778 516.077 332.778C512.751 332.778 510.055 335.474 510.055 338.799Z" fill="#39B188"/>
<path d="M491.22 338.333C493.001 338.333 500.379 338.333 503.262 338.333C503.262 335.008 500.567 332.312 497.241 332.312C493.916 332.312 491.22 335.008 491.22 338.333Z" fill="#329878"/>
<path d="M498.071 338.799C499.852 338.799 507.23 338.799 510.113 338.799C510.113 335.474 507.418 332.778 504.092 332.778C500.766 332.778 498.071 335.474 498.071 338.799Z" fill="#39B188"/>
<path d="M437.242 326.954V338.697" stroke="#F9F8F7" stroke-width="0.804019" stroke-miterlimit="10" stroke-linecap="round"/>
<path d="M457.102 326.954V338.697" stroke="#F9F8F7" stroke-width="0.804019" stroke-miterlimit="10" stroke-linecap="round"/>
<path d="M464.963 328.08H433.506L427 309.313H458.457L464.963 328.08Z" fill="#F9F8F7"/>
<mask id="mask28_389_9299" style="mask-type:luminance" maskUnits="userSpaceOnUse" x="430" y="311" width="32" height="15">
<path d="M435.049 325.911L430.047 311.483H456.912L461.914 325.911H435.049Z" fill="white"/>
</mask>
<g mask="url(#mask28_389_9299)">
<path d="M435.049 325.911L430.047 311.483H456.912L461.914 325.911H435.049Z" fill="url(#paint26_linear_389_9299)"/>
</g>
<path d="M438.476 325.911L433.473 311.483" stroke="#F9F8F7" stroke-width="0.804019" stroke-miterlimit="10" stroke-linecap="round"/>
<path d="M441.889 325.911L436.887 311.483" stroke="#F9F8F7" stroke-width="0.804019" stroke-miterlimit="10" stroke-linecap="round"/>
<path d="M445.304 325.911L440.301 311.483" stroke="#F9F8F7" stroke-width="0.804019" stroke-miterlimit="10" stroke-linecap="round"/>
<path d="M448.717 325.911L443.715 311.483" stroke="#F9F8F7" stroke-width="0.804019" stroke-miterlimit="10" stroke-linecap="round"/>
<path d="M452.13 325.911L447.129 311.483" stroke="#F9F8F7" stroke-width="0.804019" stroke-miterlimit="10" stroke-linecap="round"/>
<path d="M455.545 325.911L450.543 311.483" stroke="#F9F8F7" stroke-width="0.804019" stroke-miterlimit="10" stroke-linecap="round"/>
<path d="M458.959 325.911L453.957 311.483" stroke="#F9F8F7" stroke-width="0.804019" stroke-miterlimit="10" stroke-linecap="round"/>
<path d="M431.219 314.864H458.083" stroke="#F9F8F7" stroke-width="0.804019" stroke-miterlimit="10" stroke-linecap="round"/>
<path d="M432.551 318.697H459.367" stroke="#F9F8F7" stroke-width="0.804019" stroke-miterlimit="10" stroke-linecap="round"/>
<path d="M433.879 322.531H460.743" stroke="#F9F8F7" stroke-width="0.804019" stroke-miterlimit="10" stroke-linecap="round"/>
<path d="M432.551 318.697H459.367" stroke="#F9F8F7" stroke-width="0.804019" stroke-miterlimit="10" stroke-linecap="round"/>
<mask id="mask29_389_9299" style="mask-type:luminance" maskUnits="userSpaceOnUse" x="444" y="320" width="60" height="22">
<path d="M481.954 320.154C474.193 320.154 467.414 324.29 463.648 330.464C461.814 329.443 459.705 328.857 457.457 328.857C450.415 328.857 444.707 334.565 444.707 341.606H503.408C503.408 329.759 493.803 320.154 481.954 320.154Z" fill="white"/>
</mask>
<g mask="url(#mask29_389_9299)">
<path d="M481.954 320.154C474.193 320.154 467.414 324.29 463.648 330.464C461.814 329.443 459.705 328.857 457.457 328.857C450.415 328.857 444.707 334.565 444.707 341.606H503.408C503.408 329.759 493.803 320.154 481.954 320.154Z" fill="url(#paint27_linear_389_9299)"/>
</g>
<mask id="mask30_389_9299" style="mask-type:luminance" maskUnits="userSpaceOnUse" x="0" y="356" width="182" height="10">
<path d="M160.021 365.644H21.7754C9.74912 365.644 0 363.576 0 361.026C0 358.476 9.74912 356.409 21.7754 356.409H160.021C172.049 356.409 181.797 358.476 181.797 361.026C181.797 363.576 172.049 365.644 160.021 365.644Z" fill="white"/>
</mask>
<g mask="url(#mask30_389_9299)">
<path d="M160.021 365.644H21.7754C9.74912 365.644 0 363.576 0 361.026C0 358.476 9.74912 356.409 21.7754 356.409H160.021C172.049 356.409 181.797 358.476 181.797 361.026C181.797 363.576 172.049 365.644 160.021 365.644Z" fill="url(#paint28_linear_389_9299)"/>
</g>
<path d="M143.882 361.81V361.757C143.882 361.178 141.669 360.709 138.938 360.709C136.207 360.709 133.994 361.178 133.994 361.757V361.81C133.994 362.389 131.78 362.858 129.049 362.858H77.9874C76.2911 362.858 74.9154 362.567 74.9154 362.207V360.897C74.9154 360.537 73.5397 360.245 71.8434 360.245C70.1486 360.245 68.7729 360.537 68.7729 360.897V362.207C68.7729 362.567 67.3972 362.858 65.7009 362.858H60.0794C58.9218 362.858 57.9851 362.659 57.9851 362.414C57.9851 361.835 55.7705 361.366 53.0401 361.366C50.3097 361.366 48.0955 361.835 48.0955 362.414C48.0955 362.659 47.1578 362.858 46.0013 362.858H31.3887C29.6926 362.858 28.3176 362.567 28.3176 362.207V361.549C28.3176 361.189 26.9421 360.897 25.2465 360.897C23.5496 360.897 22.1741 361.189 22.1741 361.549V362.207C22.1741 362.567 20.7992 362.858 19.1024 362.858H1.78906C5.13473 364.497 12.8194 365.644 21.7745 365.644H160.021C168.976 365.644 176.661 364.497 180.007 362.858H148.827C146.096 362.858 143.882 362.389 143.882 361.81Z" fill="#B86B67"/>
<path d="M36.0625 347.147V358.89" stroke="#F9F8F7" stroke-width="0.804019" stroke-miterlimit="10" stroke-linecap="round"/>
<path d="M55.9258 347.147V358.89" stroke="#F9F8F7" stroke-width="0.804019" stroke-miterlimit="10" stroke-linecap="round"/>
<path d="M63.7828 348.273H32.3262L25.8203 329.506H57.277L63.7828 348.273Z" fill="#F9F8F7"/>
<mask id="mask31_389_9299" style="mask-type:luminance" maskUnits="userSpaceOnUse" x="28" y="331" width="33" height="16">
<path d="M33.8691 346.104L28.8672 331.675H55.7323L60.7342 346.104H33.8691Z" fill="white"/>
</mask>
<g mask="url(#mask31_389_9299)">
<path d="M33.8691 346.104L28.8672 331.675H55.7323L60.7342 346.104H33.8691Z" fill="url(#paint29_linear_389_9299)"/>
</g>
<path d="M37.2959 346.104L32.293 331.675" stroke="#F9F8F7" stroke-width="0.804019" stroke-miterlimit="10" stroke-linecap="round"/>
<path d="M40.7128 346.104L35.7109 331.675" stroke="#F9F8F7" stroke-width="0.804019" stroke-miterlimit="10" stroke-linecap="round"/>
<path d="M44.1241 346.104L39.1211 331.675" stroke="#F9F8F7" stroke-width="0.804019" stroke-miterlimit="10" stroke-linecap="round"/>
<path d="M47.541 346.104L42.5391 331.675" stroke="#F9F8F7" stroke-width="0.804019" stroke-miterlimit="10" stroke-linecap="round"/>
<path d="M50.954 346.104L45.9531 331.675" stroke="#F9F8F7" stroke-width="0.804019" stroke-miterlimit="10" stroke-linecap="round"/>
<path d="M54.3652 346.104L49.3633 331.675" stroke="#F9F8F7" stroke-width="0.804019" stroke-miterlimit="10" stroke-linecap="round"/>
<path d="M57.7832 346.104L52.7812 331.675" stroke="#F9F8F7" stroke-width="0.804019" stroke-miterlimit="10" stroke-linecap="round"/>
<path d="M30.043 335.058H56.907" stroke="#F9F8F7" stroke-width="0.804019" stroke-miterlimit="10" stroke-linecap="round"/>
<path d="M31.3711 338.89H58.1869" stroke="#F9F8F7" stroke-width="0.804019" stroke-miterlimit="10" stroke-linecap="round"/>
<path d="M32.6992 342.724H59.5633" stroke="#F9F8F7" stroke-width="0.804019" stroke-miterlimit="10" stroke-linecap="round"/>
<path d="M31.3711 338.89H58.1869" stroke="#F9F8F7" stroke-width="0.804019" stroke-miterlimit="10" stroke-linecap="round"/>
<mask id="mask32_389_9299" style="mask-type:luminance" maskUnits="userSpaceOnUse" x="113" y="336" width="59" height="22">
<path d="M150.54 336.161C142.779 336.161 136 340.298 132.234 346.472C130.4 345.451 128.291 344.865 126.043 344.865C119.001 344.865 113.293 350.573 113.293 357.614H171.994C171.994 345.766 162.389 336.161 150.54 336.161Z" fill="white"/>
</mask>
<g mask="url(#mask32_389_9299)">
<path d="M150.54 336.161C142.779 336.161 136 340.298 132.234 346.472C130.4 345.451 128.291 344.865 126.043 344.865C119.001 344.865 113.293 350.573 113.293 357.614H171.994C171.994 345.766 162.389 336.161 150.54 336.161Z" fill="url(#paint30_linear_389_9299)"/>
</g>
<mask id="mask33_389_9299" style="mask-type:luminance" maskUnits="userSpaceOnUse" x="98" y="316" width="35" height="36">
<path d="M132.998 333.64C132.998 323.987 125.174 316.162 115.52 316.162C105.868 316.162 98.043 323.987 98.043 333.64C98.043 343.292 105.868 351.117 115.52 351.117C125.174 351.117 132.998 343.292 132.998 333.64Z" fill="white"/>
</mask>
<g mask="url(#mask33_389_9299)">
<path d="M132.998 333.64C132.998 323.987 125.174 316.162 115.52 316.162C105.868 316.162 98.043 323.987 98.043 333.64C98.043 343.292 105.868 351.117 115.52 351.117C125.174 351.117 132.998 343.292 132.998 333.64Z" fill="#91AF28"/>
</g>
<path d="M115.522 351.117C120.157 351.117 124.603 349.276 127.881 345.998C131.159 342.72 133 338.275 133 333.639C133 329.004 131.159 324.558 127.881 321.28C124.603 318.003 120.157 316.161 115.522 316.161L115.522 333.639L115.522 351.117Z" fill="#A3D36D"/>
<path d="M125.269 357.335C125.269 357.87 121.242 358.304 116.275 358.304C111.308 358.304 107.281 357.87 107.281 357.335C107.281 356.8 111.308 356.367 116.275 356.367C121.242 356.367 125.269 356.8 125.269 357.335Z" fill="#7FB929"/>
<path d="M117.322 357.351C117.322 357.351 116.826 357.986 115.841 357.986C114.855 357.986 114.391 357.351 114.391 357.351V351.117H117.322V357.351Z" fill="#724416"/>
<path d="M90.4012 350.033C90.4012 350.033 89.4136 351.223 87.4489 351.223C85.4832 351.223 84.5586 350.033 84.5586 350.033V338.346H90.4012V350.033Z" fill="#724416"/>
<path d="M95.4132 356.784H72.0508V311.767H95.4132V356.784Z" fill="#FDFDDF"/>
<path d="M90.8254 328.172H77.0234V317.109H90.8254V328.172Z" fill="white"/>
<path d="M90.8254 350.384H77.0234V339.32H90.8254V350.384Z" fill="white"/>
<path d="M95.4132 314.427H72.0508V311.753H95.4132V314.427Z" fill="#EAA12D"/>
<path d="M95.4132 330.843H72.0508V328.169H95.4132V330.843Z" fill="#EAA12D"/>
<path d="M95.4132 353.056H72.0508V350.38H95.4132V353.056Z" fill="#EAA12D"/>
<path d="M83.1872 328.128H77.8945V317.724H83.1872V328.128Z" fill="#4DC3B5"/>
<path d="M89.8512 328.128H84.5586V317.724H89.8512V328.128Z" fill="#4DC3B5"/>
<path d="M83.1872 350.396H77.8945V339.992H83.1872V350.396Z" fill="#4DC3B5"/>
<path d="M89.8512 350.396H84.5586V339.992H89.8512V350.396Z" fill="#4DC3B5"/>
<path d="M83.1872 317.946V317.724H77.8945V328.128H78.116V317.946H83.1872Z" fill="#2E7E82"/>
<path d="M89.8512 317.946V317.724H84.5586V328.128H84.78V317.946H89.8512Z" fill="#2E7E82"/>
<path d="M83.1872 340.212V339.992H77.8945V350.396H78.116V340.212H83.1872Z" fill="#2E7E82"/>
<path d="M89.8512 340.212V339.992H84.5586V350.396H84.78V340.212H89.8512Z" fill="#2E7E82"/>
<path d="M87.5743 357.148C85.7933 357.148 78.4153 357.148 75.5312 357.148C75.5312 353.823 78.2274 351.126 81.5533 351.126C84.8781 351.126 87.5743 353.823 87.5743 357.148Z" fill="#329878"/>
<path d="M99.5576 357.148C97.7766 357.148 90.3986 357.148 87.5156 357.148C87.5156 353.823 90.2118 351.126 93.5366 351.126C96.8625 351.126 99.5576 353.823 99.5576 357.148Z" fill="#329878"/>
<path d="M92.711 357.614C90.93 357.614 83.552 357.614 80.668 357.614C80.668 354.288 83.3641 351.593 86.689 351.593C90.0148 351.593 92.711 354.288 92.711 357.614Z" fill="#39B188"/>
<defs>
<linearGradient id="paint0_linear_389_9299" x1="187.745" y1="288.172" x2="190.863" y2="304.385" gradientUnits="userSpaceOnUse">
<stop stop-color="#4CC3F2"/>
<stop offset="1" stop-color="#88D6F5"/>
</linearGradient>
<linearGradient id="paint1_linear_389_9299" x1="444.976" y1="225.892" x2="444.976" y2="153.439" gradientUnits="userSpaceOnUse">
<stop stop-color="#F9FBFB"/>
<stop offset="0.838993" stop-color="#CBEEF4"/>
<stop offset="1" stop-color="#CBEEF4"/>
</linearGradient>
<linearGradient id="paint2_linear_389_9299" x1="401.023" y1="178.832" x2="401.023" y2="126.304" gradientUnits="userSpaceOnUse">
<stop stop-color="#F9FBFB"/>
<stop offset="0.838993" stop-color="#CBEEF4"/>
<stop offset="1" stop-color="#CBEEF4"/>
</linearGradient>
<linearGradient id="paint3_linear_389_9299" x1="300.058" y1="132.751" x2="300.058" y2="80.2225" gradientUnits="userSpaceOnUse">
<stop stop-color="#F9FBFB"/>
<stop offset="0.838993" stop-color="#CBEEF4"/>
<stop offset="1" stop-color="#CBEEF4"/>
</linearGradient>
<linearGradient id="paint4_linear_389_9299" x1="170.91" y1="172.444" x2="170.91" y2="119.916" gradientUnits="userSpaceOnUse">
<stop stop-color="#F9FBFB"/>
<stop offset="0.838993" stop-color="#CBEEF4"/>
<stop offset="1" stop-color="#CBEEF4"/>
</linearGradient>
<linearGradient id="paint5_linear_389_9299" x1="391.896" y1="43.7826" x2="416.473" y2="1.21401" gradientUnits="userSpaceOnUse">
<stop stop-color="#CBEEF4"/>
<stop offset="0.161007" stop-color="#CBEEF4"/>
<stop offset="1" stop-color="#F9FBFB"/>
</linearGradient>
<linearGradient id="paint6_linear_389_9299" x1="99.2397" y1="106.242" x2="120.806" y2="68.8882" gradientUnits="userSpaceOnUse">
<stop stop-color="#CBEEF4"/>
<stop offset="0.161007" stop-color="#CBEEF4"/>
<stop offset="1" stop-color="#F9FBFB"/>
</linearGradient>
<linearGradient id="paint7_linear_389_9299" x1="257.753" y1="301.452" x2="257.753" y2="279.999" gradientUnits="userSpaceOnUse">
<stop stop-color="#359E86"/>
<stop offset="1" stop-color="#3CB893"/>
</linearGradient>
<linearGradient id="paint8_linear_389_9299" x1="445.154" y1="153.88" x2="422.551" y2="131.277" gradientUnits="userSpaceOnUse">
<stop stop-color="#CBEEF4"/>
<stop offset="0.244094" stop-color="#F9FBFB"/>
<stop offset="1" stop-color="#F9FBFB"/>
</linearGradient>
<linearGradient id="paint9_linear_389_9299" x1="432.999" y1="170.833" x2="448.722" y2="166.62" gradientUnits="userSpaceOnUse">
<stop stop-color="#F9FBFB"/>
<stop offset="0.755906" stop-color="#F9FBFB"/>
<stop offset="1" stop-color="#CBEEF4"/>
</linearGradient>
<linearGradient id="paint10_linear_389_9299" x1="444.561" y1="153.722" x2="475.437" y2="145.448" gradientUnits="userSpaceOnUse">
<stop stop-color="#CBEEF4"/>
<stop offset="0.244094" stop-color="#F9FBFB"/>
<stop offset="1" stop-color="#F9FBFB"/>
</linearGradient>
<linearGradient id="paint11_linear_389_9299" x1="401.153" y1="126.625" x2="384.766" y2="110.238" gradientUnits="userSpaceOnUse">
<stop stop-color="#CBEEF4"/>
<stop offset="0.244094" stop-color="#F9FBFB"/>
<stop offset="1" stop-color="#F9FBFB"/>
</linearGradient>
<linearGradient id="paint12_linear_389_9299" x1="392.34" y1="138.915" x2="403.739" y2="135.861" gradientUnits="userSpaceOnUse">
<stop stop-color="#F9FBFB"/>
<stop offset="0.755906" stop-color="#F9FBFB"/>
<stop offset="1" stop-color="#CBEEF4"/>
</linearGradient>
<linearGradient id="paint13_linear_389_9299" x1="400.723" y1="126.509" x2="423.108" y2="120.511" gradientUnits="userSpaceOnUse">
<stop stop-color="#CBEEF4"/>
<stop offset="0.244094" stop-color="#F9FBFB"/>
<stop offset="1" stop-color="#F9FBFB"/>
</linearGradient>
<linearGradient id="paint14_linear_389_9299" x1="300.184" y1="80.5429" x2="283.797" y2="64.1558" gradientUnits="userSpaceOnUse">
<stop stop-color="#CBEEF4"/>
<stop offset="0.244094" stop-color="#F9FBFB"/>
<stop offset="1" stop-color="#F9FBFB"/>
</linearGradient>
<linearGradient id="paint15_linear_389_9299" x1="291.371" y1="92.8333" x2="302.77" y2="89.7789" gradientUnits="userSpaceOnUse">
<stop stop-color="#F9FBFB"/>
<stop offset="0.755906" stop-color="#F9FBFB"/>
<stop offset="1" stop-color="#CBEEF4"/>
</linearGradient>
<linearGradient id="paint16_linear_389_9299" x1="299.754" y1="80.4268" x2="322.14" y2="74.4286" gradientUnits="userSpaceOnUse">
<stop stop-color="#CBEEF4"/>
<stop offset="0.244094" stop-color="#F9FBFB"/>
<stop offset="1" stop-color="#F9FBFB"/>
</linearGradient>
<linearGradient id="paint17_linear_389_9299" x1="171.036" y1="120.236" x2="154.649" y2="103.849" gradientUnits="userSpaceOnUse">
<stop stop-color="#CBEEF4"/>
<stop offset="0.244094" stop-color="#F9FBFB"/>
<stop offset="1" stop-color="#F9FBFB"/>
</linearGradient>
<linearGradient id="paint18_linear_389_9299" x1="162.223" y1="132.527" x2="173.622" y2="129.472" gradientUnits="userSpaceOnUse">
<stop stop-color="#F9FBFB"/>
<stop offset="0.755906" stop-color="#F9FBFB"/>
<stop offset="1" stop-color="#CBEEF4"/>
</linearGradient>
<linearGradient id="paint19_linear_389_9299" x1="170.606" y1="120.12" x2="192.991" y2="114.122" gradientUnits="userSpaceOnUse">
<stop stop-color="#CBEEF4"/>
<stop offset="0.244094" stop-color="#F9FBFB"/>
<stop offset="1" stop-color="#F9FBFB"/>
</linearGradient>
<radialGradient id="paint20_radial_389_9299" cx="0" cy="0" r="1" gradientUnits="userSpaceOnUse" gradientTransform="translate(269.101 152.97) scale(262.376 262.375)">
<stop stop-color="#41BD92"/>
<stop offset="1" stop-color="#3FAE91"/>
</radialGradient>
<linearGradient id="paint21_linear_389_9299" x1="458.452" y1="290.973" x2="470.166" y2="270.684" gradientUnits="userSpaceOnUse">
<stop stop-color="#3D8E91"/>
<stop offset="1" stop-color="#51AFBF"/>
</linearGradient>
<linearGradient id="paint22_linear_389_9299" x1="323.737" y1="294.502" x2="335.451" y2="274.214" gradientUnits="userSpaceOnUse">
<stop stop-color="#3D8E91"/>
<stop offset="1" stop-color="#51AFBF"/>
</linearGradient>
<linearGradient id="paint23_linear_389_9299" x1="128.944" y1="293.656" x2="140.658" y2="273.367" gradientUnits="userSpaceOnUse">
<stop stop-color="#3D8E91"/>
<stop offset="1" stop-color="#51AFBF"/>
</linearGradient>
<linearGradient id="paint24_linear_389_9299" x1="497.07" y1="351.952" x2="493.742" y2="324.771" gradientUnits="userSpaceOnUse">
<stop stop-color="#3FBA9D"/>
<stop offset="0.61811" stop-color="#6DCCA6"/>
<stop offset="1" stop-color="#6DCCA6"/>
</linearGradient>
<radialGradient id="paint25_radial_389_9299" cx="0" cy="0" r="1" gradientUnits="userSpaceOnUse" gradientTransform="translate(562.195 198.212) rotate(180) scale(262.376 262.375)">
<stop stop-color="#41BD92"/>
<stop offset="1" stop-color="#3FAE91"/>
</radialGradient>
<linearGradient id="paint26_linear_389_9299" x1="440.124" y1="328.841" x2="451.838" y2="308.553" gradientUnits="userSpaceOnUse">
<stop stop-color="#3D8E91"/>
<stop offset="1" stop-color="#51AFBF"/>
</linearGradient>
<linearGradient id="paint27_linear_389_9299" x1="474.058" y1="341.606" x2="474.058" y2="320.153" gradientUnits="userSpaceOnUse">
<stop stop-color="#359E86"/>
<stop offset="1" stop-color="#3CB893"/>
</linearGradient>
<linearGradient id="paint28_linear_389_9299" x1="119.07" y1="371.372" x2="115.742" y2="344.191" gradientUnits="userSpaceOnUse">
<stop stop-color="#3FBA9D"/>
<stop offset="0.61811" stop-color="#6DCCA6"/>
<stop offset="1" stop-color="#6DCCA6"/>
</linearGradient>
<linearGradient id="paint29_linear_389_9299" x1="38.9445" y1="349.034" x2="50.6583" y2="328.745" gradientUnits="userSpaceOnUse">
<stop stop-color="#3D8E91"/>
<stop offset="1" stop-color="#51AFBF"/>
</linearGradient>
<linearGradient id="paint30_linear_389_9299" x1="142.643" y1="357.614" x2="142.643" y2="336.161" gradientUnits="userSpaceOnUse">
<stop stop-color="#359E86"/>
<stop offset="1" stop-color="#3CB893"/>
</linearGradient>
</defs>
</svg>
