<svg width="124" height="64" viewBox="0 0 124 64" fill="none" xmlns="http://www.w3.org/2000/svg">
<g opacity="0.75" clip-path="url(#clip0_324_13839)">
<mask id="mask0_324_13839" style="mask-type:luminance" maskUnits="userSpaceOnUse" x="0" y="0" width="124" height="64">
<path d="M123.814 0H0V63.1536H123.814V0Z" fill="white"/>
</mask>
<g mask="url(#mask0_324_13839)">
<path d="M2.5654 6.24012H1.10129V9.96634H0V0.216797H2.5654C4.47874 0.216797 6.07293 1.12746 6.07293 3.12017C6.07293 5.11289 4.57974 6.24012 2.5654 6.24012ZM2.49352 1.1556H1.10129V5.32947H2.49266C3.98588 5.32947 4.88436 4.62173 4.88436 3.14831C4.88436 1.77635 3.89858 1.15474 2.49266 1.15474L2.49352 1.1556Z" fill="#706A6A"/>
<path d="M10.7413 3.84188C10.5385 3.77024 10.2193 3.71227 9.82829 3.71227C9.14715 3.71227 8.59608 4.10194 8.2341 4.47798V9.96666H7.13281V2.88857H7.87215L8.07496 3.78389C8.37958 3.37973 9.00254 2.78711 9.91556 2.78711C10.4376 2.78711 10.7559 2.88857 10.8141 2.90223L10.7413 3.84102V3.84188Z" fill="#706A6A"/>
<path d="M17.2672 6.41324C17.2672 8.79646 16.1077 10.1105 14.2089 10.1105C12.3101 10.1105 11.1797 8.82461 11.1797 6.41324C11.1797 4.33354 12.1655 2.74414 14.2089 2.74414C16.2523 2.74414 17.2672 4.30456 17.2672 6.41324ZM16.1368 6.41324C16.1368 4.56462 15.5138 3.56784 14.2089 3.56784C12.9039 3.56784 12.2955 4.60812 12.2955 6.41324C12.2955 8.21836 12.803 9.28676 14.2089 9.28676C15.6148 9.28676 16.1368 8.30533 16.1368 6.41324Z" fill="#706A6A"/>
<path d="M21.1191 9.92242L20.3943 9.98041L18.119 2.88867H19.3366C19.3366 2.88867 20.6707 7.193 21.2791 9.31617C21.902 7.17851 23.207 2.88867 23.207 2.88867H24.3374L22.0621 9.89427C21.3227 12.147 20.5834 12.8693 19.2211 12.8693C18.6272 12.8693 17.9307 12.5512 17.6406 12.3057L18.0034 11.5689H18.0907C18.2935 11.7275 18.7573 12.0166 19.2793 12.0166C20.1059 12.0166 20.5843 11.5263 21.0335 10.1825L21.1208 9.92242H21.1191Z" fill="#706A6A"/>
<path d="M26.1052 6.74589C26.1052 8.49302 27.0036 9.25872 28.3522 9.25872C29.2654 9.25872 30.0766 8.84007 30.5556 8.55101L30.8313 9.3312C30.2375 9.69275 29.309 10.1114 28.2368 10.1114C26.2944 10.1114 25.0039 8.82558 25.0039 6.38434C25.0039 4.14608 26.1052 2.74512 28.0477 2.74512C29.9901 2.74512 30.8886 4.34901 30.8886 6.12515V6.74589H26.1052ZM28.0041 3.58244C26.6563 3.58244 26.1052 4.76682 26.1052 5.98018H29.8156C29.8156 4.75233 29.3952 3.58244 28.0041 3.58244Z" fill="#706A6A"/>
<path d="M37.5584 9.48968C37.1236 9.73528 36.2243 10.1105 35.1957 10.1105C33.3979 10.1105 32.0938 9.05568 32.0938 6.42686C32.0938 4.02915 33.4126 2.74414 35.1957 2.74414C36.008 2.74414 36.8773 2.91725 37.5148 3.30778L37.1964 4.08798C36.6454 3.76993 35.9788 3.62583 35.254 3.62583C33.978 3.62583 33.196 4.6371 33.196 6.42773C33.196 8.42129 33.9791 9.25861 35.254 9.25861C36.0805 9.25861 36.7908 8.96957 37.2982 8.66685L37.5592 9.48968H37.5584Z" fill="#706A6A"/>
<path d="M41.1367 10.111C40.1362 10.111 39.3105 9.60542 39.3105 7.9444V3.68357H38.2383V2.88886H39.3105V1.60303L40.412 1.25684V2.88886H42.4845V3.68357H40.412V8.07401C40.412 8.82522 40.6875 9.1859 41.3541 9.1859C41.7306 9.1859 42.2524 8.99831 42.4845 8.88235L42.7016 9.69069C42.3972 9.87826 41.7159 10.1102 41.1357 10.1102L41.1367 10.111Z" fill="#706A6A"/>
<path d="M49.3533 6.41324C49.3533 8.79646 48.1938 10.1105 46.295 10.1105C44.396 10.1105 43.2656 8.82461 43.2656 6.41324C43.2656 4.33354 44.2514 2.74414 46.295 2.74414C48.3383 2.74414 49.3533 4.30456 49.3533 6.41324ZM48.2219 6.41324C48.2219 4.56462 47.5991 3.56784 46.294 3.56784C44.989 3.56784 44.3807 4.60812 44.3807 6.41324C44.3807 8.21836 44.8881 9.28676 46.294 9.28676C47.7001 9.28676 48.2219 8.30533 48.2219 6.41324Z" fill="#706A6A"/>
<path d="M58.0812 9.96635L57.8927 9.05654C57.4726 9.59115 56.7042 10.1113 55.704 10.1113C54.2542 10.1113 53.4141 9.14349 53.4141 7.94465C53.4141 6.74578 54.3126 5.92294 55.9222 5.92294H57.7628V5.3593C57.7628 4.13145 57.2263 3.61134 56.154 3.61134C55.2555 3.61134 54.5308 3.84241 54.0087 4.07349L53.7187 3.27877C54.2842 3.03321 55.1246 2.74414 56.2986 2.74414C57.98 2.74414 58.8348 3.61047 58.8348 5.30047V9.96548H58.0812V9.96635ZM57.7618 6.67329H56.0949C54.892 6.67329 54.4863 7.19343 54.4863 7.90115C54.4863 8.75383 54.95 9.3166 55.9795 9.3166C56.675 9.3166 57.3417 8.91242 57.7618 8.43578V6.67329Z" fill="#706A6A"/>
<path d="M61.5729 10.443V12.7111H60.457V2.88911H61.3119L61.4857 3.72643C61.9786 3.17731 62.7325 2.74414 63.5582 2.74414C65.3696 2.74414 66.2692 4.02999 66.2692 6.41324C66.2692 8.79646 65.0224 10.1105 63.3263 10.1105C62.4707 10.1105 61.9205 9.80689 61.4128 9.30124C61.4128 9.30124 61.5722 9.99447 61.5722 10.4421L61.5729 10.443ZM61.5729 8.52191C62.0077 8.96957 62.6024 9.28675 63.2546 9.28675C64.5447 9.28675 65.1533 8.44943 65.1533 6.41324C65.1533 4.55013 64.6168 3.59682 63.3271 3.59682C62.6315 3.59682 61.993 3.98651 61.5729 4.41965V8.52191Z" fill="#706A6A"/>
<path d="M73.5327 6.41324C73.5327 8.79646 72.3732 10.1105 70.4744 10.1105C68.5757 10.1105 67.4453 8.82461 67.4453 6.41324C67.4453 4.33354 68.4311 2.74414 70.4744 2.74414C72.5178 2.74414 73.5327 4.30456 73.5327 6.41324ZM72.4024 6.41324C72.4024 4.56462 71.7793 3.56784 70.4744 3.56784C69.1695 3.56784 68.5612 4.60812 68.5612 6.41324C68.5612 8.21836 69.0686 9.28676 70.4744 9.28676C71.8803 9.28676 72.4024 8.30533 72.4024 6.41324Z" fill="#706A6A"/>
<path d="M77.3885 9.92242L76.6638 9.98041L74.3883 2.88867H75.606C75.606 2.88867 76.9401 7.193 77.5486 9.31617C78.1714 7.17851 79.4766 2.88867 79.4766 2.88867H80.6069L78.3315 9.89427C77.5923 12.147 76.8528 12.8693 75.4906 12.8693C74.8967 12.8693 74.2001 12.5512 73.9102 12.3057L74.2729 11.5689H74.3602C74.5629 11.7275 75.0269 12.0166 75.5487 12.0166C76.3754 12.0166 76.8536 11.5263 77.3028 10.1825L77.3901 9.92242H77.3885Z" fill="#706A6A"/>
<path d="M85.753 9.96635L85.5648 9.05654C85.1445 9.59115 84.3761 10.1113 83.3758 10.1113C81.9264 10.1113 81.0859 9.14349 81.0859 7.94465C81.0859 6.74578 81.9844 5.92294 83.594 5.92294H85.4347V5.3593C85.4347 4.13145 84.8982 3.61134 83.8259 3.61134C82.9274 3.61134 82.2026 3.84241 81.6806 4.07349L81.3906 3.27877C81.9563 3.03321 82.7965 2.74414 83.9705 2.74414C85.6521 2.74414 86.507 3.61047 86.507 5.30047V9.96548H85.753V9.96635ZM85.4339 6.67329H83.767C82.5638 6.67329 82.1582 7.19343 82.1582 7.90115C82.1582 8.75383 82.6219 9.3166 83.6513 9.3166C84.3472 9.3166 85.0136 8.91242 85.4339 8.43578V6.67329Z" fill="#706A6A"/>
<path d="M92.8138 9.11428C92.4082 9.64891 91.6106 10.1111 90.7694 10.1111C89.0881 10.1111 87.9141 8.86871 87.9141 6.41384C87.9141 4.26169 88.9861 2.74477 90.8851 2.74477C91.7689 2.74477 92.3782 3.03384 92.7838 3.35102C92.7402 2.97585 92.7255 2.61431 92.7255 2.19565V0H93.8269V9.96612H93.0002L92.812 9.11344L92.8138 9.11428ZM92.7265 4.08774C92.3927 3.85667 91.7988 3.5821 91.0013 3.5821C89.6674 3.5821 89.0297 4.62151 89.0297 6.413C89.0297 8.20447 89.5954 9.28652 90.9287 9.28652C91.5662 9.28652 92.1464 9.01281 92.7265 8.39121V4.08688V4.08774Z" fill="#706A6A"/>
<path d="M101.322 6.41324C101.322 8.79646 100.162 10.1105 98.2635 10.1105C96.3647 10.1105 95.2344 8.82461 95.2344 6.41324C95.2344 4.33354 96.2202 2.74414 98.2635 2.74414C100.307 2.74414 101.322 4.30456 101.322 6.41324ZM100.191 6.41324C100.191 4.56462 99.5684 3.56784 98.2635 3.56784C96.9586 3.56784 96.35 4.60812 96.35 6.41324C96.35 8.21836 96.8576 9.28676 98.2635 9.28676C99.6693 9.28676 100.191 8.30533 100.191 6.41324Z" fill="#706A6A"/>
<path d="M106.768 10.443V12.7111H105.652V2.88911H106.507L106.681 3.72643C107.174 3.17731 107.928 2.74414 108.753 2.74414C110.565 2.74414 111.464 4.02999 111.464 6.41324C111.464 8.79646 110.218 10.1105 108.522 10.1105C107.666 10.1105 107.116 9.80689 106.608 9.30124C106.608 9.30124 106.767 9.99447 106.767 10.4421L106.768 10.443ZM106.768 8.52191C107.203 8.96957 107.798 9.28675 108.45 9.28675C109.74 9.28675 110.349 8.44943 110.349 6.41324C110.349 4.55013 109.812 3.59682 108.522 3.59682C107.827 3.59682 107.188 3.98651 106.768 4.41965V8.52191Z" fill="#706A6A"/>
<path d="M118.728 6.41324C118.728 8.79646 117.568 10.1105 115.67 10.1105C113.771 10.1105 112.641 8.82461 112.641 6.41324C112.641 4.33354 113.626 2.74414 115.67 2.74414C117.713 2.74414 118.728 4.30456 118.728 6.41324ZM117.598 6.41324C117.598 4.56462 116.975 3.56784 115.67 3.56784C114.365 3.56784 113.757 4.60812 113.757 6.41324C113.757 8.21836 114.264 9.28676 115.67 9.28676C117.076 9.28676 117.598 8.30533 117.598 6.41324Z" fill="#706A6A"/>
<path d="M123.741 3.84188C123.538 3.77024 123.219 3.71227 122.828 3.71227C122.147 3.71227 121.596 4.10194 121.234 4.47798V9.96666H120.133V2.88857H120.872L121.075 3.78389C121.379 3.37973 122.002 2.78711 122.915 2.78711C123.437 2.78711 123.756 2.88857 123.814 2.90223L123.741 3.84102V3.84188Z" fill="#706A6A"/>
<path d="M23.1217 57.5947H0.0390625V63.1541H23.1217V57.5947Z" fill="#706A6A"/>
<path d="M51.3599 57.5938H23.125V63.1534H51.3599V57.5938Z" fill="#706A6A"/>
<path d="M16.496 43.9794C15.992 44.0585 15.5205 44.0876 15.0875 44.0876C11.6595 44.0876 9.33713 42.4972 8.75184 41.9668C7.49824 40.8686 6.32763 39.0133 6.32763 36.4007C6.32763 33.9772 7.41438 31.9327 8.96148 30.5693C10.4247 29.2816 12.6222 28.6003 14.9625 28.6003C15.5478 28.6003 16.0998 28.6532 16.62 28.747C18.032 28.9328 19.6236 29.3463 21.4839 30.1112V24.5493C18.7661 23.4885 16.6346 23.1475 14.7957 23.1475C10.4478 23.1475 6.85304 24.6243 4.3869 26.7824C1.87883 28.9789 0.0390625 32.3111 0.0390625 36.2872C0.0390625 40.2633 1.87797 43.6715 4.3869 45.8679C6.72809 47.9502 10.1971 49.5403 15.3391 49.5403C17.0111 49.5403 19.0177 49.3136 21.4839 48.1771V42.5997C19.5688 43.3866 17.9387 43.802 16.496 43.9794Z" fill="#706A6A"/>
<path d="M32.9285 30.6832C31.882 31.7432 30.7986 33.5985 30.7986 36.4014C30.7986 38.7113 31.521 40.5666 33.0013 42.081C34.5536 43.6337 36.2872 44.164 38.1636 44.164C40.6189 44.164 42.3526 43.2167 43.5076 42.0061C44.4464 41.0596 45.6014 39.2792 45.6014 36.3639C45.6014 33.7513 44.5902 31.82 43.5076 30.6843C42.3158 29.4726 40.4023 28.526 38.1996 28.526C35.997 28.526 34.2284 29.3208 32.9285 30.6843M47.5517 26.8206C49.8261 29.1306 51.3066 32.4628 51.3066 36.3631C51.3066 39.7328 50.1513 43.1793 47.5517 45.8294C45.3131 48.1011 42.2805 49.5402 38.2364 49.5402C33.7234 49.5402 30.6541 47.6475 28.8486 45.8294C26.5382 43.5571 25.0938 40.1497 25.0938 36.4381C25.0938 32.7264 26.646 29.1298 28.8126 26.8573C30.4377 25.1537 33.4342 23.1465 38.2364 23.1465C41.9914 23.1465 45.1327 24.3581 47.5517 26.8191" fill="#706A6A"/>
<path d="M61.5209 35.1884H62.8508C63.9152 35.1884 65.3597 35.0742 66.347 34.0894C66.7655 33.6733 67.2978 32.8785 67.2978 31.6285C67.2978 30.1893 66.6133 29.4328 66.1196 29.0534C65.1688 28.3338 63.6491 28.2588 62.8892 28.2588H61.5219V35.1884H61.5209ZM64.5605 23.7148C67.7907 23.7148 69.8041 24.7747 71.0202 25.9105C72.0838 26.9337 73.2244 28.7507 73.2244 31.5528C73.2244 33.1429 72.8821 35.1117 71.2486 36.7028C70.374 37.5351 69.1204 38.2932 67.7145 38.6341L75.5048 48.9719H68.3607L61.5201 39.0128V48.9719H55.668V23.7148H64.5605Z" fill="#706A6A"/>
<path d="M95.0828 28.6382H85.2935V33.5225H93.842V38.4459H85.2935V48.9729H79.4414V23.7158H95.0828V28.6382Z" fill="#706A6A"/>
<path d="M105.398 30.6832C104.352 31.7432 103.268 33.5985 103.268 36.4014C103.268 38.7113 103.991 40.5666 105.471 42.081C107.023 43.6337 108.756 44.164 110.633 44.164C113.088 44.164 114.821 43.2167 115.977 42.0061C116.916 41.0596 118.072 39.2792 118.072 36.3639C118.072 33.7513 117.061 31.82 115.977 30.6843C114.786 29.4726 112.872 28.526 110.67 28.526C108.468 28.526 106.699 29.3208 105.399 30.6843M120.02 26.8206C122.295 29.1306 123.775 32.4628 123.775 36.3631C123.775 39.7328 122.62 43.1793 120.02 45.8294C117.781 48.1011 114.749 49.5402 110.705 49.5402C106.191 49.5402 103.123 47.6475 101.317 45.8294C99.0059 43.5571 97.5625 40.1497 97.5625 36.4381C97.5625 32.7264 99.1156 29.1298 101.281 26.8573C102.906 25.1537 105.903 23.1465 110.705 23.1465C114.46 23.1465 117.601 24.3581 120.02 26.8191" fill="#706A6A"/>
</g>
</g>
<defs>
<clipPath id="clip0_324_13839">
<rect width="123.814" height="63.1536" fill="white"/>
</clipPath>
</defs>
</svg>
