<svg width="123" height="63" viewBox="0 0 123 63" fill="none" xmlns="http://www.w3.org/2000/svg">
<g clip-path="url(#clip0_390_11645)">
<mask id="mask0_390_11645" style="mask-type:luminance" maskUnits="userSpaceOnUse" x="0" y="0" width="123" height="63">
<path d="M123 0H0V62.6782H123V0Z" fill="white"/>
</mask>
<g mask="url(#mask0_390_11645)">
<path d="M2.54853 6.19281H1.09405V9.89098H0V0.214844H2.54853C4.44928 0.214844 6.03298 1.11865 6.03298 3.09635C6.03298 5.07407 4.54962 6.19281 2.54853 6.19281ZM2.47712 1.14657H1.09405V5.28902H2.47627C3.95966 5.28902 4.85223 4.58661 4.85223 3.12428C4.85223 1.76265 3.87293 1.14573 2.47627 1.14573L2.47712 1.14657Z" fill="#535353"/>
<path d="M10.6707 3.81343C10.4692 3.74233 10.1522 3.6848 9.76368 3.6848C9.08703 3.6848 8.53958 4.07153 8.17998 4.44474V9.89209H7.08594V2.8673H7.82041L8.02189 3.75588C8.3245 3.35476 8.94337 2.7666 9.85038 2.7666C10.3689 2.7666 10.6852 2.8673 10.743 2.88085L10.6707 3.81257V3.81343Z" fill="#535353"/>
<path d="M17.149 6.3651C17.149 8.73039 15.9971 10.0345 14.1108 10.0345C12.2245 10.0345 11.1016 8.75832 11.1016 6.3651C11.1016 4.30107 12.0809 2.72363 14.1108 2.72363C16.1408 2.72363 17.149 4.2723 17.149 6.3651ZM16.0261 6.3651C16.0261 4.5304 15.4072 3.54113 14.1108 3.54113C12.8145 3.54113 12.2101 4.57358 12.2101 6.3651C12.2101 8.15663 12.7142 9.21699 14.1108 9.21699C15.5075 9.21699 16.0261 8.24295 16.0261 6.3651Z" fill="#535353"/>
<path d="M20.979 9.84797L20.259 9.90553L17.9986 2.86719H19.2083C19.2083 2.86719 20.5335 7.13911 21.138 9.24629C21.7568 7.12473 23.0532 2.86719 23.0532 2.86719H24.1761L21.9158 9.82004C21.1813 12.0559 20.4468 12.7727 19.0935 12.7727C18.5036 12.7727 17.8116 12.457 17.5234 12.2133L17.8839 11.4821H17.9706C18.172 11.6395 18.6328 11.9264 19.1513 11.9264C19.9725 11.9264 20.4477 11.4398 20.894 10.1061L20.9807 9.84797H20.979Z" fill="#535353"/>
<path d="M25.9339 6.69428C25.9339 8.42826 26.8264 9.1882 28.1661 9.1882C29.0733 9.1882 29.8792 8.7727 30.355 8.48581L30.6289 9.26013C30.039 9.61896 29.1166 10.0345 28.0514 10.0345C26.1218 10.0345 24.8398 8.75829 24.8398 6.33546C24.8398 4.11405 25.9339 2.72363 27.8637 2.72363C29.7933 2.72363 30.6859 4.31545 30.6859 6.07819V6.69428H25.9339ZM27.8203 3.55465C26.4814 3.55465 25.9339 4.73011 25.9339 5.93434H29.6199C29.6199 4.71573 29.2023 3.55465 27.8203 3.55465Z" fill="#535353"/>
<path d="M37.3074 9.41839C36.8754 9.66213 35.982 10.0345 34.9604 10.0345C33.1742 10.0345 31.8789 8.98765 31.8789 6.37863C31.8789 3.99896 33.1888 2.72363 34.9604 2.72363C35.7671 2.72363 36.6307 2.89544 37.264 3.28303L36.9478 4.05735C36.4004 3.7417 35.7381 3.59868 35.0181 3.59868C33.7505 3.59868 32.9736 4.60234 32.9736 6.37949C32.9736 8.35804 33.7516 9.18905 35.0181 9.18905C35.8392 9.18905 36.5448 8.90219 37.0488 8.60175L37.3081 9.41839H37.3074Z" fill="#535353"/>
<path d="M40.8677 10.0346C39.8738 10.0346 39.0535 9.5328 39.0535 7.88428V3.65551H37.9883V2.86681H39.0535V1.59065L40.1477 1.24707V2.86681H42.2066V3.65551H40.1477V8.01292C40.1477 8.75847 40.4214 9.11644 41.0836 9.11644C41.4576 9.11644 41.976 8.93026 42.2066 8.81517L42.4223 9.61743C42.1199 9.80359 41.443 10.0338 40.8666 10.0338L40.8677 10.0346Z" fill="#535353"/>
<path d="M49.032 6.3651C49.032 8.73039 47.8801 10.0345 45.9938 10.0345C44.1073 10.0345 42.9844 8.75832 42.9844 6.3651C42.9844 4.30107 43.9637 2.72363 45.9938 2.72363C48.0237 2.72363 49.032 4.2723 49.032 6.3651ZM47.908 6.3651C47.908 4.5304 47.2891 3.54113 45.9928 3.54113C44.6965 3.54113 44.0922 4.57358 44.0922 6.3651C44.0922 8.15663 44.5962 9.21699 45.9928 9.21699C47.3897 9.21699 47.908 8.24295 47.908 6.3651Z" fill="#535353"/>
<path d="M57.6986 9.89147L57.5117 8.98851C57.0943 9.51911 56.331 10.0353 55.3373 10.0353C53.8971 10.0353 53.0625 9.07483 53.0625 7.88498C53.0625 6.69514 53.9551 5.8785 55.5541 5.8785H57.3826V5.31913C57.3826 4.1005 56.8496 3.5843 55.7844 3.5843C54.8918 3.5843 54.1719 3.81363 53.6532 4.04297L53.3652 3.25424C53.9269 3.01052 54.7618 2.72363 55.9281 2.72363C57.5984 2.72363 58.4476 3.58344 58.4476 5.26072V9.89061H57.6986V9.89147ZM57.3816 6.6232H55.7257C54.5304 6.6232 54.1277 7.13943 54.1277 7.84181C54.1277 8.68807 54.5884 9.24661 55.611 9.24661C56.302 9.24661 56.9643 8.84547 57.3816 8.37242V6.6232Z" fill="#535353"/>
<path d="M61.1672 10.3645V12.6156H60.0586V2.86751H60.9078L61.0805 3.69853C61.5701 3.15354 62.3191 2.72363 63.1393 2.72363C64.9389 2.72363 65.8323 3.9998 65.8323 6.3651C65.8323 8.73039 64.5939 10.0345 62.909 10.0345C62.059 10.0345 61.5124 9.73321 61.0081 9.23137C61.0081 9.23137 61.1664 9.91937 61.1664 10.3637L61.1672 10.3645ZM61.1672 8.45791C61.5991 8.90219 62.1898 9.21699 62.8375 9.21699C64.1194 9.21699 64.724 8.38597 64.724 6.3651C64.724 4.51602 64.191 3.56989 62.9098 3.56989C62.2188 3.56989 61.5845 3.95665 61.1672 4.38655V8.45791Z" fill="#535353"/>
<path d="M73.0474 6.3651C73.0474 8.73039 71.8954 10.0345 70.0092 10.0345C68.1229 10.0345 67 8.75832 67 6.3651C67 4.30107 67.9793 2.72363 70.0092 2.72363C72.0391 2.72363 73.0474 4.2723 73.0474 6.3651ZM71.9244 6.3651C71.9244 4.5304 71.3055 3.54113 70.0092 3.54113C68.7129 3.54113 68.1086 4.57358 68.1086 6.3651C68.1086 8.15663 68.6126 9.21699 70.0092 9.21699C71.4058 9.21699 71.9244 8.24295 71.9244 6.3651Z" fill="#535353"/>
<path d="M76.8774 9.84797L76.1574 9.90553L73.8969 2.86719H75.1065C75.1065 2.86719 76.4319 7.13911 77.0364 9.24629C77.6551 7.12473 78.9514 2.86719 78.9514 2.86719H80.0746L77.8141 9.82004C77.0798 12.0559 76.3451 12.7727 74.9919 12.7727C74.402 12.7727 73.7099 12.457 73.4219 12.2133L73.7823 11.4821H73.869C74.0703 11.6395 74.5312 11.9264 75.0496 11.9264C75.8709 11.9264 76.3459 11.4398 76.7922 10.1061L76.8789 9.84797H76.8774Z" fill="#535353"/>
<path d="M85.1872 9.89147L85.0002 8.98851C84.5826 9.51911 83.8193 10.0353 82.8256 10.0353C81.3857 10.0353 80.5508 9.07483 80.5508 7.88498C80.5508 6.69514 81.4434 5.8785 83.0424 5.8785H84.8709V5.31913C84.8709 4.1005 84.3379 3.5843 83.2727 3.5843C82.3801 3.5843 81.6601 3.81363 81.1418 4.04297L80.8534 3.25424C81.4154 3.01052 82.2501 2.72363 83.4163 2.72363C85.0869 2.72363 85.9361 3.58344 85.9361 5.26072V9.89061H85.1872V9.89147ZM84.8701 6.6232H83.2142C82.0189 6.6232 81.616 7.13943 81.616 7.84181C81.616 8.68807 82.0767 9.24661 83.0993 9.24661C83.7906 9.24661 84.4526 8.84547 84.8701 8.37242V6.6232Z" fill="#535353"/>
<path d="M92.1995 9.04565C91.7966 9.57626 91.0043 10.0349 90.1686 10.0349C88.4983 10.0349 87.332 8.80194 87.332 6.36555C87.332 4.22961 88.397 2.72411 90.2835 2.72411C91.1615 2.72411 91.7668 3.011 92.1698 3.32579C92.1264 2.95344 92.1118 2.59463 92.1118 2.17912V0H93.206V9.89108H92.3847L92.1977 9.04482L92.1995 9.04565ZM92.1128 4.05697C91.7812 3.82763 91.1913 3.55513 90.3989 3.55513C89.0739 3.55513 88.4403 4.58672 88.4403 6.36472C88.4403 8.1427 89.0023 9.2166 90.3269 9.2166C90.9601 9.2166 91.5365 8.94495 92.1128 8.32803V4.05611V4.05697Z" fill="#535353"/>
<path d="M100.653 6.3651C100.653 8.73039 99.5009 10.0345 97.6147 10.0345C95.7284 10.0345 94.6055 8.75832 94.6055 6.3651C94.6055 4.30107 95.5848 2.72363 97.6147 2.72363C99.6445 2.72363 100.653 4.2723 100.653 6.3651ZM99.5299 6.3651C99.5299 4.5304 98.911 3.54113 97.6147 3.54113C96.3183 3.54113 95.7138 4.57358 95.7138 6.3651C95.7138 8.15663 96.218 9.21699 97.6147 9.21699C99.0113 9.21699 99.5299 8.24295 99.5299 6.3651Z" fill="#535353"/>
<path d="M106.066 10.3645V12.6156H104.957V2.86751H105.806L105.979 3.69853C106.469 3.15354 107.218 2.72363 108.038 2.72363C109.837 2.72363 110.731 3.9998 110.731 6.3651C110.731 8.73039 109.492 10.0345 107.807 10.0345C106.957 10.0345 106.411 9.73321 105.907 9.23137C105.907 9.23137 106.065 9.91937 106.065 10.3637L106.066 10.3645ZM106.066 8.45791C106.498 8.90219 107.088 9.21699 107.736 9.21699C109.018 9.21699 109.622 8.38597 109.622 6.3651C109.622 4.51602 109.089 3.56989 107.808 3.56989C107.117 3.56989 106.483 3.95665 106.066 4.38655V8.45791Z" fill="#535353"/>
<path d="M117.946 6.3651C117.946 8.73039 116.794 10.0345 114.908 10.0345C113.021 10.0345 111.898 8.75832 111.898 6.3651C111.898 4.30107 112.878 2.72363 114.908 2.72363C116.938 2.72363 117.946 4.2723 117.946 6.3651ZM116.823 6.3651C116.823 4.5304 116.204 3.54113 114.908 3.54113C113.611 3.54113 113.007 4.57358 113.007 6.3651C113.007 8.15663 113.511 9.21699 114.908 9.21699C116.304 9.21699 116.823 8.24295 116.823 6.3651Z" fill="#535353"/>
<path d="M122.929 3.81343C122.727 3.74233 122.41 3.6848 122.021 3.6848C121.345 3.6848 120.797 4.07153 120.438 4.44474V9.89209H119.344V2.8673H120.078L120.279 3.75588C120.582 3.35476 121.201 2.7666 122.108 2.7666C122.627 2.7666 122.943 2.8673 123.001 2.88085L122.929 3.81257V3.81343Z" fill="#535353"/>
<path d="M22.9699 57.1611H0.0390625V62.6786H22.9699V57.1611Z" fill="#706A6A"/>
<path d="M51.0177 57.1592H22.9688V62.6769H51.0177V57.1592Z" fill="#535353"/>
<path d="M16.3877 43.6487C15.887 43.7273 15.4186 43.7561 14.9885 43.7561C11.5831 43.7561 9.27599 42.1777 8.69452 41.6513C7.44917 40.5614 6.28626 38.72 6.28626 36.1271C6.28626 33.7219 7.36586 31.6925 8.90281 30.3394C10.3564 29.0616 12.5394 28.3854 14.8644 28.3854C15.4458 28.3854 15.9941 28.4379 16.511 28.5311C17.9136 28.7154 19.4947 29.1258 21.3428 29.885V24.3649C18.643 23.3121 16.5254 22.9736 14.6986 22.9736C10.3794 22.9736 6.80821 24.4394 4.35829 26.5813C1.86673 28.7612 0.0390625 32.0683 0.0390625 36.0145C0.0390625 39.9606 1.86587 43.3431 4.35829 45.5231C6.68411 47.5896 10.1303 49.1678 15.2384 49.1678C16.8995 49.1678 18.8929 48.9428 21.3428 47.8146V42.2794C19.4403 43.0604 17.8209 43.4726 16.3877 43.6487Z" fill="#706A6A"/>
<path d="M32.709 30.4517C31.6694 31.5037 30.5932 33.345 30.5932 36.1268C30.5932 38.4193 31.3108 40.2607 32.7813 41.7637C34.3234 43.3046 36.0457 43.831 37.9097 43.831C40.3488 43.831 42.0708 42.8908 43.2186 41.6893C44.1511 40.7499 45.2986 38.9829 45.2986 36.0896C45.2986 33.4966 44.294 31.5799 43.2186 30.4527C42.0345 29.2501 40.1336 28.3107 37.9455 28.3107C35.7574 28.3107 34.0004 29.0995 32.709 30.4527M47.236 26.6182C49.4955 28.9107 50.9663 32.2179 50.9663 36.0888C50.9663 39.4331 49.8185 42.8536 47.236 45.4838C45.0121 47.7384 41.9995 49.1667 37.9821 49.1667C33.4987 49.1667 30.4496 47.2882 28.656 45.4838C26.3608 43.2287 24.9258 39.8469 24.9258 36.1632C24.9258 32.4795 26.4679 28.91 28.6202 26.6546C30.2346 24.9638 33.2114 22.9717 37.9821 22.9717C41.7123 22.9717 44.833 24.1742 47.236 26.6166" fill="#706A6A"/>
<path d="M61.1113 34.9243H62.4324C63.4898 34.9243 64.9248 34.8109 65.9057 33.8336C66.3214 33.4206 66.8503 32.6318 66.8503 31.3912C66.8503 29.9629 66.1702 29.212 65.6798 28.8354C64.7352 28.1213 63.2255 28.0469 62.4706 28.0469H61.1121V34.9243H61.1113ZM64.1309 23.5371C67.3399 23.5371 69.34 24.589 70.5481 25.7162C71.6047 26.7317 72.7378 28.5351 72.7378 31.316C72.7378 32.8942 72.3978 34.8481 70.775 36.4273C69.9062 37.2533 68.6608 38.0057 67.2642 38.3441L75.0033 48.604H67.9061L61.1105 38.7199V48.604H55.2969V23.5371H64.1309Z" fill="#706A6A"/>
<path d="M94.4564 28.4224H84.7316V33.27H93.2238V38.1563H84.7316V48.604H78.918V23.5371H94.4564V28.4224Z" fill="#706A6A"/>
<path d="M104.706 30.4517C103.666 31.5037 102.59 33.345 102.59 36.1268C102.59 38.4193 103.308 40.2607 104.778 41.7637C106.32 43.3046 108.042 43.831 109.907 43.831C112.345 43.831 114.067 42.8908 115.215 41.6893C116.148 40.7499 117.297 38.9829 117.297 36.0896C117.297 33.4966 116.292 31.5799 115.215 30.4527C114.032 29.2501 112.131 28.3107 109.943 28.3107C107.756 28.3107 105.998 29.0995 104.707 30.4527M119.232 26.6182C121.492 28.9107 122.962 32.2179 122.962 36.0888C122.962 39.4331 121.815 42.8536 119.232 45.4838C117.007 47.7384 113.996 49.1667 109.978 49.1667C105.494 49.1667 102.446 47.2882 100.652 45.4838C98.3558 43.2287 96.9219 39.8469 96.9219 36.1632C96.9219 32.4795 98.4647 28.91 100.616 26.6546C102.23 24.9638 105.208 22.9717 109.978 22.9717C113.708 22.9717 116.829 24.1742 119.232 26.6166" fill="#706A6A"/>
</g>
</g>
<defs>
<clipPath id="clip0_390_11645">
<rect width="123" height="62.6782" fill="white"/>
</clipPath>
</defs>
</svg>
