<svg width="145" height="73" viewBox="0 0 145 73" fill="none" xmlns="http://www.w3.org/2000/svg">
<path d="M66.4213 -0.972656H5.16939C2.32952 -0.972656 0.0273438 1.32909 0.0273438 4.16845C0.0273438 7.0078 2.32952 9.30955 5.16939 9.30955H66.4213C69.2612 9.30955 71.5633 7.0078 71.5633 4.16845C71.5633 1.32909 69.2612 -0.972656 66.4213 -0.972656Z" fill="#112C29"/>
<path d="M134.53 43.3262L128.639 37.4348C127.653 36.4488 126.053 36.4488 125.067 37.4348L119.176 43.3262C118.702 43.7994 118.436 44.4417 118.436 45.1122C118.436 47.3639 121.157 48.4907 122.749 46.8982L124.656 44.992V55.0789C124.656 65.7555 120.578 69.7012 112.82 69.7012V73.9512C123.67 74.4207 129.116 67.1809 129.116 55.0789V45.0539L130.96 46.8982C132.551 48.4907 135.274 47.3639 135.274 45.1122C135.274 44.4417 135.007 43.7994 134.534 43.3262H134.53Z" fill="#112C29"/>
<path d="M56.4227 69.6919H0.0273438V73.9494H56.4227V69.6919Z" fill="#65676B"/>
<path d="M112.817 69.6919H56.4219V73.9494H112.817V69.6919Z" fill="#112C29"/>
<path d="M88.8047 5.91594L89.4395 11.3153C89.9785 15.9014 94.1477 19.1955 98.7357 18.6565L106.894 17.6968C103.846 16.2545 99.1113 13.9708 97.5507 12.9642C93.712 10.4908 90.6189 7.70007 88.8047 5.91406V5.91594Z" fill="#112C29"/>
<path d="M99.5506 5.10845C96.3598 5.1122 92.9568 4.5995 90.6562 4.16943C92.446 5.90661 95.372 8.51331 98.9064 10.7914C100.614 11.8919 106.629 14.7484 109.363 16.0311L108.941 12.444C108.36 7.50106 105.288 5.10281 99.5487 5.11032L99.5506 5.10845Z" fill="#112C29"/>
<path d="M144.142 4.08684L144.893 8.15653C145.529 11.614 143.236 14.9456 139.779 15.5823L133.613 16.9419C135.508 15.2085 138.453 12.2581 139.364 11.1764C141.601 8.51523 143.223 5.79021 144.143 4.08496L144.142 4.08684Z" fill="#112C29"/>
<path d="M135.568 6.63552C137.889 5.92187 140.25 4.78566 141.827 3.95557C140.915 5.62138 139.371 8.17362 137.313 10.6244C136.319 11.8076 132.683 14.8763 130.98 16.4238L130.383 14.0781C129.695 10.3521 131.393 7.91821 135.57 6.63552H135.568Z" fill="#112C29"/>
<path d="M0.769531 13.7529H4.83735C8.6197 13.7529 11.1644 16.0648 11.1644 20.0443C11.1644 24.0239 8.6197 26.3526 4.83735 26.3526H0.769531V13.7529ZM4.71339 25.2427C7.81402 25.2427 9.87421 23.4154 9.87421 20.0443C9.87421 16.6733 7.79524 14.8647 4.71339 14.8647H2.00717V25.2427H4.71339Z" fill="#65676B"/>
<path d="M17.5781 17.1221C20.0684 17.1221 21.3417 19.0395 21.3417 21.28C21.3417 21.496 21.306 21.9073 21.306 21.9073H14.3873C14.4399 24.2191 16.0174 25.4737 17.8823 25.4737C19.5312 25.4737 20.6243 24.3806 20.6243 24.3806L21.1802 25.3122C21.1802 25.3122 19.8731 26.5667 17.8467 26.5667C15.1573 26.5667 13.1328 24.6304 13.1328 21.8528C13.1328 18.8968 15.1404 17.1221 17.5781 17.1221ZM20.1059 20.9044C20.0346 19.0226 18.8871 18.1437 17.5424 18.1437C16.0362 18.1437 14.7291 19.094 14.4418 20.9044H20.1059Z" fill="#65676B"/>
<path d="M23.6864 24.3826C23.6864 24.3826 24.6893 25.4756 26.3739 25.4756C27.3429 25.4756 28.1843 24.9911 28.1843 24.0427C28.1843 22.0708 23.3277 22.5553 23.3277 19.6162C23.3277 18.0029 24.7794 17.124 26.4095 17.124C28.3101 17.124 29.1871 18.11 29.1871 18.11L28.6312 19.0415C28.6312 19.0415 27.8613 18.217 26.3739 18.217C25.4611 18.217 24.5822 18.6114 24.5822 19.6143C24.5822 21.6031 29.4388 21.066 29.4388 24.0408C29.4388 25.5094 28.1674 26.5668 26.3569 26.5668C24.1709 26.5668 23.0234 25.2578 23.0234 25.2578L23.6864 24.3807V24.3826Z" fill="#65676B"/>
<path d="M36.5742 20.7786H37.0757V20.5457C37.0757 18.8067 36.1254 18.2151 34.8352 18.2151C33.3478 18.2151 32.2904 19.0752 32.2904 19.0752L31.7176 18.1437C31.7176 18.1437 32.9008 17.1221 34.9253 17.1221C37.0944 17.1221 38.2964 18.324 38.2964 20.5814V26.3526H37.1301V25.3666C37.1301 24.9178 37.1658 24.6135 37.1658 24.6135H37.1301C37.1301 24.6135 36.377 26.5667 34.1196 26.5667C32.6135 26.5667 31.0547 25.6878 31.0547 23.8961C31.0547 20.8481 35.0155 20.7767 36.5742 20.7767V20.7786ZM34.3149 25.5281C36.0352 25.5281 37.0757 23.7346 37.0757 22.1758V21.7815H36.5554C35.1394 21.7815 32.3073 21.8359 32.3073 23.8248C32.3073 24.6661 32.9703 25.5281 34.3149 25.5281Z" fill="#65676B"/>
<path d="M41.1953 17.3382H42.3954V18.9326C42.3954 19.327 42.3597 19.65 42.3597 19.65H42.3954C42.8254 18.2885 43.8302 17.248 45.2444 17.248C45.496 17.248 45.7289 17.3006 45.7289 17.3006V18.5026C45.7289 18.5026 45.5129 18.4669 45.28 18.4669C44.0086 18.4669 43.0583 19.4698 42.6639 20.7975C42.4855 21.3703 42.4142 21.9807 42.4142 22.5535V26.3527H41.1953V17.3382Z" fill="#65676B"/>
<path d="M47.6641 17.3382H48.8641V18.9326C48.8641 19.327 48.8284 19.65 48.8284 19.65H48.8641C49.2942 18.2885 50.2989 17.248 51.7131 17.248C51.9647 17.248 52.1976 17.3006 52.1976 17.3006V18.5026C52.1976 18.5026 51.9817 18.4669 51.7488 18.4669C50.4773 18.4669 49.5271 19.4698 49.1327 20.7975C48.9543 21.3703 48.8829 21.9807 48.8829 22.5535V26.3527H47.6641V17.3382Z" fill="#65676B"/>
<path d="M58.2371 17.1221C60.8719 17.1221 63.0035 19.1297 63.0035 21.8002C63.0035 24.4708 60.8719 26.5686 58.2371 26.5686C55.6022 26.5686 53.4688 24.5253 53.4688 21.8002C53.4688 19.0752 55.6003 17.1221 58.2371 17.1221ZM58.2371 25.4755C60.1733 25.4755 61.749 23.8999 61.749 21.8021C61.749 19.7044 60.1714 18.2357 58.2371 18.2357C56.3027 18.2357 54.7252 19.7588 54.7252 21.8021C54.7252 23.8454 56.3008 25.4755 58.2371 25.4755Z" fill="#65676B"/>
<path d="M65.2734 13.7529H66.4923V23.9505C66.4923 25.1337 67.0313 25.3121 67.4951 25.3121C67.6566 25.3121 67.8013 25.2933 67.8013 25.2933V26.3864C67.8013 26.3864 67.5853 26.422 67.3524 26.422C66.5993 26.422 65.2734 26.1892 65.2734 24.2172V13.751V13.7529Z" fill="#65676B"/>
<path d="M69.793 13.7529H71.0118V23.9505C71.0118 25.1337 71.5508 25.3121 72.0147 25.3121C72.1762 25.3121 72.3208 25.2933 72.3208 25.2933V26.3864C72.3208 26.3864 72.1048 26.422 71.872 26.422C71.1189 26.422 69.793 26.1892 69.793 24.2172V13.751V13.7529Z" fill="#65676B"/>
<path d="M78.8894 17.1221C81.5243 17.1221 83.6558 19.1297 83.6558 21.8002C83.6558 24.4708 81.5243 26.5686 78.8894 26.5686C76.2545 26.5686 74.1211 24.5253 74.1211 21.8002C74.1211 19.0752 76.2527 17.1221 78.8894 17.1221ZM78.8894 25.4755C80.8257 25.4755 82.4013 23.8999 82.4013 21.8021C82.4013 19.7044 80.8238 18.2357 78.8894 18.2357C76.955 18.2357 75.3775 19.7588 75.3775 21.8021C75.3775 23.8454 76.9532 25.4755 78.8894 25.4755Z" fill="#65676B"/>
<path d="M0.933594 30.6499H7.01465C9.86174 30.6499 11.7867 32.7383 11.7867 35.6887C11.7867 38.639 9.86174 40.7668 7.01465 40.7668H4.51689V45.291H0.933594V30.6499ZM6.2766 37.6944C7.52549 37.6944 8.13959 36.8549 8.13959 35.6887C8.13959 34.5224 7.52548 33.7224 6.33857 33.7224H4.51689V37.6944H6.27848H6.2766Z" fill="#65676B"/>
<path d="M13.918 34.7456H17.3172V36.5278C17.3172 36.8753 17.2759 37.1833 17.2759 37.1833H17.3172C17.7679 35.7503 19.0976 34.5615 20.6751 34.5615C20.8798 34.5615 21.0845 34.6028 21.0845 34.6028V38.0847C21.0845 38.0847 20.7972 38.0227 20.3671 38.0227C19.5277 38.0227 18.1567 38.2894 17.644 39.867C17.52 40.2557 17.4599 40.7271 17.4599 41.2999V45.2926H13.918V34.7474V34.7456Z" fill="#65676B"/>
<path d="M28.3145 34.4995C31.6517 34.4995 34.3147 36.7325 34.3147 40.0491C34.3147 43.3657 31.6536 45.5367 28.3351 45.5367C25.0166 45.5367 22.3555 43.3469 22.3555 40.0491C22.3555 36.7513 25.0185 34.4995 28.3145 34.4995ZM28.3351 42.5882C29.6253 42.5882 30.7296 41.6266 30.7296 40.0491C30.7296 38.4716 29.6234 37.448 28.3351 37.448C27.0468 37.448 25.9387 38.4509 25.9387 40.0491C25.9387 41.6473 27.0449 42.5882 28.3351 42.5882Z" fill="#65676B"/>
<path d="M40.6631 34.4994C42.7928 34.4994 43.4275 35.3389 43.4275 35.3389H43.4688C43.4688 35.3389 43.4482 35.1342 43.4482 34.8694V30.6514H46.9901V45.2925H43.6736V44.5957C43.6736 44.2671 43.6942 44.0023 43.6942 44.0023H43.6529C43.6529 44.0023 42.7721 45.5385 40.603 45.5385C37.7371 45.5385 35.8516 43.2867 35.8516 40.0096C35.8516 36.7324 37.8573 34.5013 40.6631 34.5013V34.4994ZM41.4819 42.6088C42.5467 42.6088 43.5496 41.8313 43.5496 40.0077C43.5496 38.7382 42.8735 37.4893 41.4819 37.4893C40.3757 37.4893 39.4142 38.3907 39.4142 40.0077C39.4142 41.6247 40.2537 42.6088 41.4819 42.6088Z" fill="#65676B"/>
<path d="M49.8808 34.7455H53.4227V40.9299C53.4227 41.9121 53.8115 42.3215 54.5477 42.3215C56.0633 42.3215 56.7807 40.99 56.7807 39.4143V34.7455H60.3226V45.2907H56.9234V44.3685C56.9234 44.0211 56.9647 43.7131 56.9647 43.7131H56.9234C56.3506 44.8399 55.0397 45.5348 53.6256 45.5348C51.5372 45.5348 49.8789 44.5526 49.8789 41.5834V34.7437L49.8808 34.7455Z" fill="#65676B"/>
<path d="M68.4565 34.4995C71.3224 34.4995 72.6539 36.0958 72.6539 36.0958L71.159 38.4715C71.159 38.4715 70.1355 37.448 68.6819 37.448C67.0029 37.448 66.1634 38.7176 66.1634 39.9665C66.1634 41.2154 67.0236 42.5882 68.8058 42.5882C70.2801 42.5882 71.6924 41.3186 71.6924 41.3186L72.9826 43.7958C72.9826 43.7958 71.405 45.5367 68.4584 45.5367C64.6911 45.5367 62.582 42.915 62.582 40.0078C62.582 37.1006 64.6704 34.4995 68.4584 34.4995H68.4565Z" fill="#65676B"/>
<path d="M75.5826 37.694H74.2305V34.9296H75.6841V31.8984H79.1246V34.9296H81.335V37.694H79.1246V40.9299C79.1246 42.1168 80.3322 42.2821 81.0083 42.2821C81.2956 42.2821 81.4778 42.2614 81.4778 42.2614V45.332C81.4778 45.332 81.089 45.3939 80.5162 45.3939C78.8373 45.3939 75.5808 44.9432 75.5808 41.4013V37.6959L75.5826 37.694Z" fill="#65676B"/>
<path d="M83.9609 34.7459H87.5029V45.291H83.9609V34.7459ZM84.0022 30.6499H87.4634V33.4144H84.0022V30.6499Z" fill="#65676B"/>
<path d="M89.1855 34.7456H92.9115L94.5491 40.3572C94.7538 41.0332 94.9379 42.1788 94.9379 42.1788H94.9792C94.9792 42.1788 95.1632 41.052 95.368 40.3572L96.9849 34.7456H100.732L97.1483 45.2907H92.827L89.1836 34.7456H89.1855Z" fill="#65676B"/>
<path d="M107.635 34.4995C110.972 34.4995 113.635 36.7325 113.635 40.0491C113.635 43.3657 110.974 45.5367 107.655 45.5367C104.337 45.5367 101.676 43.3469 101.676 40.0491C101.676 36.7513 104.339 34.4995 107.635 34.4995ZM107.655 42.5882C108.946 42.5882 110.05 41.6266 110.05 40.0491C110.05 38.4716 108.944 37.448 107.655 37.448C106.367 37.448 105.259 38.4509 105.259 40.0491C105.259 41.6473 106.365 42.5882 107.655 42.5882Z" fill="#65676B"/>
<path d="M1.05733 60.8838C1.05733 60.8838 2.46962 62.3149 4.44718 62.3149C5.69044 62.3149 6.74589 61.6181 6.74589 60.3561C6.74589 57.4752 0.30236 58.0968 0.30236 54.0083C0.30236 51.9369 2.09212 50.2974 4.59741 50.2974C7.1027 50.2974 8.36475 51.6345 8.36475 51.6345L7.51587 53.1801C7.51587 53.1801 6.29139 52.0308 4.59553 52.0308C3.18325 52.0308 2.18415 52.9153 2.18415 53.9708C2.18415 56.7221 8.62768 55.9878 8.62768 60.3016C8.62768 62.3543 7.04636 64.0502 4.40773 64.0502C1.58129 64.0502 0 62.298 0 62.298L1.05545 60.8857L1.05733 60.8838Z" fill="#65676B"/>
<path d="M17.6192 50.2959C21.4616 50.2959 24.4383 53.2538 24.4383 57.0775C24.4383 60.9011 21.4616 64.0487 17.6192 64.0487C13.7767 64.0487 10.7812 60.9969 10.7812 57.0775C10.7812 53.158 13.7767 50.2959 17.6192 50.2959ZM17.6192 62.3341C20.3329 62.3341 22.517 60.0729 22.517 57.0775C22.517 54.082 20.3329 51.9918 17.6192 51.9918C14.9054 51.9918 12.7025 54.1759 12.7025 57.0775C12.7025 59.979 14.9073 62.3341 17.6192 62.3341Z" fill="#65676B"/>
<path d="M27.569 60.8838C27.569 60.8838 28.9813 62.3149 30.9589 62.3149C32.2021 62.3149 33.2576 61.6181 33.2576 60.3561C33.2576 57.4752 26.8141 58.0968 26.8141 54.0083C26.8141 51.9369 28.6038 50.2974 31.1091 50.2974C33.6144 50.2974 34.8764 51.6345 34.8764 51.6345L34.0276 53.1801C34.0276 53.1801 32.8031 52.0308 31.1072 52.0308C29.695 52.0308 28.6959 52.9153 28.6959 53.9708C28.6959 56.7221 35.1394 55.9878 35.1394 60.3016C35.1394 62.3543 33.5562 64.0502 30.9194 64.0502C28.093 64.0502 26.5117 62.298 26.5117 62.298L27.5672 60.8857L27.569 60.8838Z" fill="#65676B"/>
<path d="M41.0424 52.1417H36.4844V50.521H47.4671V52.1417H42.9072V63.8212H41.0424V52.1417Z" fill="#65676B"/>
<path d="M49.7461 50.5229H57.4704V52.1437H51.611V56.3073H56.3774V57.928H51.611V62.2043H57.7897V63.825H49.7461V50.5248V50.5229Z" fill="#65676B"/>
<path d="M60.918 50.5229H62.7641L68.6799 59.1694C69.17 59.8849 69.7917 61.0906 69.7917 61.0906H69.8292C69.8292 61.0906 69.6978 59.9037 69.6978 59.1694V50.5229H71.5626V63.8231H69.7353L63.8007 55.1955C63.3106 54.4612 62.689 53.2555 62.689 53.2555H62.6514C62.6514 53.2555 62.7829 54.4424 62.7829 55.1955V63.8231H60.918V50.5229Z" fill="#65676B"/>
<path d="M75.5586 50.5229H77.4235V63.8231H75.5586V50.5229Z" fill="#65676B"/>
<path d="M81.4198 50.5229H86.0736C88.316 50.5229 89.9348 51.7661 89.9348 53.9127C89.9348 55.2123 89.2944 56.249 88.2765 56.7767V56.8143C89.67 57.2293 90.4607 58.5477 90.4607 60.0351C90.4607 62.5404 88.5207 63.8212 86.1844 63.8212H81.418V50.521L81.4198 50.5229ZM86.0755 56.1175C87.2812 56.1175 88.0343 55.2705 88.0343 54.1024C88.0343 52.9343 87.3187 52.1436 86.0379 52.1436H83.2885V56.1175H86.0773H86.0755ZM86.2821 62.2023C87.7131 62.2023 88.562 61.299 88.562 59.9412C88.562 58.5834 87.6587 57.6613 86.2633 57.6613H83.2866V62.2023H86.2821Z" fill="#65676B"/>
<path d="M93.7422 50.5229H95.6071V62.2024H101.559V63.8231H93.7422V50.5229Z" fill="#65676B"/>
<path d="M104.086 50.5229H111.81V52.1437H105.951V56.3073H110.717V57.928H105.951V62.2043H112.13V63.825H104.086V50.5248V50.5229Z" fill="#65676B"/>
<path d="M126.162 34.5823C125.702 34.5504 125.304 34.2405 125.131 33.786C121.606 24.4785 119.57 21.7422 110.67 19.0811L108.727 18.5684L111.378 17.2012C119.001 19.2238 122.34 21.4981 125.246 27.2881C125.601 24.3546 126.649 21.0136 129.263 18.4407L129.864 17.8491L132.345 18.2829L132.339 18.2886C130.055 20.5347 128.75 23.3574 127.939 26.4542C126.955 30.2197 127.377 33.1156 127.389 33.1738C127.514 33.7804 127.146 34.3814 126.547 34.5429C126.419 34.5767 126.288 34.5898 126.162 34.5805V34.5823Z" fill="#65676B"/>
<path d="M8.58187 3.56267C8.58187 4.76273 7.69356 5.46512 6.27941 5.46512H4.83519V7.17225H4.13281V1.66211H6.27941C7.69356 1.66211 8.58187 2.3551 8.58187 3.56455V3.56267ZM7.87947 3.56267C7.87947 2.7138 7.3048 2.24617 6.24184 2.24617H4.83707V4.87917H6.24184C7.3048 4.87917 7.87947 4.40215 7.87947 3.56267Z" fill="white"/>
<path d="M15.8783 7.17029L14.6294 5.435C14.5036 5.44439 14.3758 5.45378 14.2481 5.45378H12.8039V7.17029H12.1016V1.66016H14.2463C15.6604 1.66016 16.5487 2.35315 16.5487 3.5626C16.5487 4.42086 16.0811 5.02558 15.2905 5.2979L16.637 7.17029H15.8764H15.8783ZM15.8501 3.5626C15.8501 2.71373 15.2754 2.2461 14.2106 2.2461H12.8058V4.8791H14.2106C15.2735 4.8791 15.8501 4.40208 15.8501 3.5626Z" fill="white"/>
<path d="M19.5859 4.40974C19.5859 2.80027 20.8536 1.59082 22.542 1.59082C24.2303 1.59082 25.4961 2.80027 25.4961 4.40974C25.4961 6.01921 24.2378 7.22867 22.542 7.22867C20.8461 7.22867 19.5859 6.0286 19.5859 4.40974ZM24.7937 4.42101C24.7937 3.14395 23.8284 2.20681 22.5401 2.20681C21.2517 2.20681 20.2864 3.14395 20.2864 4.42101C20.2864 5.69807 21.2517 6.62582 22.5401 6.62582C23.8284 6.62582 24.7937 5.68868 24.7937 4.42101Z" fill="white"/>
<path d="M32.7624 4.40974H33.4347V6.52628C32.9183 6.98452 32.1558 7.22867 31.3764 7.22867C29.6505 7.22867 28.3828 6.0286 28.3828 4.40974C28.3828 2.79088 29.6505 1.59082 31.3482 1.59082C32.2459 1.59082 32.9765 1.86314 33.4741 2.40964L33.0253 2.86788C32.5671 2.40964 32.0112 2.20494 31.3576 2.20494C30.0505 2.20494 29.0852 3.14207 29.0852 4.40974C29.0852 5.67741 30.0505 6.61455 31.3877 6.61455C31.906 6.61455 32.3623 6.49811 32.7642 6.22392V4.40974H32.7624Z" fill="white"/>
<path d="M41.0267 7.17029L39.7778 5.435C39.652 5.44439 39.5243 5.45378 39.3966 5.45378H37.9524V7.17029H37.25V1.66016H39.3947C40.8089 1.66016 41.6972 2.35315 41.6972 3.5626C41.6972 4.42086 41.2295 5.02558 40.4389 5.2979L41.7854 7.17029H41.0248H41.0267ZM40.9967 3.5626C40.9967 2.71373 40.422 2.2461 39.3572 2.2461H37.9524V4.8791H39.3572C40.4201 4.8791 40.9967 4.40208 40.9967 3.5626Z" fill="white"/>
<path d="M48.7229 5.74675H45.6317L44.9875 7.17029H44.2852L46.8299 1.66016H47.521L50.0657 7.17029H49.3633L48.7192 5.74675H48.7229ZM48.4694 5.18146L47.1829 2.3231L45.8852 5.18146H48.4694Z" fill="white"/>
<path d="M58.2859 7.17029V2.92783L56.1788 6.4773H55.8576L53.7505 2.98604V7.17029H53.0781V1.66016H53.6828L56.0229 5.60965L58.3535 1.66016H58.9582L58.9676 7.17029H58.284H58.2859Z" fill="white"/>
<path d="M66.4026 5.74675H63.3114L62.6672 7.17029H61.9648L64.5096 1.66016H65.2026L67.7473 7.17029H67.0449L66.4007 5.74675H66.4026ZM66.1472 5.18146L64.8607 2.3231L63.563 5.18146H66.1472Z" fill="white"/>
</svg>
