<svg width="145" height="75" viewBox="0 0 145 75" fill="none" xmlns="http://www.w3.org/2000/svg">
<path d="M66.4213 0H5.16939C2.32951 0 0.0273438 2.30175 0.0273438 5.1411C0.0273438 7.98046 2.32951 10.2822 5.16939 10.2822H66.4213C69.2612 10.2822 71.5633 7.98046 71.5633 5.1411C71.5633 2.30175 69.2612 0 66.4213 0Z" fill="#00B881"/>
<path d="M134.53 44.2988L128.639 38.4074C127.653 37.4215 126.053 37.4215 125.067 38.4074L119.176 44.2988C118.702 44.7721 118.436 45.4144 118.436 46.0848C118.436 48.3366 121.157 49.4634 122.749 47.8708L124.656 45.9646V56.0515C124.656 66.7281 120.578 70.6739 112.82 70.6739V74.9238C123.67 75.3933 129.116 68.1535 129.116 56.0515V46.0266L130.96 47.8708C132.551 49.4634 135.274 48.3366 135.274 46.0848C135.274 45.4144 135.007 44.7721 134.534 44.2988H134.53Z" fill="#00B881"/>
<path d="M56.4227 70.665H0.0273438V74.9225H56.4227V70.665Z" fill="#0065B4"/>
<path d="M112.817 70.665H56.4219V74.9225H112.817V70.665Z" fill="#FB002F"/>
<path d="M88.8047 6.88859L89.4395 12.2879C89.9785 16.8741 94.1477 20.1681 98.7357 19.6291L106.894 18.6695C103.846 17.2271 99.1113 14.9435 97.5507 13.9368C93.712 11.4635 90.6189 8.67272 88.8047 6.88672V6.88859Z" fill="#00B881"/>
<path d="M99.5545 6.08159C96.3637 6.08535 92.9607 5.57265 90.6602 5.14258C92.4499 6.87975 95.3759 9.48645 98.9103 11.7645C100.617 12.865 106.633 15.7215 109.367 17.0042L108.945 13.4172C108.364 8.4742 105.292 6.07595 99.5526 6.08347L99.5545 6.08159Z" fill="#00B881"/>
<path d="M144.142 5.0595L144.893 9.12918C145.529 12.5866 143.236 15.9183 139.779 16.5549L133.613 17.9146C135.508 16.1812 138.453 13.2308 139.364 12.1491C141.601 9.48789 143.223 6.76287 144.143 5.05762L144.142 5.0595Z" fill="#00B881"/>
<path d="M135.568 7.60769C137.889 6.89403 140.25 5.75782 141.827 4.92773C140.915 6.59355 139.371 9.14579 137.313 11.5966C136.319 12.7798 132.683 15.8485 130.98 17.396L130.383 15.0503C129.695 11.3243 131.393 8.89038 135.57 7.60769H135.568Z" fill="#00B881"/>
<path d="M0.769531 14.7266H4.83734C8.61969 14.7266 11.1644 17.0384 11.1644 21.018C11.1644 24.9975 8.61969 27.3263 4.83734 27.3263H0.769531V14.7266ZM4.71339 26.2163C7.81402 26.2163 9.87422 24.389 9.87422 21.018C9.87422 17.6469 7.79524 15.8384 4.71339 15.8384H2.00715V26.2163H4.71339Z" fill="#193365"/>
<path d="M17.5781 18.0947C20.0684 18.0947 21.3417 20.0122 21.3417 22.2527C21.3417 22.4687 21.306 22.8799 21.306 22.8799H14.3873C14.4399 25.1918 16.0175 26.4463 17.8823 26.4463C19.5313 26.4463 20.6243 25.3533 20.6243 25.3533L21.1802 26.2848C21.1802 26.2848 19.8731 27.5393 17.8467 27.5393C15.1573 27.5393 13.1328 25.6031 13.1328 22.8255C13.1328 19.8695 15.1404 18.0947 17.5781 18.0947ZM20.1059 21.8771C20.0346 19.9953 18.8871 19.1164 17.5424 19.1164C16.0362 19.1164 14.7291 20.0667 14.4418 21.8771H20.1059Z" fill="#193365"/>
<path d="M23.6903 25.3553C23.6903 25.3553 24.6932 26.4483 26.3777 26.4483C27.3468 26.4483 28.1882 25.9637 28.1882 25.0153C28.1882 23.0434 23.3316 23.5279 23.3316 20.5888C23.3316 18.9756 24.7833 18.0967 26.4134 18.0967C28.314 18.0967 29.191 19.0826 29.191 19.0826L28.6351 20.0142C28.6351 20.0142 27.8651 19.1897 26.3777 19.1897C25.465 19.1897 24.5861 19.5841 24.5861 20.5869C24.5861 22.5758 29.4427 22.0387 29.4427 25.0135C29.4427 26.4821 28.1713 27.5394 26.3608 27.5394C24.1748 27.5394 23.0273 26.2304 23.0273 26.2304L23.6903 25.3534V25.3553Z" fill="#193365"/>
<path d="M36.5742 21.7512H37.0756V21.5184C37.0756 19.7793 36.1254 19.1877 34.8352 19.1877C33.3478 19.1877 32.2904 20.0479 32.2904 20.0479L31.7176 19.1164C31.7176 19.1164 32.9008 18.0947 34.9253 18.0947C37.0944 18.0947 38.2964 19.2967 38.2964 21.5541V27.3252H37.1301V26.3393C37.1301 25.8904 37.1658 25.5862 37.1658 25.5862H37.1301C37.1301 25.5862 36.377 27.5393 34.1196 27.5393C32.6135 27.5393 31.0547 26.6604 31.0547 24.8688C31.0547 21.8207 35.0155 21.7494 36.5742 21.7494V21.7512ZM34.3149 26.5008C36.0352 26.5008 37.0756 24.7073 37.0756 23.1485V22.7541H36.5554C35.1394 22.7541 32.3073 22.8086 32.3073 24.7974C32.3073 25.6388 32.9703 26.5008 34.3149 26.5008Z" fill="#193365"/>
<path d="M41.1953 18.3109H42.3954V19.9053C42.3954 20.2997 42.3597 20.6227 42.3597 20.6227H42.3954C42.8254 19.2611 43.8302 18.2207 45.2443 18.2207C45.496 18.2207 45.7289 18.2733 45.7289 18.2733V19.4752C45.7289 19.4752 45.5129 19.4395 45.28 19.4395C44.0086 19.4395 43.0583 20.4424 42.6639 21.7702C42.4855 22.343 42.4142 22.9533 42.4142 23.5261V27.3254H41.1953V18.3109Z" fill="#193365"/>
<path d="M47.6602 18.3109H48.8602V19.9053C48.8602 20.2997 48.8245 20.6227 48.8245 20.6227H48.8602C49.2903 19.2611 50.295 18.2207 51.7092 18.2207C51.9608 18.2207 52.1937 18.2733 52.1937 18.2733V19.4752C52.1937 19.4752 51.9777 19.4395 51.7449 19.4395C50.4734 19.4395 49.5232 20.4424 49.1288 21.7702C48.9504 22.343 48.879 22.9533 48.879 23.5261V27.3254H47.6602V18.3109Z" fill="#193365"/>
<path d="M58.2371 18.0947C60.8719 18.0947 63.0035 20.1023 63.0035 22.7729C63.0035 25.4435 60.8719 27.5412 58.2371 27.5412C55.6022 27.5412 53.4688 25.4979 53.4688 22.7729C53.4688 20.0479 55.6003 18.0947 58.2371 18.0947ZM58.2371 26.4482C60.1733 26.4482 61.749 24.8725 61.749 22.7748C61.749 20.677 60.1714 19.2084 58.2371 19.2084C56.3027 19.2084 54.7252 20.7315 54.7252 22.7748C54.7252 24.8181 56.3008 26.4482 58.2371 26.4482Z" fill="#193365"/>
<path d="M65.2734 14.7265H66.4923V24.9242C66.4923 26.1073 67.0313 26.2858 67.4951 26.2858C67.6567 26.2858 67.8013 26.267 67.8013 26.267V27.36C67.8013 27.36 67.5853 27.3957 67.3524 27.3957C66.5993 27.3957 65.2734 27.1628 65.2734 25.1909V14.7246V14.7265Z" fill="#193365"/>
<path d="M69.793 14.7265H71.0118V24.9242C71.0118 26.1073 71.5508 26.2858 72.0147 26.2858C72.1762 26.2858 72.3208 26.267 72.3208 26.267V27.36C72.3208 27.36 72.1048 27.3957 71.8719 27.3957C71.1189 27.3957 69.793 27.1628 69.793 25.1909V14.7246V14.7265Z" fill="#193365"/>
<path d="M78.8894 18.0947C81.5243 18.0947 83.6558 20.1023 83.6558 22.7729C83.6558 25.4435 81.5243 27.5412 78.8894 27.5412C76.2545 27.5412 74.1211 25.4979 74.1211 22.7729C74.1211 20.0479 76.2527 18.0947 78.8894 18.0947ZM78.8894 26.4482C80.8257 26.4482 82.4013 24.8725 82.4013 22.7748C82.4013 20.677 80.8238 19.2084 78.8894 19.2084C76.955 19.2084 75.3775 20.7315 75.3775 22.7748C75.3775 24.8181 76.9532 26.4482 78.8894 26.4482Z" fill="#193365"/>
<path d="M0.933594 31.623H7.01465C9.86174 31.623 11.7867 33.7114 11.7867 36.6618C11.7867 39.6122 9.86174 41.74 7.01465 41.74H4.51687V46.2642H0.933594V31.623ZM6.27659 38.6675C7.52548 38.6675 8.13959 37.8281 8.13959 36.6618C8.13959 35.4955 7.52547 34.6955 6.33856 34.6955H4.51687V38.6675H6.27846H6.27659Z" fill="#193365"/>
<path d="M13.918 35.7182H17.3172V37.5005C17.3172 37.8479 17.2759 38.1559 17.2759 38.1559H17.3172C17.7679 36.723 19.0976 35.5342 20.6751 35.5342C20.8798 35.5342 21.0845 35.5755 21.0845 35.5755V39.0574C21.0845 39.0574 20.7972 38.9954 20.3671 38.9954C19.5276 38.9954 18.1567 39.2621 17.644 40.8396C17.52 41.2284 17.4599 41.6997 17.4599 42.2725V46.2652H13.918V35.7201V35.7182Z" fill="#193365"/>
<path d="M28.3145 35.4727C31.6517 35.4727 34.3148 37.7056 34.3148 41.0222C34.3148 44.3388 31.6536 46.5098 28.3351 46.5098C25.0166 46.5098 22.3555 44.3201 22.3555 41.0222C22.3555 37.7244 25.0185 35.4727 28.3145 35.4727ZM28.3351 43.5613C29.6253 43.5613 30.7296 42.5998 30.7296 41.0222C30.7296 39.4447 29.6234 38.4212 28.3351 38.4212C27.0468 38.4212 25.9387 39.424 25.9387 41.0222C25.9387 42.6204 27.0449 43.5613 28.3351 43.5613Z" fill="#193365"/>
<path d="M40.6631 35.4731C42.7928 35.4731 43.4275 36.3126 43.4275 36.3126H43.4688C43.4688 36.3126 43.4482 36.1079 43.4482 35.8431V31.625H46.9902V46.2661H43.6736V45.5694C43.6736 45.2407 43.6942 44.9759 43.6942 44.9759H43.6529C43.6529 44.9759 42.7721 46.5121 40.603 46.5121C37.7371 46.5121 35.8516 44.2604 35.8516 40.9832C35.8516 37.7061 37.8573 35.475 40.6631 35.475V35.4731ZM41.4819 43.5824C42.5467 43.5824 43.5496 42.8049 43.5496 40.9813C43.5496 39.7118 42.8735 38.4629 41.4819 38.4629C40.3757 38.4629 39.4142 39.3644 39.4142 40.9813C39.4142 42.5983 40.2537 43.5824 41.4819 43.5824Z" fill="#193365"/>
<path d="M49.8808 35.7187H53.4228V41.903C53.4228 42.8852 53.8115 43.2946 54.5477 43.2946C56.0633 43.2946 56.7807 41.9631 56.7807 40.3875V35.7187H60.3226V46.2638H56.9234V45.3417C56.9234 44.9943 56.9647 44.6863 56.9647 44.6863H56.9234C56.3506 45.8131 55.0397 46.5079 53.6256 46.5079C51.5372 46.5079 49.8789 45.5257 49.8789 42.5566V35.7168L49.8808 35.7187Z" fill="#193365"/>
<path d="M68.4565 35.4727C71.3224 35.4727 72.6539 37.069 72.6539 37.069L71.159 39.4447C71.159 39.4447 70.1355 38.4212 68.6819 38.4212C67.0029 38.4212 66.1634 39.6907 66.1634 40.9396C66.1634 42.1885 67.0236 43.5613 68.8058 43.5613C70.2801 43.5613 71.6924 42.2918 71.6924 42.2918L72.9826 44.7689C72.9826 44.7689 71.405 46.5098 68.4584 46.5098C64.6911 46.5098 62.582 43.8881 62.582 40.9809C62.582 38.0737 64.6704 35.4727 68.4584 35.4727H68.4565Z" fill="#193365"/>
<path d="M75.5827 38.6667H74.2305V35.9022H75.6841V32.8711H79.1246V35.9022H81.335V38.6667H79.1246V41.9025C79.1246 43.0895 80.3322 43.2547 81.0083 43.2547C81.2956 43.2547 81.4778 43.2341 81.4778 43.2341V46.3046C81.4778 46.3046 81.089 46.3666 80.5162 46.3666C78.8373 46.3666 75.5808 45.9159 75.5808 42.3739V38.6686L75.5827 38.6667Z" fill="#193365"/>
<path d="M83.9609 35.719H87.5029V46.2642H83.9609V35.719ZM84.0023 31.623H87.4635V34.3875H84.0023V31.623Z" fill="#193365"/>
<path d="M89.1816 35.7188H92.9076L94.5452 41.3303C94.7499 42.0064 94.934 43.152 94.934 43.152H94.9753C94.9753 43.152 95.1593 42.0252 95.364 41.3303L96.981 35.7188H100.728L97.1444 46.2639H92.8231L89.1797 35.7188H89.1816Z" fill="#193365"/>
<path d="M107.635 35.4727C110.972 35.4727 113.635 37.7056 113.635 41.0222C113.635 44.3388 110.974 46.5098 107.655 46.5098C104.337 46.5098 101.676 44.3201 101.676 41.0222C101.676 37.7244 104.339 35.4727 107.635 35.4727ZM107.655 43.5613C108.946 43.5613 110.05 42.5998 110.05 41.0222C110.05 39.4447 108.944 38.4212 107.655 38.4212C106.367 38.4212 105.259 39.424 105.259 41.0222C105.259 42.6204 106.365 43.5613 107.655 43.5613Z" fill="#193365"/>
<path d="M1.05733 61.857C1.05733 61.857 2.46961 63.288 4.44717 63.288C5.69043 63.288 6.74588 62.5913 6.74588 61.3292C6.74588 58.4483 0.302363 59.07 0.302363 54.9815C0.302363 52.91 2.09212 51.2705 4.59741 51.2705C7.10271 51.2705 8.36474 52.6077 8.36474 52.6077L7.51587 54.1533C7.51587 54.1533 6.2914 53.0039 4.59554 53.0039C3.18326 53.0039 2.18415 53.8885 2.18415 54.9439C2.18415 57.6953 8.62766 56.9609 8.62766 61.2748C8.62766 63.3275 7.04636 65.0233 4.40773 65.0233C1.5813 65.0233 0 63.2711 0 63.2711L1.05545 61.8588L1.05733 61.857Z" fill="#193365"/>
<path d="M17.6192 51.2686C21.4616 51.2686 24.4383 54.2264 24.4383 58.0501C24.4383 61.8738 21.4616 65.0214 17.6192 65.0214C13.7767 65.0214 10.7812 61.9696 10.7812 58.0501C10.7812 54.1307 13.7767 51.2686 17.6192 51.2686ZM17.6192 63.3067C20.3329 63.3067 22.5171 61.0456 22.5171 58.0501C22.5171 55.0547 20.3329 52.9644 17.6192 52.9644C14.9054 52.9644 12.7025 55.1486 12.7025 58.0501C12.7025 60.9517 14.9073 63.3067 17.6192 63.3067Z" fill="#193365"/>
<path d="M27.5651 61.857C27.5651 61.857 28.9774 63.288 30.955 63.288C32.1982 63.288 33.2537 62.5913 33.2537 61.3292C33.2537 58.4483 26.8102 59.07 26.8102 54.9815C26.8102 52.91 28.5999 51.2705 31.1052 51.2705C33.6105 51.2705 34.8726 52.6077 34.8726 52.6077L34.0237 54.1533C34.0237 54.1533 32.7992 53.0039 31.1033 53.0039C29.6911 53.0039 28.692 53.8885 28.692 54.9439C28.692 57.6953 35.1355 56.9609 35.1355 61.2748C35.1355 63.3275 33.5523 65.0233 30.9155 65.0233C28.0891 65.0233 26.5078 63.2711 26.5078 63.2711L27.5633 61.8588L27.5651 61.857Z" fill="#193365"/>
<path d="M41.0384 53.1149H36.4805V51.4941H47.4632V53.1149H42.9033V64.7943H41.0384V53.1149Z" fill="#193365"/>
<path d="M49.7461 51.4961H57.4704V53.1168H51.611V57.2804H56.3774V58.9012H51.611V63.1774H57.7897V64.7982H49.7461V51.498V51.4961Z" fill="#193365"/>
<path d="M60.918 51.4961H62.7641L68.6799 60.1425C69.17 60.8581 69.7917 62.0638 69.7917 62.0638H69.8292C69.8292 62.0638 69.6978 60.8769 69.6978 60.1425V51.4961H71.5626V64.7963H69.7353L63.8007 56.1686C63.3106 55.4343 62.689 54.2286 62.689 54.2286H62.6514C62.6514 54.2286 62.7829 55.4155 62.7829 56.1686V64.7963H60.918V51.4961Z" fill="#193365"/>
<path d="M75.5586 51.4961H77.4235V64.7963H75.5586V51.4961Z" fill="#193365"/>
<path d="M81.4198 51.496H86.0736C88.316 51.496 89.9348 52.7393 89.9348 54.8859C89.9348 56.1855 89.2944 57.2221 88.2765 57.7499V57.7874C89.67 58.2025 90.4607 59.5208 90.4607 61.0082C90.4607 63.5135 88.5207 64.7943 86.1844 64.7943H81.418V51.4941L81.4198 51.496ZM86.0755 57.0907C87.2812 57.0907 88.0343 56.2437 88.0343 55.0755C88.0343 53.9074 87.3187 53.1168 86.0379 53.1168H83.2885V57.0907H86.0774H86.0755ZM86.2821 63.1755C87.7131 63.1755 88.562 62.2722 88.562 60.9143C88.562 59.5565 87.6587 58.6344 86.2633 58.6344H83.2866V63.1755H86.2821Z" fill="#193365"/>
<path d="M93.7461 51.4961H95.611V63.1756H101.562V64.7963H93.7461V51.4961Z" fill="#193365"/>
<path d="M104.086 51.4961H111.81V53.1168H105.951V57.2804H110.717V58.9012H105.951V63.1774H112.13V64.7982H104.086V51.498V51.4961Z" fill="#193365"/>
<path d="M126.162 35.555C125.702 35.5231 125.304 35.2132 125.131 34.7587C121.606 25.4512 119.57 22.7149 110.67 20.0537L108.727 19.541L111.378 18.1738C119.001 20.1965 122.34 22.4708 125.246 28.2607C125.601 25.3272 126.649 21.9862 129.263 19.4133L129.864 18.8218L132.345 19.2556L132.339 19.2612C130.055 21.5073 128.75 24.33 127.939 27.4269C126.955 31.1923 127.377 34.0882 127.389 34.1465C127.514 34.7531 127.146 35.354 126.547 35.5156C126.419 35.5494 126.288 35.5625 126.162 35.5531V35.555Z" fill="#193365"/>
<path d="M8.58186 4.53631C8.58186 5.73637 7.69355 6.43875 6.2794 6.43875H4.8352V8.14588H4.13281V2.63574H6.2794C7.69355 2.63574 8.58186 3.32874 8.58186 4.53819V4.53631ZM7.87948 4.53631C7.87948 3.68744 7.3048 3.21981 6.24184 3.21981H4.83707V5.85281H6.24184C7.3048 5.85281 7.87948 5.37579 7.87948 4.53631Z" fill="white"/>
<path d="M15.8783 8.14295L14.6294 6.40765C14.5036 6.41704 14.3759 6.42643 14.2481 6.42643H12.8039V8.14295H12.1016V2.63281H14.2463C15.6604 2.63281 16.5487 3.32581 16.5487 4.53526C16.5487 5.39352 16.0811 5.99824 15.2905 6.27055L16.637 8.14295H15.8764H15.8783ZM15.8501 4.53526C15.8501 3.68639 15.2754 3.21876 14.2106 3.21876H12.8058V5.85176H14.2106C15.2736 5.85176 15.8501 5.37474 15.8501 4.53526Z" fill="white"/>
<path d="M19.5859 5.3824C19.5859 3.77293 20.8536 2.56348 22.542 2.56348C24.2303 2.56348 25.4961 3.77293 25.4961 5.3824C25.4961 6.99187 24.2378 8.20132 22.542 8.20132C20.8461 8.20132 19.5859 7.00126 19.5859 5.3824ZM24.7937 5.39367C24.7937 4.11661 23.8284 3.17947 22.5401 3.17947C21.2517 3.17947 20.2864 4.11661 20.2864 5.39367C20.2864 6.67073 21.2517 7.59847 22.5401 7.59847C23.8284 7.59847 24.7937 6.66134 24.7937 5.39367Z" fill="white"/>
<path d="M32.7624 5.3824H33.4347V7.49894C32.9183 7.95718 32.1558 8.20132 31.3764 8.20132C29.6505 8.20132 28.3828 7.00126 28.3828 5.3824C28.3828 3.76354 29.6505 2.56348 31.3482 2.56348C32.2459 2.56348 32.9765 2.83579 33.4741 3.3823L33.0253 3.84054C32.5671 3.3823 32.0112 3.1776 31.3576 3.1776C30.0505 3.1776 29.0852 4.11473 29.0852 5.3824C29.0852 6.65007 30.0505 7.5872 31.3877 7.5872C31.906 7.5872 32.3624 7.47077 32.7643 7.19658V5.3824H32.7624Z" fill="white"/>
<path d="M41.0267 8.14295L39.7778 6.40765C39.652 6.41704 39.5243 6.42643 39.3966 6.42643H37.9524V8.14295H37.25V2.63281H39.3947C40.8089 2.63281 41.6972 3.32581 41.6972 4.53526C41.6972 5.39352 41.2295 5.99824 40.4389 6.27055L41.7854 8.14295H41.0248H41.0267ZM40.9967 4.53526C40.9967 3.68639 40.422 3.21876 39.3571 3.21876H37.9524V5.85176H39.3571C40.4201 5.85176 40.9967 5.37474 40.9967 4.53526Z" fill="white"/>
<path d="M48.7229 6.71941H45.6317L44.9875 8.14295H44.2852L46.8299 2.63281H47.521L50.0657 8.14295H49.3633L48.7192 6.71941H48.7229ZM48.4694 6.15412L47.183 3.29576L45.8852 6.15412H48.4694Z" fill="white"/>
<path d="M58.2859 8.14295V3.90048L56.1788 7.44996H55.8576L53.7505 3.9587V8.14295H53.0781V2.63281H53.6829L56.0229 6.58231L58.3535 2.63281H58.9582L58.9676 8.14295H58.284H58.2859Z" fill="white"/>
<path d="M66.4026 6.71941H63.3114L62.6672 8.14295H61.9648L64.5096 2.63281H65.2026L67.7473 8.14295H67.0449L66.4007 6.71941H66.4026ZM66.1472 6.15412L64.8608 3.29576L63.563 6.15412H66.1472Z" fill="white"/>
</svg>
