<svg width="32" height="32" viewBox="0 0 32 32" fill="none" xmlns="http://www.w3.org/2000/svg">
<path d="M0 5.71498C0 2.55868 2.55869 0 5.71498 0H26.2889C29.4452 0 32.0039 2.55869 32.0039 5.71498V26.2889C32.0039 29.4452 29.4452 32.0039 26.2889 32.0039H5.71498C2.55868 32.0039 0 29.4452 0 26.2889V5.71498Z" fill="#042663"/>
<rect x="5.97656" y="6.65771" width="5.61129" height="18.6887" fill="white"/>
<rect x="20.4102" y="6.65771" width="5.61129" height="18.6887" fill="white"/>
<path d="M17.1944 15.6553C14.56 16.8055 11.9551 16.4032 10.5969 16.1687C10.2745 16.9602 9.97826 18.638 10.7519 18.5208C11.719 18.3742 12.4654 18.5944 15.611 17.5444C18.2474 16.6644 19.8717 15.2853 20.6046 14.5231L21.6892 14.9922C21.8162 14.2984 22.0024 12.5717 21.2754 13.0641C20.3667 13.6797 19.2757 14.7466 17.1944 15.6553Z" fill="white"/>
<path fill-rule="evenodd" clip-rule="evenodd" d="M23.751 7.89209C20.1129 11.842 11.2865 7.76208 9.73166 15.8275C13.3999 16.7281 17.937 15.8535 20.8406 13.2769C18.6345 17.033 14.0186 18.404 9.15234 18.1582C9.94039 19.0872 10.9185 19.8288 12.0178 20.3306C13.1171 20.8324 14.3109 21.0823 15.5151 21.0627C16.7193 21.0431 17.9046 20.7544 18.9876 20.2171C20.0707 19.6797 21.0251 18.9068 21.7837 17.9525C23.7696 15.4563 24.8772 10.8091 23.751 7.89209Z" fill="url(#paint0_linear_391_11936)"/>
<defs>
<linearGradient id="paint0_linear_391_11936" x1="9.15234" y1="14.4777" x2="24.2052" y2="14.4777" gradientUnits="userSpaceOnUse">
<stop stop-color="#348B35"/>
<stop offset="1" stop-color="#ABC936"/>
</linearGradient>
</defs>
</svg>
