<svg width="131" height="204" viewBox="0 0 131 204" fill="none" xmlns="http://www.w3.org/2000/svg">
<path d="M22.462 0.0125505C33.0455 -0.184652 45.887 1.92888 55.056 7.28907C66.801 14.155 71.138 25.8538 68.287 38.9426C68.0276 40.1337 67.8156 41.3842 67.5067 42.6109C67.3365 43.613 65.8195 47.0275 66.0377 47.9183C66.6824 50.5493 67.7018 53.7355 68.3574 56.3752C68.7697 55.2268 69.1131 53.954 69.5554 52.8242C70.177 51.2361 70.8918 49.6213 71.5696 48.052C70.3738 42.862 70.0893 36.5843 71.8805 31.5185C76.62 18.1151 93.075 16.7164 105.164 17.7313C106.761 17.8654 108.977 18.2592 108.375 20.4703C108.127 21.3444 107.144 22.3177 106.697 23.1183C102.57 30.2255 101.54 38.6194 97.7798 45.8945C92.6863 56.0104 83.5531 55.5036 74.66 50.8908C72.495 55.354 70.9898 60.6884 70.4078 65.6119C70.0772 68.4094 70.4533 71.4054 70.4356 74.2515C71.9954 74.5204 73.6473 74.7944 75.1679 75.2184C82.3208 77.2443 88.7649 81.2294 93.7724 86.7238C101.395 95.0913 104.802 105.56 104.285 116.789C103.713 122.047 102.807 126.123 100.513 130.897C98.2436 135.622 95.5885 139.338 91.7721 142.945C84.0563 150.283 73.7351 154.245 63.0907 153.957C52.6902 153.633 42.2684 149.165 35.1588 141.548C10.3069 114.923 29.677 72.485 66.3587 73.7536C66.2059 66.9686 65.641 61.1056 63.7794 54.5442C63.3739 53.1149 63.0913 51.6774 62.5105 50.3015C60.1815 51.0327 57.907 51.8123 55.5343 52.3387C50.0415 53.5759 43.3374 53.8175 38.4646 50.5475C31.2273 45.6906 29.2927 35.8991 27.693 27.9271C26.7287 23.1213 25.9351 18.3045 24.6977 13.5628C24.1502 11.4644 23.4554 9.29906 22.6293 7.30041C21.8422 5.10647 18.3404 0.626283 22.462 0.0125505ZM50.5632 80.5029C50.6554 82.0036 50.6574 83.2094 50.2094 84.6752C48.9968 88.6418 45.4364 91.5497 41.2609 91.7361C39.4796 91.8166 38.1438 91.4077 36.5058 90.7084C35.091 92.458 33.8226 94.3213 32.7136 96.2794C32.2643 97.0756 31.7684 98.1997 31.3437 98.8949C34.3248 99.0386 36.1535 98.841 39.059 98.3873C41.8753 97.9482 45.7098 99.2767 47.5432 101.443C49.9907 104.206 51.0106 107.754 50.8305 111.383C50.8575 114.901 49.0937 116.977 47.088 119.63C45.4729 121.768 44.1608 124.637 43.6539 127.266C42.8728 131.315 43.8141 133.673 45.0629 137.338C45.6688 139.116 45.8216 142.869 45.6795 144.787C46.6999 145.573 47.542 146.309 48.9447 146.046C49.8003 145.886 50.7146 145.7 51.5452 145.426C53.7916 144.687 56.2142 144.595 58.3661 143.59C58.6132 143.476 59.3921 143.088 59.5307 142.879C61.6251 139.741 58.334 133.441 63.459 132.408C65.744 131.948 68.3219 133.473 70.1131 134.71C74.2876 137.594 77.7648 141.191 81.3589 144.728C81.8574 145.218 82.0428 145.265 82.6315 144.891C82.8242 144.366 82.4856 143.531 82.4168 142.934C82.118 140.324 82.9161 137.708 84.6209 135.71C86.8141 132.629 91.479 131.816 94.9337 132.935C95.6593 131.488 96.3972 130.404 97.1227 128.794C100.494 121.327 100.859 114.836 99.7475 106.823L93.4085 121.294C92.2101 124.049 91.0039 127.204 89.4738 129.78C88.3343 131.7 86.2128 134.047 84.1184 134.863C82.022 135.672 79.6788 135.375 78.4403 133.33C77.5118 131.797 76.9995 129.84 76.6949 128.083C75.7525 122.646 70.9802 120.212 65.8842 119.638C62.4695 119.253 56.6495 120.569 54.8081 116.603C54.194 114.735 54.7712 112.714 55.6059 111.07C57.7375 106.859 61.4256 102.01 60.3636 97.0295C60.0439 95.5306 57.1245 95.0171 55.9413 94.6871C52.5722 93.7477 49.5312 90.5805 51.4233 86.9676C53.4617 83.0752 58.6421 79.8049 62.4278 77.8272C62.0932 77.8492 60.9613 77.8993 60.6917 77.9513C57.0763 78.3384 53.9152 79.0489 50.5632 80.5029ZM58.3859 115.145C60.8255 115.774 63.3469 115.545 65.8408 115.662C72.6498 115.981 79.6227 120.171 80.688 127.359C80.772 127.926 80.8669 128.666 81.0194 129.205C81.2343 130.108 81.5947 130.785 81.9905 131.616C85.8201 129.38 86.9982 125.739 88.6778 121.899L92.6133 112.903L95.848 105.582C96.496 104.124 97.4136 102.313 97.8033 100.805C97.1407 98.7691 96.0243 96.4826 94.7933 94.7337C90.5362 96.4557 87.5135 96.9835 83.0732 95.0989C79.848 93.6955 77.3053 91.0785 75.9955 87.8146C74.9309 85.1109 74.7549 82.4067 75.523 79.5938C74.1857 79.1782 71.2644 78.2825 69.943 78.3593C66.6598 80.1416 56.0058 85.288 54.9982 88.7841C54.9126 89.0807 54.9109 89.3899 55.067 89.6631C56.3811 91.9623 62.18 90.1923 64.106 95.8964C64.7393 97.7719 64.7069 99.5743 64.27 101.49C63.6862 104.051 62.7046 106.437 61.4541 108.744C60.3078 110.858 58.886 112.736 58.3859 115.145ZM58.9957 47.2133C59.692 46.9726 60.3974 46.7593 61.1105 46.5741C60.3597 44.5522 59.1476 42.1096 58.1424 40.1797C52.247 28.8612 42.9447 18.6517 32.7051 11.0881C31.336 10.0608 29.9442 9.06423 28.5307 8.09911C28.1959 7.87057 27.2574 7.1707 26.9416 7.08816C27.1628 7.99186 27.5159 8.80515 27.7558 9.68706C28.2968 11.6765 28.9475 13.6947 29.3669 15.7111L31.7583 27.6336C33.122 34.2227 34.6401 43.3139 40.8498 47.1823C45.5198 50.0917 51.4782 49.2677 56.5061 47.9723C57.0795 47.8245 58.5261 47.45 58.9957 47.2133ZM98.3267 21.4348C97.3721 21.4145 96.4612 21.3746 95.5077 21.4645C89.5379 21.854 82.5325 23.494 78.4477 28.1379C74.6786 32.4228 74.4629 37.2958 74.7176 42.6997C75.1176 42.1158 75.5993 41.3681 76.0251 40.8201C76.7626 39.6144 77.6956 38.5965 78.5692 37.4997C82.7107 32.3003 87.7039 28.1605 93.203 24.4819C94.6406 23.52 97.0767 22.3934 98.3267 21.4348ZM46.3815 82.513C44.944 83.2366 40.4109 86.2503 39.7376 87.4946L39.7966 87.6411L40.0732 87.7024C42.9374 87.835 44.8004 86.9462 46.1478 84.2546C46.3479 83.8548 46.546 83.0052 46.5209 82.5629L46.3815 82.513ZM91.662 91.7648C92.0394 91.6116 92.1843 91.6257 92.3999 91.3324C92.1304 90.8401 91.2353 89.9323 90.7984 89.4623C87.5598 85.9213 83.6307 83.0804 79.2531 81.1143C79.035 84.2054 79.2987 86.6762 81.4535 89.1459C83.0233 90.9789 85.2722 92.0934 87.6817 92.2325C89.1736 92.3304 90.2472 92.1856 91.662 91.7648ZM78.0926 147.159C75.1927 144.013 68.2982 137.418 64.3796 136.187C63.9399 145.54 63.8817 146.343 54.5285 148.871C58.2204 149.375 61.5803 150.283 65.3602 150.016C66.3014 149.95 67.3958 150.005 68.323 149.806C71.0714 149.556 75.683 148.46 78.0926 147.159ZM32.0067 124.234C35.7114 119.11 34.132 112.614 28.3223 109.95C28.1079 114.566 28.0626 118.401 29.2782 122.895C29.5674 123.963 29.7776 125.107 30.2103 126.138C30.5475 125.79 31.8285 124.53 32.0067 124.234ZM87.0897 141.879C88.0135 140.884 91.8799 137.57 92.1237 136.482L92.0068 136.313C91.7339 136.301 91.7384 136.277 91.4857 136.343C90.0452 136.435 88.6993 137.092 87.7405 138.172C86.9123 139.115 86.1938 140.776 86.346 142.04L86.4543 142.117C86.6606 142.041 86.8901 141.964 87.0897 141.879ZM29.0766 105.865C38.0312 109.379 40.9756 119.647 34.8137 127.248C34.3178 127.859 32.5717 129.11 32.0461 129.809C31.8755 131.351 36.5893 137.272 37.3761 138.026C38.3026 139.177 40.5244 141.335 41.7726 142.145C41.5392 137.069 38.6126 133.398 39.3922 128.15C39.9179 124.029 41.6792 120.171 44.1156 116.83C44.7236 115.996 45.9305 114.738 46.2892 113.823C48.1288 109.129 45.4551 101.384 39.312 102.321C38.3135 102.431 37.3561 102.629 36.3637 102.783C34.1543 103.123 31.8689 102.86 29.6639 103.033C29.5119 104.044 29.3119 104.875 29.0766 105.865ZM76.4247 47.4917L78.7884 48.2964C94.3082 54.8502 95.5245 40.3187 99.5745 29.4181C99.9396 28.4356 101.387 25.0332 101.467 24.3998L101.329 24.3431C99.8261 25.2116 98.2975 26.021 96.8285 26.9296C90.914 30.59 85.5488 35.0518 81.204 40.5063C79.5256 42.6134 77.672 45.0936 76.4247 47.4917ZM63.5097 41.9781C63.6022 41.4788 63.6917 40.9086 63.8228 40.4237C65.6333 33.5779 65.6909 25.538 62.0386 19.3166C57.6968 11.921 48.6258 7.85956 40.6291 5.94773C38.6836 5.48268 32.081 4.33181 30.2576 4.35023C31.0733 5.23371 33.0396 6.30856 34.0564 7.05919C45.8177 15.7422 55.8834 26.7008 62.4125 39.8606C62.7619 40.5646 63.1336 41.2811 63.5097 41.9781Z" fill="#FCFCFC"/>
<path d="M23.206 186.715C21.8228 185.152 19.4351 182.944 17.904 181.424L6.30438 170.017C4.43121 168.18 2.07296 166.057 0.42701 164.022C0.106692 163.627 0.0484012 162.627 0.041887 162.093C-0.000567462 158.615 0.0167288 155.106 0.0263877 151.629L0.0214452 134.851L0.0153802 124.65C0.0156048 120.915 -0.350762 117.075 2.47976 114.098C5.73146 110.676 11.5603 110.503 14.988 113.81C16.2434 115.015 17.119 116.562 17.507 118.258C17.9193 120.127 17.7954 125.087 17.796 127.215C17.7523 132.783 17.7738 138.351 17.8607 143.918C18.0871 143.886 18.3148 143.867 18.5432 143.859C20.4384 143.801 22.4563 144.524 23.787 145.943C29.0634 151.569 34.5149 157.156 39.4155 163.112C42.1256 166.406 47.1697 172.828 47.2691 177.259C47.4147 178.123 47.3498 180.344 47.3481 181.327L47.3417 188.697L47.3543 197.498C47.356 198.233 47.417 201.347 47.266 201.921C47.2233 202.158 47.1298 202.382 46.9918 202.58C46.6108 203.12 45.8568 203.487 45.2398 203.528C42.9156 203.68 40.3423 203.565 38.0105 203.573L29.9984 203.602C28.5578 203.605 27.116 203.644 25.671 203.57C23.9562 203.483 23.35 202.98 23.2471 201.234C23.1475 199.543 23.2045 197.82 23.2097 196.129L23.206 186.715ZM43.4115 199.534C43.4979 195.124 43.3624 190.696 43.4231 186.286C43.4467 184.569 43.3027 182.436 43.4244 180.767C43.7643 176.109 42.0124 173.172 39.2434 169.49C37.6477 167.243 35.862 165.109 34.0576 163.025C31.1123 159.622 28.0839 156.273 24.9848 153.01C23.5517 151.5 22.1828 149.901 20.6322 148.515C20.2979 148.219 19.7844 148.009 19.3557 147.948C17.3857 147.666 15.6922 148.739 15.5071 150.827C15.385 152.204 15.9528 153.084 16.8104 154.103C19.5562 157.168 22.2692 160.224 24.9951 163.311C26.1421 164.609 27.34 165.787 28.3963 167.205C29.9479 169.288 27.4955 171.534 25.5793 169.873C24.7975 169.196 24.0817 168.288 23.38 167.523C22.1973 166.183 21.0359 164.826 19.8497 163.492L15.1497 158.199C13.3843 156.191 11.7076 154.694 11.4464 151.826C11.2535 149.708 12.2472 147.233 13.7485 145.757L13.766 127.688C13.7657 124.871 13.9316 121.669 13.5511 118.924C13.2521 116.765 10.5407 115.292 8.51134 115.32L8.43429 115.322C5.86837 116.098 4.35102 117.261 4.21894 120.167C4.07967 123.227 4.14223 126.307 4.14245 129.372L4.14773 145.435L4.14245 156.078C4.14077 157.976 4.05114 160.389 4.30991 162.233C4.37764 162.716 7.35305 165.363 7.87036 165.87L19.7639 177.654C21.9237 179.792 24.0937 181.921 26.2241 184.089C27.3324 185.217 27.1243 186.334 27.1355 187.803C27.1646 191.602 27.0691 195.407 27.2225 199.205C27.225 199.268 27.1997 199.439 27.1901 199.512C30.5803 199.542 33.9706 199.548 37.3609 199.527C39.2886 199.526 41.515 199.595 43.4115 199.534Z" fill="#FCFCFC"/>
<path d="M47.2715 177.26C47.4172 178.123 47.3522 180.345 47.3506 181.327L47.3441 188.698L47.3567 197.499C47.3584 198.233 47.4194 201.348 47.2684 201.921C47.1431 201.011 47.2179 198.56 47.1768 197.461C46.9181 190.729 46.9497 183.989 47.2715 177.26Z" fill="#FCFCFC"/>
<path d="M120.054 111.513C125.599 110.701 130.273 115.167 130.067 120.673C130.035 121.53 130.072 122.516 130.071 123.385L130.066 131.202L130.072 160.262C130.074 164.198 130.485 163.387 127.85 166.004C126.261 167.612 124.654 169.204 123.031 170.778L108.518 185.157C108.074 185.604 107.449 186.209 107.257 186.823C106.897 187.965 107.173 197.61 107.184 199.577C107.19 200.73 107.258 202.162 106.339 203.029C106.031 203.319 105.684 203.436 105.272 203.497C103.856 203.711 102.326 203.593 100.892 203.593L92.9142 203.588C91.1677 203.579 84.5991 204.042 83.5083 203.01C83.0389 202.566 82.9707 201.56 82.9583 200.944C82.8647 196.274 82.9691 191.574 82.9661 186.9C82.9641 183.742 82.648 178.19 83.2915 175.316C84.922 168.037 98.276 154.431 103.777 148.694C104.449 147.992 105.069 147.241 105.745 146.543C107.82 144.403 109.65 143.91 112.581 143.86C112.53 138.496 112.513 133.132 112.53 127.768C112.529 124.821 112.357 121.497 112.737 118.611C113.257 114.668 116.365 112.236 120.054 111.513ZM116.508 145.584C117.117 146.531 117.764 147.343 118.208 148.394C120.301 153.34 116.659 156.266 113.773 159.589L108.128 166.03C107.234 167.056 105.391 169.33 104.395 170.103C102.643 171.461 100.147 169.138 101.987 166.997C105.948 162.385 110.057 157.843 114.011 153.221C115.024 152.037 114.775 150.524 114.277 149.165C111.499 146.698 109.989 147.745 107.873 150.168C104.783 153.706 101.24 157.015 98.2086 160.594C95.5861 163.692 92.3245 167.183 90.172 170.605C86.765 175.474 86.8232 176.554 86.8262 182.311L86.8346 194.027C86.8398 195.362 86.9584 198.502 86.8099 199.616C88.3199 199.448 91.0183 199.527 92.6255 199.526L102.953 199.549L102.957 190.382C102.959 188.88 102.84 186.795 103.092 185.358C103.21 184.686 104.297 183.634 104.798 183.132L120.432 167.741L124.399 163.844C125.847 162.405 126.115 162.699 126.114 160.605L126.093 132.631L126.095 124.542C126.097 122.983 126.184 121.201 125.993 119.665C125.633 116.755 123.454 115.179 120.578 115.325C119.051 115.901 117.488 116.609 116.919 118.227C116.243 120.152 116.461 123.289 116.461 125.323L116.464 134.106L116.458 141.221C116.457 142.492 116.41 144.354 116.508 145.584Z" fill="#FCFCFC"/>
</svg>
