<svg width="138" height="128" viewBox="0 0 138 128" fill="none" xmlns="http://www.w3.org/2000/svg">
<g clip-path="url(#clip0_249_503)">
<rect width="38.4128" height="127.936" fill="white"/>
<rect x="98.8125" width="38.4128" height="127.936" fill="white"/>
<path d="M76.7832 61.5938C58.7487 69.4679 40.9168 66.7142 31.6188 65.1088C29.412 70.5268 27.384 82.0126 32.6801 81.2099C39.3003 80.2066 44.4101 81.7139 65.9433 74.5264C83.9912 68.5023 95.1111 59.061 100.128 53.8436L107.552 57.0545C108.422 52.3054 109.697 40.4846 104.72 43.8558C98.4993 48.0698 91.0307 55.3731 76.7832 61.5938Z" fill="white"/>
<path fill-rule="evenodd" clip-rule="evenodd" d="M121.664 10.4502C96.7587 37.4901 36.3364 9.56019 25.6923 64.7728C50.8035 70.938 81.8633 64.9508 101.74 47.3125C86.638 73.0255 55.0389 82.411 21.7266 80.7281C27.1213 87.0879 33.817 92.1642 41.3424 95.5994C48.8678 99.0346 57.0399 100.745 65.2833 100.611C73.5268 100.477 81.6412 98.501 89.0553 94.8226C96.4694 91.1441 103.003 85.8525 108.196 79.3203C121.791 62.2322 129.373 30.4186 121.664 10.4502Z" fill="white"/>
<path fill-rule="evenodd" clip-rule="evenodd" d="M121.664 6.73438C96.7587 33.7743 36.3364 5.84437 25.6923 61.0569C50.8035 67.2222 81.8633 61.2349 101.74 43.5967C86.638 69.3097 55.0389 78.6952 21.7266 77.0123C27.1213 83.3721 33.817 88.4483 41.3424 91.8836C48.8678 95.3188 57.0399 97.0295 65.2833 96.8953C73.5268 96.7611 81.6412 94.7852 89.0553 91.1068C96.4694 87.4283 103.003 82.1367 108.196 75.6044C121.791 58.5164 129.373 26.7028 121.664 6.73438Z" fill="url(#paint0_linear_249_503)"/>
</g>
<defs>
<linearGradient id="paint0_linear_249_503" x1="21.7266" y1="51.8171" x2="124.773" y2="51.8171" gradientUnits="userSpaceOnUse">
<stop stop-color="#348B35"/>
<stop offset="1" stop-color="#ABC936"/>
</linearGradient>
<clipPath id="clip0_249_503">
<rect width="137.225" height="127.936" fill="white"/>
</clipPath>
</defs>
</svg>
